<svg version="1.1" xmlns="http://www.w3.org/2000/svg" xmlns:xlink="http://www.w3.org/1999/xlink"  >
<g display="none">
	<path display="inline" fill="#FFFFFF" stroke="#000000" stroke-miterlimit="10" d="M3.499,42.669"/>
</g>
<linearGradient id="SVGID_1_" gradientUnits="userSpaceOnUse" x1="611.832" y1="154.6689" x2="611.832" y2="154.6689">
	<stop  offset="0" style="stop-color:#FFFFFF"/>
	<stop  offset="1" style="stop-color:#4A72B2"/>
</linearGradient>
<path display="none" fill="url(#SVGID_1_)" stroke="#000000" stroke-miterlimit="10" d="M611.832,154.669"/>
<linearGradient id="SVGID_2_" gradientUnits="userSpaceOnUse" x1="176.499" y1="154.6689" x2="176.499" y2="154.6689">
	<stop  offset="0" style="stop-color:#FFFFFF"/>
	<stop  offset="1" style="stop-color:#4A72B2"/>
</linearGradient>
<path display="none" fill="url(#SVGID_2_)" stroke="#000000" stroke-miterlimit="10" d="M176.499,154.669"/>
<g display="none">
	<linearGradient id="SVGID_3_" gradientUnits="userSpaceOnUse" x1="400.5" y1="66.002" x2="400.5" y2="66.002">
		<stop  offset="0" style="stop-color:#FFFFFF"/>
		<stop  offset="1" style="stop-color:#4A72B2"/>
	</linearGradient>
	<path display="inline" fill="url(#SVGID_3_)" d="M400.5,66.002"/>
</g>
<linearGradient id="SVGID_4_" gradientUnits="userSpaceOnUse" x1="456.7676" y1="32.0039" x2="456.7676" y2="32.0039" gradientTransform="matrix(-1 0 0 1 578.3311 0)">
	<stop  offset="0" style="stop-color:#FFFFFF"/>
	<stop  offset="1" style="stop-color:#4A72B2"/>
</linearGradient>
<path display="none" fill="url(#SVGID_4_)" stroke="#850E5B" stroke-miterlimit="10" d="M121.564,32.005"/>
<g>
	<linearGradient id="SVGID_5_" gradientUnits="userSpaceOnUse" x1="202.8335" y1="4.882813e-004" x2="202.8335" y2="42.6694">
		<stop  offset="0" style="stop-color:#FFFFFF"/>
		<stop  offset="1" style="stop-color:#4A72B2"/>
	</linearGradient>
	<path fill="url(#SVGID_5_)" d="M405.667,42.669H126.732c-30.846,0-47.412-5.915-55.445-17.531
		c-4.469-6.463-11.881-11.413-19.22-11.597C37.337,13.173,0,13.654,0,13.654V0h405.667"/>
	
		<linearGradient id="SVGID_6_" gradientUnits="userSpaceOnUse" x1="180.8315" y1="4.882813e-004" x2="180.8315" y2="42.6685" gradientTransform="matrix(-1 0 0 1 788.3311 0)">
		<stop  offset="0" style="stop-color:#FFFFFF"/>
		<stop  offset="1" style="stop-color:#4A72B2"/>
	</linearGradient>
	<path fill="url(#SVGID_6_)" d="M404.667,42.669H683.6c30.846,0,47.412-5.916,55.446-17.531c4.47-6.463,11.88-11.413,19.221-11.597
		c14.73-0.369,52.065,0.113,52.065,0.113V0H404.667"/>
</g>
</svg>
