<?xml version="1.0" encoding="UTF-8" standalone="no"?>
<svg
   xmlns:dc="http://purl.org/dc/elements/1.1/"
   xmlns:cc="http://creativecommons.org/ns#"
   xmlns:rdf="http://www.w3.org/1999/02/22-rdf-syntax-ns#"
   xmlns:svg="http://www.w3.org/2000/svg"
   xmlns="http://www.w3.org/2000/svg"
   xmlns:sodipodi="http://sodipodi.sourceforge.net/DTD/sodipodi-0.dtd"
   xmlns:inkscape="http://www.inkscape.org/namespaces/inkscape"
   version="1.0"
   width="99.19148825361515"
   height="297.4893615006572"
   preserveAspectRatio="xMidYMid meet"
   sodipodi:docname="boat1move.svg"
   inkscape:version="0.92.5 (2060ec1f9f, 2020-04-08)"
   id="svg22">
  <rect
     id="backgroundrect"
     width="100%"
     height="100%"
     x="0"
     y="0"
     fill="none"
     stroke="none"
     class=""
     style="" />
  <defs
     id="defs14" />
  <sodipodi:namedview
     pagecolor="#ffffff"
     bordercolor="#666666"
     borderopacity="1"
     objecttolerance="10"
     gridtolerance="10"
     guidetolerance="10"
     inkscape:pageopacity="0"
     inkscape:pageshadow="2"
     inkscape:window-width="1440"
     inkscape:window-height="863"
     id="namedview12"
     showgrid="false"
     inkscape:zoom="2.2449324"
     inkscape:cx="67.644349"
     inkscape:cy="147.76629"
     inkscape:window-x="1440"
     inkscape:window-y="0"
     inkscape:window-maximized="1"
     inkscape:current-layer="svg22" />
  <metadata
     id="metadata2">
Created by potrace 1.16, written by Peter Selinger 2001-2019
<rdf:RDF>
  <cc:Work
     rdf:about="">
    <dc:format>image/svg+xml</dc:format>
    <dc:type
       rdf:resource="http://purl.org/dc/dcmitype/StillImage" />
    <dc:title />
  </cc:Work>
</rdf:RDF>
</metadata>
  <g
     class="currentLayer"
     style="stroke:#000000;stroke-opacity:1;stroke-width:1;stroke-miterlimit:4;stroke-dasharray:none"
     id="g20">
    <title
       id="title6">Layer 1</title>
    <g
       id="g854"
       class=""
       transform="rotate(90.39253997802734 49.368434906005845,147.87274169921878) "
       style="stroke:#000000;stroke-opacity:1;stroke-width:1;stroke-miterlimit:4;stroke-dasharray:none">
      <g
         style="fill:#006300;fill-opacity:1;stroke:#000000;stroke-opacity:1;stroke-width:9.99999985;stroke-miterlimit:4;stroke-dasharray:none"
         id="g8"
         transform="translate(0,97) scale(0.10000000149011612,-0.10000000149011612) "
         stroke="none"
         fill="#000000">
        <path
           style="fill:#006300;fill-opacity:1;stroke:#000000;stroke-opacity:1;stroke-width:9.99999985;stroke-miterlimit:4;stroke-dasharray:none"
           id="path4"
           d="M31.18438720703125,-38.90787887573242 c-4,-4 -7,-16 -7,-26 c0,-15 -8,-18 -57,-18 c-181,-1 -522,-140 -806,-330 l-138,-92 l68,-50 c282,-206 680,-378 875,-378 c51,0 57,-2 60,-22 c3,-22 8,-23 91,-26 c91,-3 123,7 113,35 c-4,11 76,13 464,13 l469,0 l3,-23 c3,-21 7,-22 98,-22 c91,0 95,1 98,23 c4,28 42,31 42,3 c0,-25 19,-31 105,-31 c86,0 105,6 105,31 c0,28 38,25 42,-3 c3,-22 7,-23 98,-23 c91,0 95,1 98,23 c3,20 9,22 58,22 l54,0 l0,425 l0,425 l-54,0 c-49,0 -55,2 -58,23 c-3,21 -7,22 -98,22 c-91,0 -95,-1 -98,-22 c-2,-15 -10,-23 -22,-23 c-12,0 -20,8 -22,23 c-3,21 -7,22 -103,22 c-96,0 -100,-1 -103,-22 c-2,-15 -10,-23 -22,-23 c-12,0 -20,8 -22,23 c-3,21 -7,22 -98,22 c-91,0 -95,-1 -98,-22 l-3,-23 l-462,0 l-462,0 l-10,23 c-9,20 -18,22 -100,25 c-50,1 -94,0 -98,-4 zm58,-134 c-3,-5 -41,-10 -83,-10 c-175,0 -448,-102 -715,-267 c-104,-65 -108,-52 41,-139 c263,-156 508,-243 685,-244 c50,0 77,-4 77,-11 c0,-8 -35,-10 -117,-7 c-105,4 -131,9 -242,46 c-152,52 -332,139 -470,228 l-104,68 l24,19 c41,33 254,156 341,197 c190,89 335,129 471,129 c63,1 96,-3 92,-9 zm1255,0 c0,-7 -170,-10 -489,-10 c-316,0 -492,4 -496,10 c-4,7 162,10 489,10 c324,0 496,-3 496,-10 zm540,-335 l0,-345 l-140,0 c-179,0 -189,18 -12,22 l127,3 l2,300 c1,165 0,311 -4,323 c-5,21 -10,22 -129,22 c-76,0 -124,4 -124,10 c0,6 53,10 140,10 l140,0 l0,-345 zm-60,0 c0,-197 -4,-305 -10,-305 c-5,0 -10,7 -10,15 c0,11 -11,15 -40,15 l-40,0 l0,275 l0,275 l40,0 c29,0 40,4 40,15 c0,8 5,15 10,15 c6,0 10,-108 10,-305 zm-340,0 l0,-295 l-720,0 l-720,0 l0,50 l0,50 l-182,2 l-183,3 l-3,193 l-2,192 l185,0 l185,0 l0,50 l0,50 l720,0 l720,0 l0,-295 zm-140,-335 c0,-7 -172,-10 -495,-10 c-323,0 -495,3 -495,10 c0,7 172,10 495,10 c323,0 495,-3 495,-10 z" />
        <path
           style="fill:#006300;fill-opacity:1;stroke:#000000;stroke-opacity:1;stroke-width:9.99999985;stroke-miterlimit:4;stroke-dasharray:none"
           id="path6"
           d="M74.18438720703125,-507.9078788757324 l0,-275 l695,0 l695,0 l0,275 l0,275 l-695,0 l-695,0 l0,-275 zm250,0 l0,-245 l-90,0 l-90,0 l0,245 l0,245 l90,0 l90,0 l0,-245 z" />
      </g>
      <path
         transform="translate(-47.517730712890625,93.61702728271484) scale(0.75) "
         inkscape:connector-curvature="0"
         id="path823"
         d="m69.7364115608724,104.8888399781494 v-6.542237 l-14.0316,-0.5819590000000001 c-7.71738,-0.32007700000000006 -18.74221,-0.5832940000000001 -24.499627,-0.5849260000000001 l-10.468021,-0.003000000000000001 V71.7862309781494 V46.3957119781494 h24.499628 h24.49962 v-6.681716 v-6.6817150000000005 h95.77126 h95.77125 V72.2316789781494 V111.4310719781494 H165.5076715608724 H69.7364115608724 zM258.6062415608724,72.2275559781494 V34.8058249781494 l-92.87585,0.22684700000000005 l-92.87585,0.22684700000000005 l-0.23302,36.080095 c-0.12816,19.844052 -0.04050000000000001,36.581748 0.19477000000000003,37.194878 c0.3386700000000001,0.8825700000000001 19.73397,1.11479 93.10887,1.11479 h92.68108 z"
         style="fill:#000000;fill-opacity:1;stroke-width:1.33333333;stroke:#000000;stroke-opacity:1;stroke-miterlimit:4;stroke-dasharray:none" />
      <path
         transform="translate(-47.517730712890625,93.61702728271484) scale(0.75) "
         inkscape:connector-curvature="0"
         id="path825"
         d="M83.09984156087239,72.2316789781494 V40.1594439781494 h11.58164 h11.58164 v32.072235 v32.072234 h-11.58164 h-11.58164 z"
         style="fill:#000000;fill-opacity:1;stroke-width:1.33333333;stroke:#000000;stroke-opacity:1;stroke-miterlimit:4;stroke-dasharray:none" />
      <path
         transform="translate(-47.517730712890625,93.61702728271484) scale(0.75) "
         inkscape:connector-curvature="0"
         id="path827"
         d="m303.7177715608724,110.0896119781494 c-0.36801000000000006,-0.9590200000000001 -1.8886500000000002,-1.33122 -5.43873,-1.33122 h-4.92788 V72.2316789781494 V35.7049669781494 h4.92788 c3.55008,0 5.07072,-0.37220200000000003 5.43873,-1.331226 c1.6732400000000003,-4.360397 2.1059200000000002,3.417915 2.1059200000000002,37.857938 c0,34.440022 -0.43268000000000006,42.218333 -2.1059200000000002,37.857933 z"
         style="fill:#000000;fill-opacity:1;stroke-width:1.33333333;stroke:#000000;stroke-opacity:1;stroke-miterlimit:4;stroke-dasharray:none" />
      <path
         transform="translate(-47.517730712890625,93.61702728271484) scale(0.75) "
         inkscape:connector-curvature="0"
         id="path833"
         d="m314.2557715608724,72.2316789781494 c0,-25.234613 0.11406000000000002,-35.557863 0.25348000000000004,-22.940557 c0.13941000000000003,12.617306 0.13941000000000003,33.263807 0,45.881113 c-0.13942000000000002,12.617307 -0.25348000000000004,2.294056 -0.25348000000000004,-22.940556 z"
         style="fill:#000000;fill-opacity:1;stroke-width:1.33333333;stroke:#000000;stroke-opacity:1;stroke-miterlimit:4;stroke-dasharray:none" />
      <path
         transform="translate(-47.517730712890625,93.61702728271484) scale(0.75) "
         inkscape:connector-curvature="0"
         id="path835"
         d="m280.8786215608724,116.7764519781494 c0.7349900000000001,-0.47499 5.9467300000000005,-0.8732400000000001 11.58164,-0.8850000000000001 c5.63492,-0.011800000000000003 12.36491,-0.27596000000000004 14.95555,-0.5871000000000001 l4.71025,-0.56571 l-0.25577,-41.81647 c-0.24594000000000005,-40.208363 -0.32228000000000007,-41.865076 -1.98512,-43.080419 c-1.30334,-0.9525910000000001 -4.92445,-1.2673100000000002 -14.699770000000001,-1.277592 c-7.13374,-0.007500000000000002 -13.57179,-0.402267 -14.30678,-0.8772530000000001 c-0.8884500000000001,-0.574161 4.41161,-0.868183 15.8134,-0.8772530000000001 l17.14973,-0.013640000000000003 v45.435666 v45.435661 l-17.14973,-0.013600000000000003 c-11.40179,-0.009000000000000003 -16.70185,-0.30310000000000004 -15.8134,-0.87726 z"
         style="fill:#000000;fill-opacity:1;stroke-width:1.33333333;stroke:#000000;stroke-opacity:1;stroke-miterlimit:4;stroke-dasharray:none" />
      <path
         transform="translate(-47.517730712890625,93.61702728271484) scale(0.75) "
         inkscape:connector-curvature="0"
         id="path837"
         d="m124.52648156087241,27.6869079781494 c-3.42995,-0.31694000000000006 20.02287,-0.5906020000000001 52.11738,-0.6081390000000001 c32.09451,-0.017540000000000004 56.14868,0.27292500000000003 53.45372,0.6454690000000001 c-5.88943,0.814138 -96.70397,0.782027 -105.5711,-0.03733000000000001 z"
         style="fill:#000000;fill-opacity:1;stroke-width:1.33333333;stroke:#000000;stroke-opacity:1;stroke-miterlimit:4;stroke-dasharray:none" />
      <path
         transform="translate(-47.517730712890625,93.61702728271484) scale(0.75) "
         inkscape:connector-curvature="0"
         id="path839"
         d="m122.74469156087241,116.7354619781494 c5.80692,-0.90447 101.99141,-0.90447 107.79834,0 c2.44996,0.38160000000000005 -21.80466,0.6938100000000001 -53.89917,0.6938100000000001 c-32.09451,0 -56.34914,-0.31221000000000004 -53.89917,-0.6938100000000001 z"
         style="fill:#000000;fill-opacity:1;stroke-width:1.33333333;stroke:#000000;stroke-opacity:1;stroke-miterlimit:4;stroke-dasharray:none" />
      <path
         transform="translate(-47.517730712890625,93.61702728271484) scale(0.75) "
         inkscape:connector-curvature="0"
         id="path841"
         d="M48.48805156087241,116.6760119781494 C35.6862415608724,115.1899419781494 5.026781560872408,103.3439319781494 -16.163969439127598,91.6961629781494 C-28.540476439127595,84.8932579781494 -46.970887439127594,73.2359689781494 -46.970887439127594,72.2106969781494 c0,-1.117951 5.655635,-4.845865 20.734092,-13.666886 c30.295666,-17.723213 52.855148,-26.986832 74.119707,-30.435835 c8.7089,-1.412541 27.13792,-1.734784 24.08074,-0.42106800000000005 c-0.97999,0.42111400000000004 -4.63582,0.7938390000000001 -8.12409,0.8282790000000001 C41.275341560872405,28.7379609781494 7.3758945608724105,41.1088889781494 -27.096503439127595,61.7004959781494 C-40.394878439127595,69.6440929781494 -42.034895439127595,71.0191219781494 -41.1040864391276,73.4447719781494 c0.998031,2.6008250000000004 32.721703,20.305315 49.439715,27.591536 c21.267184,9.268894 38.292293,13.812254 54.719063,14.602474 c5.38992,0.25928999999999996 10.40121,0.80959 11.1362,1.2229100000000002 c1.71338,0.9634900000000001 -16.96564,0.82855 -25.702840000000002,-0.18568 z"
         style="fill:#000000;fill-opacity:1;stroke-width:1.33333333;stroke:#000000;stroke-opacity:1;stroke-miterlimit:4;stroke-dasharray:none" />
    </g>
  </g>
</svg>
