<?xml version="1.0" standalone="no"?>
<!DOCTYPE svg PUBLIC "-//W3C//DTD SVG 20010904//EN"
 "http://www.w3.org/TR/2001/REC-SVG-20010904/DTD/svg10.dtd">
<svg version="1.0" xmlns="http://www.w3.org/2000/svg"
 width="296.000000pt" height="97.000000pt" viewBox="0 0 296.000000 97.000000"
 preserveAspectRatio="xMidYMid meet">
<metadata>
Created by potrace 1.16, written by Peter Selinger 2001-2019
</metadata>
<g transform="translate(0.000000,97.000000) scale(0.100000,-0.100000)"
fill="#000000" stroke="none">
<path d="M1017 954 c-4 -4 -7 -16 -7 -26 0 -15 -8 -18 -57 -18 -181 -1 -522
-140 -806 -330 l-138 -92 68 -50 c282 -206 680 -378 875 -378 51 0 57 -2 60
-22 3 -22 8 -23 91 -26 91 -3 123 7 113 35 -4 11 76 13 464 13 l469 0 3 -23
c3 -21 7 -22 98 -22 91 0 95 1 98 23 4 28 42 31 42 3 0 -25 19 -31 105 -31 86
0 105 6 105 31 0 28 38 25 42 -3 3 -22 7 -23 98 -23 91 0 95 1 98 23 3 20 9
22 58 22 l54 0 0 425 0 425 -54 0 c-49 0 -55 2 -58 23 -3 21 -7 22 -98 22 -91
0 -95 -1 -98 -22 -2 -15 -10 -23 -22 -23 -12 0 -20 8 -22 23 -3 21 -7 22 -103
22 -96 0 -100 -1 -103 -22 -2 -15 -10 -23 -22 -23 -12 0 -20 8 -22 23 -3 21
-7 22 -98 22 -91 0 -95 -1 -98 -22 l-3 -23 -462 0 -462 0 -10 23 c-9 20 -18
22 -100 25 -50 1 -94 0 -98 -4z m58 -134 c-3 -5 -41 -10 -83 -10 -175 0 -448
-102 -715 -267 -104 -65 -108 -52 41 -139 263 -156 508 -243 685 -244 50 0 77
-4 77 -11 0 -8 -35 -10 -117 -7 -105 4 -131 9 -242 46 -152 52 -332 139 -470
228 l-104 68 24 19 c41 33 254 156 341 197 190 89 335 129 471 129 63 1 96 -3
92 -9z m1255 0 c0 -7 -170 -10 -489 -10 -316 0 -492 4 -496 10 -4 7 162 10
489 10 324 0 496 -3 496 -10z m540 -335 l0 -345 -140 0 c-179 0 -189 18 -12
22 l127 3 2 300 c1 165 0 311 -4 323 -5 21 -10 22 -129 22 -76 0 -124 4 -124
10 0 6 53 10 140 10 l140 0 0 -345z m-60 0 c0 -197 -4 -305 -10 -305 -5 0 -10
7 -10 15 0 11 -11 15 -40 15 l-40 0 0 275 0 275 40 0 c29 0 40 4 40 15 0 8 5
15 10 15 6 0 10 -108 10 -305z m-340 0 l0 -295 -720 0 -720 0 0 50 0 50 -182
2 -183 3 -3 193 -2 192 185 0 185 0 0 50 0 50 720 0 720 0 0 -295z m-140 -335
c0 -7 -172 -10 -495 -10 -323 0 -495 3 -495 10 0 7 172 10 495 10 323 0 495
-3 495 -10z"/>
<path d="M1060 485 l0 -275 695 0 695 0 0 275 0 275 -695 0 -695 0 0 -275z
m250 0 l0 -245 -90 0 -90 0 0 245 0 245 90 0 90 0 0 -245z"/>
</g>
</svg>
