<svg xmlns:dc="http://purl.org/dc/elements/1.1/" xmlns:cc="http://creativecommons.org/ns#" xmlns:rdf="http://www.w3.org/1999/02/22-rdf-syntax-ns#" xmlns:svg="http://www.w3.org/2000/svg" xmlns="http://www.w3.org/2000/svg" xmlns:sodipodi="http://sodipodi.sourceforge.net/DTD/sodipodi-0.dtd" xmlns:inkscape="http://www.inkscape.org/namespaces/inkscape" version="1.0" width="136.21052611765776" height="463.05263058828837" preserveAspectRatio="xMidYMid meet" sodipodi:docname="bus1stop.svg" inkscape:version="0.92.5 (2060ec1f9f, 2020-04-08)"><rect id="backgroundrect" width="100%" height="100%" x="0" y="0" fill="none" stroke="none" class="" style=""/>
  <defs id="defs14"/>
  <sodipodi:namedview pagecolor="#ffffff" bordercolor="#666666" borderopacity="1" objecttolerance="10" gridtolerance="10" guidetolerance="10" inkscape:pageopacity="0" inkscape:pageshadow="2" inkscape:window-width="1440" inkscape:window-height="792" id="namedview12" showgrid="false" inkscape:zoom="1.0214619" inkscape:cx="303.01373" inkscape:cy="61.345696" inkscape:window-x="0" inkscape:window-y="27" inkscape:window-maximized="1" inkscape:current-layer="svg10"/>
  <metadata id="metadata2">
Created by potrace 1.16, written by Peter Selinger 2001-2019
<rdf:RDF>
  <cc:Work rdf:about="">
    <dc:format>image/svg+xml</dc:format>
    <dc:type rdf:resource="http://purl.org/dc/dcmitype/StillImage"/>
    <dc:title/>
  </cc:Work>
</rdf:RDF>
</metadata>
  
  
  
  
  
  
  
  
<g class="currentLayer" style=""><title>Layer 1</title><g class="" transform="rotate(89.97765350341797 68.06029510498045,231.97369384765625) "><path style="fill:#000000;fill-opacity:1;stroke-width:1.38449967" d="m510.17897113652543,105.66910107772819 c-14.60346,-0.36928000000000016 -15.46951,-0.55376 -16.24896,-3.46125 c-1.07328,-4.00355 -1.0648900000000001,-25.706294 0.01150000000000001,-29.722801 l0.8348200000000003,-3.1151240000000002 h32.56118 h32.56119 l-0.6674200000000003,17.325247 c-0.3670800000000003,9.528886 -0.91847,17.562788 -1.2253,17.853108 c-0.8900100000000003,0.84213 -30.97066,1.54706 -47.827,1.12082 z" id="path829" inkscape:connector-curvature="0" transform="translate(-167.1052703857422,166.44737243652344) scale(0.75) " class=""/><g class="" id="svg_1"><g transform="translate(0,135) scale(0.10000000149011612,-0.10000000149011612) " fill="#000000" stroke="none" id="g8" style="fill:#800000;fill-opacity:1;stroke:#000000;stroke-opacity:1;stroke-width:7.50000012;stroke-miterlimit:4;stroke-dasharray:none" class="">
    <path d="M-1275.0001010894775,-324.7369136810303 c0,-15 -7,-20 -29,-20 c-29,0 -71,-37 -71,-64 c-1,-6 -24,-24 -52,-41 c-62,-36 -125,-122 -151,-205 c-26,-85 -40,-250 -33,-395 c9,-196 40,-292 124,-386 c24,-27 58,-54 77,-60 c25,-9 36,-21 40,-41 c8,-32 39,-58 72,-58 c16,0 23,-6 23,-20 c0,-11 5,-20 10,-20 c6,0 10,23 10,50 c0,28 -4,50 -10,50 c-5,0 -10,-9 -10,-20 c0,-15 -7,-20 -28,-20 c-32,0 -52,16 -52,42 c0,17 84,18 2078,18 c1397,0 2092,4 2122,11 c49,11 83,37 108,84 c15,26 17,79 20,405 c2,206 1,398 -3,427 c-8,67 -39,112 -95,141 l-44,22 l-2093,0 c-2009,0 -2093,1 -2093,18 c0,26 20,42 52,42 c21,0 28,-5 28,-20 c0,-11 5,-20 10,-20 c6,0 10,23 10,50 c0,28 -4,50 -10,50 c-5,0 -10,-9 -10,-20 zm4055,-210 c-8,-12 -3970,-13 -4030,-1 c-22,5 877,9 1998,10 c1357,1 2036,-2 2032,-9 zm-4050,-40 c7,0 9,-137 9,-392 l-2,-393 l-62,-15 l-63,-14 l-24,29 c-41,50 -72,120 -83,186 c-13,81 -13,313 0,404 c11,74 48,166 81,201 c20,21 23,21 77,8 c31,-7 62,-13 67,-14 zm1253,-102 c9,-9 12,-87 12,-289 c0,-239 -2,-280 -16,-293 c-14,-14 -75,-16 -519,-16 c-444,0 -505,2 -519,16 c-14,13 -16,53 -16,285 c0,167 4,278 10,290 c10,18 27,19 523,19 c386,0 516,-3 525,-12 zm767,-293 l0,-140 l-245,0 l-245,0 l-3,143 l-3,142 l248,-2 l248,-3 l0,-140 zm893,11 c2,-86 -1,-133 -9,-142 c-16,-19 -468,-21 -487,-2 c-13,13 -18,232 -6,262 c6,15 35,16 253,14 l246,-3 l3,-129 zm883,112 c3,-88 0,-248 -6,-257 c-7,-12 -450,-16 -479,-5 c-14,5 -16,27 -16,138 c0,73 3,136 7,139 c3,4 116,7 250,7 l243,0 l1,-22 zm-661,-558 c0,-7 -363,-10 -1070,-10 c-707,0 -1070,3 -1070,10 c0,7 363,10 1070,10 c707,0 1070,-3 1070,-10 z" id="path4" style="fill:#800000;fill-opacity:1;stroke:#000000;stroke-opacity:1;stroke-width:7.50000012;stroke-miterlimit:4;stroke-dasharray:none"/>
    <path d="M-1045.0001010894775,-834.7369136810303 l0,-130 l24,0 c33,0 37,18 35,135 c-2,118 -4,125 -35,125 l-24,0 l0,-130 z" id="path6" style="fill:#800000;fill-opacity:1;stroke:#000000;stroke-opacity:1;stroke-width:7.50000012;stroke-miterlimit:4;stroke-dasharray:none"/>
  </g><path style="fill:#000000;fill-opacity:1;stroke-width:1.38449967" d="m86.72272913652554,126.53219107772819 c-2.281949,-0.3562 -4.608752,-1.3702 -5.170673,-2.25333 c-1.520216,-2.38923 -1.247099,-71.858833 0.29207600000000017,-74.29193 c1.138569,-1.799826 10.351245,-2.076749 69.089209,-2.076749 c37.2765,0 68.29428,0.5188910000000003 68.9284,1.153091 c0.6341200000000004,0.6342010000000003 1.1529500000000001,17.580095 1.1529500000000001,37.657546 c0,28.090852 -0.41452000000000017,36.919482 -1.79846,38.305152 c-1.4183700000000001,1.42011 -15.17138,1.8380100000000001 -65.07149,1.9772699999999999 c-34.80016,0.09710000000000009 -65.140063,-0.11486000000000005 -67.422012,-0.47105 zm4.000873,-41.353754 c1.092971,-2.848236 1.092971,-28.768786 0,-31.617022 C90.26139513652554,52.35692407772819 88.39232113652554,51.37143107772819 86.57010313652553,51.37143107772819 H83.25698013652554 V69.36992607772818 V87.36842107772819 h3.313123 c1.822218,0 3.6912920000000002,-0.9854919999999997 4.153499,-2.189984 z" id="path821" inkscape:connector-curvature="0" transform="translate(-167.1052703857422,166.44737243652344) scale(0.75) " class=""/><path style="fill:#000000;fill-opacity:1;stroke-width:1.38449967" d="m33.37751013652554,136.46368107772818 c-6.56259,-9.5384 -9.228973,-18.88457 -10.254099,-35.94251 c-1.747146,-29.072283 2.480514,-54.615295 10.735752,-64.864129 c2.960668,-3.675653 3.163302,-3.716034 10.837474,-2.159726 c7.09941,1.439748 7.897167,1.969821 8.653123,5.749602 c0.458001,2.290002 0.8327280000000004,25.556104 0.8327280000000004,51.70245 v47.538813 l-5.884123,1.52027 c-3.236268,0.8361500000000003 -6.926143,1.8213599999999999 -8.199722,2.18936 c-1.5898210000000006,0.4593800000000002 -3.6964200000000007,-1.33786 -6.721133,-5.73413 z" id="path823" inkscape:connector-curvature="0" transform="translate(-167.1052703857422,166.44737243652344) scale(0.75) " class=""/><path style="fill:#000000;fill-opacity:1;stroke-width:1.38449967" d="M257.7039311365255,87.36842107772819 V69.36992607772818 h32.53574 h32.53574 V87.36842107772819 V105.3669210777282 h-32.53574 h-32.53574 z" id="path825" inkscape:connector-curvature="0" transform="translate(-167.1052703857422,166.44737243652344) scale(0.75) " class=""/><path style="fill:#000000;fill-opacity:1;stroke-width:1.38449967" d="m385.0779011365255,105.47408107772819 l-8.99925,-0.79941 l-0.38749000000000017,-17.652375 l-0.38749000000000017,-17.65237 h32.4479 h32.4479 l0.95558,12.806621 c0.52557,7.043642 0.39079,14.987209 -0.2995200000000002,17.652374000000002 l-1.25509,4.84575 l-11.68565,0.90096 c-13.71889,1.05772 -30.22708,1.01859 -42.83689,-0.10155 z" id="path827" inkscape:connector-curvature="0" transform="translate(-167.1052703857422,166.44737243652344) scale(0.75) " class=""/><path style="fill:#000000;fill-opacity:1;stroke-width:1.38449967" d="m298.28848113652543,29.56751207772819 c12.80306,-0.22870300000000016 33.36288,-0.2282730000000001 45.68849,0.0009550000000000007 c12.3256,0.22922900000000013 1.85036,0.416349 -23.27831,0.4158240000000003 c-25.12866,-0.0005250000000000004 -35.21325,-0.18807600000000008 -22.41018,-0.416779 z" id="path831" inkscape:connector-curvature="0" transform="translate(-167.1052703857422,166.44737243652344) scale(0.75) " class=""/><path style="fill:#000000;fill-opacity:1;stroke-width:1.38449967" d="m316.19904113652547,145.8710510777282 c6.66291,-0.2538 17.56584,-0.2538 24.22874,0 c6.66291,0.2538 1.21144,0.46145 -12.11437,0.46145 c-13.32581,0 -18.77727,-0.20765 -12.11437,-0.46145 z" id="path833" inkscape:connector-curvature="0" transform="translate(-167.1052703857422,166.44737243652344) scale(0.75) " class=""/></g></g></g></svg>