<?xml version="1.0" standalone="no"?>
<!DOCTYPE svg PUBLIC "-//W3C//DTD SVG 20010904//EN"
 "http://www.w3.org/TR/2001/REC-SVG-20010904/DTD/svg10.dtd">
<svg version="1.0" xmlns="http://www.w3.org/2000/svg"
 width="460.000000pt" height="135.000000pt" viewBox="0 0 460.000000 135.000000"
 preserveAspectRatio="xMidYMid meet">
<metadata>
Created by potrace 1.16, written by Peter Selinger 2001-2019
</metadata>
<g transform="translate(0.000000,135.000000) scale(0.100000,-0.100000)"
fill="#000000" stroke="none">
<path d="M350 1320 c0 -15 -7 -20 -29 -20 -29 0 -71 -37 -71 -64 -1 -6 -24
-24 -52 -41 -62 -36 -125 -122 -151 -205 -26 -85 -40 -250 -33 -395 9 -196 40
-292 124 -386 24 -27 58 -54 77 -60 25 -9 36 -21 40 -41 8 -32 39 -58 72 -58
16 0 23 -6 23 -20 0 -11 5 -20 10 -20 6 0 10 23 10 50 0 28 -4 50 -10 50 -5 0
-10 -9 -10 -20 0 -15 -7 -20 -28 -20 -32 0 -52 16 -52 42 0 17 84 18 2078 18
1397 0 2092 4 2122 11 49 11 83 37 108 84 15 26 17 79 20 405 2 206 1 398 -3
427 -8 67 -39 112 -95 141 l-44 22 -2093 0 c-2009 0 -2093 1 -2093 18 0 26 20
42 52 42 21 0 28 -5 28 -20 0 -11 5 -20 10 -20 6 0 10 23 10 50 0 28 -4 50
-10 50 -5 0 -10 -9 -10 -20z m4055 -210 c-8 -12 -3970 -13 -4030 -1 -22 5 877
9 1998 10 1357 1 2036 -2 2032 -9z m-4050 -40 c7 0 9 -137 9 -392 l-2 -393
-62 -15 -63 -14 -24 29 c-41 50 -72 120 -83 186 -13 81 -13 313 0 404 11 74
48 166 81 201 20 21 23 21 77 8 31 -7 62 -13 67 -14z m1253 -102 c9 -9 12 -87
12 -289 0 -239 -2 -280 -16 -293 -14 -14 -75 -16 -519 -16 -444 0 -505 2 -519
16 -14 13 -16 53 -16 285 0 167 4 278 10 290 10 18 27 19 523 19 386 0 516 -3
525 -12z m767 -293 l0 -140 -245 0 -245 0 -3 143 -3 142 248 -2 248 -3 0 -140z
m893 11 c2 -86 -1 -133 -9 -142 -16 -19 -468 -21 -487 -2 -13 13 -18 232 -6
262 6 15 35 16 253 14 l246 -3 3 -129z m883 112 c3 -88 0 -248 -6 -257 -7 -12
-450 -16 -479 -5 -14 5 -16 27 -16 138 0 73 3 136 7 139 3 4 116 7 250 7 l243
0 1 -22z m-661 -558 c0 -7 -363 -10 -1070 -10 -707 0 -1070 3 -1070 10 0 7
363 10 1070 10 707 0 1070 -3 1070 -10z"/>
<path d="M580 810 l0 -130 24 0 c33 0 37 18 35 135 -2 118 -4 125 -35 125
l-24 0 0 -130z"/>
</g>
</svg>
