<?xml version="1.0" encoding="UTF-8" standalone="no"?>
<svg
   xmlns:dc="http://purl.org/dc/elements/1.1/"
   xmlns:cc="http://creativecommons.org/ns#"
   xmlns:rdf="http://www.w3.org/1999/02/22-rdf-syntax-ns#"
   xmlns:svg="http://www.w3.org/2000/svg"
   xmlns="http://www.w3.org/2000/svg"
   xmlns:sodipodi="http://sodipodi.sourceforge.net/DTD/sodipodi-0.dtd"
   xmlns:inkscape="http://www.inkscape.org/namespaces/inkscape"
   version="1.0"
   width="62.000000pt"
   height="156.000000pt"
   viewBox="0 0 62.000000 156.000000"
   preserveAspectRatio="xMidYMid meet"
   id="svg8"
   sodipodi:docname="moto1stop.svg"
   inkscape:version="0.92.5 (2060ec1f9f, 2020-04-08)">
  <defs
     id="defs12" />
  <sodipodi:namedview
     pagecolor="#ffffff"
     bordercolor="#666666"
     borderopacity="1"
     objecttolerance="10"
     gridtolerance="10"
     guidetolerance="10"
     inkscape:pageopacity="0"
     inkscape:pageshadow="2"
     inkscape:window-width="1440"
     inkscape:window-height="863"
     id="namedview10"
     showgrid="false"
     inkscape:zoom="1.1346154"
     inkscape:cx="41.333333"
     inkscape:cy="104"
     inkscape:window-x="1440"
     inkscape:window-y="0"
     inkscape:window-maximized="1"
     inkscape:current-layer="svg8" />
  <metadata
     id="metadata2">
Created by potrace 1.16, written by Peter Selinger 2001-2019
<rdf:RDF>
  <cc:Work
     rdf:about="">
    <dc:format>image/svg+xml</dc:format>
    <dc:type
       rdf:resource="http://purl.org/dc/dcmitype/StillImage" />
    <dc:title></dc:title>
  </cc:Work>
</rdf:RDF>
</metadata>
  <g
     transform="translate(0.000000,156.000000) scale(0.100000,-0.100000)"
     fill="#000000"
     stroke="none"
     id="g6"
     style="fill:#800000;fill-opacity:1;stroke:#000000;stroke-opacity:1;stroke-width:3.75000006;stroke-miterlimit:4;stroke-dasharray:none">
    <path
       d="M277 1527 c-3 -8 -8 -60 -12 -116 -7 -91 -11 -106 -33 -128 -21 -21 -24 -31 -19 -67 l6 -43 -72 -7 c-62 -6 -76 -11 -102 -36 -16 -17 -25 -30 -18 -30 6 0 18 11 27 25 9 14 22 25 28 25 7 0 -5 -17 -25 -38 -20 -21 -37 -43 -37 -50 0 -24 27 -11 75 38 32 32 58 50 73 50 19 0 23 -4 17 -17 -4 -10 -12 -46 -17 -81 -6 -34 -16 -62 -22 -61 -24 3 -37 -2 -31 -11 3 -5 16 -10 29 -10 20 0 24 -7 35 -68 7 -38 23 -93 37 -122 21 -46 23 -56 11 -74 -21 -32 -47 -149 -47 -208 0 -30 13 -97 30 -152 25 -81 30 -117 30 -198 0 -85 3 -101 20 -118 26 -26 60 -25 88 0 20 19 22 32 23 128 l2 107 11 -100 c9 -84 14 -100 30 -103 35 -7 38 11 21 154 -10 93 -14 169 -9 231 7 95 -12 212 -43 259 -12 18 -10 28 11 75 14 30 31 84 38 122 12 64 14 67 40 67 16 0 28 5 28 10 0 9 -4 11 -40 14 -8 1 -14 7 -13 13 3 14 -13 100 -22 126 -6 14 -2 17 21 17 21 0 42 -14 80 -51 32 -31 57 -49 64 -44 8 5 -2 21 -31 51 -47 48 -43 60 5 17 l31 -28 -30 32 c-27 29 -38 33 -102 39 -40 4 -73 8 -73 10 0 1 4 14 10 28 12 32 -5 83 -29 91 -15 5 -19 22 -25 111 -4 59 -10 112 -13 120 -7 18 -49 18 -56 1z"
       id="path4"
       style="fill:#800000;fill-opacity:1;stroke:#000000;stroke-opacity:1;stroke-width:3.75000006;stroke-miterlimit:4;stroke-dasharray:none" />
  </g>
</svg>
