<svg xmlns="http://www.w3.org/2000/svg" version="1.0" width="155.10526274512017" height="58.78947325492493" preserveAspectRatio="xMidYMid meet"><rect id="backgroundrect" width="100%" height="100%" x="0" y="0" fill="none" stroke="none" class="selected" style=""/>
<metadata>
Created by potrace 1.16, written by Peter Selinger 2001-2019
</metadata>

<g class="currentLayer" style=""><title>Layer 1</title><g transform="rotate(-90.21047973632812 77.85525512695312,29.44388389587402) translate(0,156) scale(0.10000000149011612,-0.10000000149011612) " fill="#000000" stroke="none" id="svg_1" class="">
<path d="M748.0526428222656,2017.3106384277344 c-3,-8 -8,-60 -12,-116 c-7,-91 -11,-106 -33,-128 c-21,-21 -24,-31 -19,-67 l6,-43 l-72,-7 c-62,-6 -76,-11 -102,-36 c-16,-17 -25,-30 -18,-30 c6,0 18,11 27,25 c9,14 22,25 28,25 c7,0 -5,-17 -25,-38 c-20,-21 -37,-43 -37,-50 c0,-24 27,-11 75,38 c32,32 58,50 73,50 c19,0 23,-4 17,-17 c-4,-10 -12,-46 -17,-81 c-6,-34 -16,-62 -22,-61 c-24,3 -37,-2 -31,-11 c3,-5 16,-10 29,-10 c20,0 24,-7 35,-68 c7,-38 23,-93 37,-122 c21,-46 23,-56 11,-74 c-21,-32 -47,-149 -47,-208 c0,-30 13,-97 30,-152 c25,-81 30,-117 30,-198 c0,-85 3,-101 20,-118 c26,-26 60,-25 88,0 c20,19 22,32 23,128 l2,107 l11,-100 c9,-84 14,-100 30,-103 c35,-7 38,11 21,154 c-10,93 -14,169 -9,231 c7,95 -12,212 -43,259 c-12,18 -10,28 11,75 c14,30 31,84 38,122 c12,64 14,67 40,67 c16,0 28,5 28,10 c0,9 -4,11 -40,14 c-8,1 -14,7 -13,13 c3,14 -13,100 -22,126 c-6,14 -2,17 21,17 c21,0 42,-14 80,-51 c32,-31 57,-49 64,-44 c8,5 -2,21 -31,51 c-47,48 -43,60 5,17 l31,-28 l-30,32 c-27,29 -38,33 -102,39 c-40,4 -73,8 -73,10 c0,1 4,14 10,28 c12,32 -5,83 -29,91 c-15,5 -19,22 -25,111 c-4,59 -10,112 -13,120 c-7,18 -49,18 -56,1 z" id="svg_2"/>
</g></g></svg>