<?xml version="1.0" encoding="UTF-8" standalone="no"?>
<svg
   xmlns:dc="http://purl.org/dc/elements/1.1/"
   xmlns:cc="http://creativecommons.org/ns#"
   xmlns:rdf="http://www.w3.org/1999/02/22-rdf-syntax-ns#"
   xmlns:svg="http://www.w3.org/2000/svg"
   xmlns="http://www.w3.org/2000/svg"
   xmlns:sodipodi="http://sodipodi.sourceforge.net/DTD/sodipodi-0.dtd"
   xmlns:inkscape="http://www.inkscape.org/namespaces/inkscape"
   version="1.0"
   width="117.63157898039043"
   height="286.421052549024"
   preserveAspectRatio="xMidYMid meet"
   style=""
   id="svg16"
   sodipodi:docname="pickup2stop.svg"
   inkscape:version="0.92.5 (2060ec1f9f, 2020-04-08)">
  <defs
     id="defs20" />
  <sodipodi:namedview
     pagecolor="#ffffff"
     bordercolor="#666666"
     borderopacity="1"
     objecttolerance="10"
     gridtolerance="10"
     guidetolerance="10"
     inkscape:pageopacity="0"
     inkscape:pageshadow="2"
     inkscape:window-width="1440"
     inkscape:window-height="792"
     id="namedview18"
     showgrid="false"
     inkscape:zoom="1.6479236"
     inkscape:cx="-27.180396"
     inkscape:cy="154.63861"
     inkscape:window-x="0"
     inkscape:window-y="27"
     inkscape:window-maximized="1"
     inkscape:current-layer="svg16" />
  <rect
     id="backgroundrect"
     width="100%"
     height="100%"
     x="0"
     y="0"
     fill="none"
     stroke="none"
     class=""
     style="" />
  <metadata
     id="metadata3">
Created by potrace 1.16, written by Peter Selinger 2001-2019
<rdf:RDF>
  <cc:Work
     rdf:about="">
    <dc:format>image/svg+xml</dc:format>
    <dc:type
       rdf:resource="http://purl.org/dc/dcmitype/StillImage" />
  </cc:Work>
</rdf:RDF>
</metadata>
  <g
     class="currentLayer"
     style="stroke:#800000;stroke-opacity:1;fill:#800000"
     id="g14">
    <title
       id="title5">Layer 1</title>
    <g
       transform="rotate(89.99241638183594 58.51588439941405,142.76947021484378) translate(0,123) scale(0.10000000149011612,-0.10000000149011612) "
       fill="#d50b0b"
       stroke="#db1a1a"
       id="svg_1"
       class=""
       stroke-opacity="1"
       fill-opacity="1"
       style="stroke:#800000;stroke-opacity:1;fill:#800000">
      <path
         d="M10,360.78948974609375 c-17,-19 -31,-20 -266,-20 c-154,0 -250,-4 -254,-10 c-3,-5 -38,-10 -76,-10 c-96,0 -142,-27 -183,-108 c-42,-83 -67,-393 -47,-588 c20,-200 51,-271 137,-322 c33,-19 48,-22 100,-17 c40,4 64,2 69,-4 c4,-7 88,-11 252,-11 c242,0 247,0 271,-22 l24,-23 l-7,38 l-7,37 l555,0 c484,0 556,-2 561,-15 c8,-22 491,-23 503,-1 c6,11 38,15 130,18 c120,3 122,4 154,33 c54,51 58,72 65,332 c8,308 -5,534 -33,571 c-44,59 -65,67 -191,70 c-88,3 -119,7 -125,18 c-12,22 -492,21 -501,-1 c-5,-13 -76,-15 -562,-15 l-556,0 l6,35 c8,40 6,42 -19,15 zm-619,-103 c-13,-26 -30,-79 -37,-118 c-14,-78 -26,-92 -93,-105 l-39,-7 l7,49 c16,119 63,191 142,219 c22,7 40,12 41,11 c1,-1 -8,-23 -21,-49 zm1054,-36 c0,-4 -9,-20 -21,-35 c-20,-25 -23,-26 -135,-26 c-99,0 -122,3 -181,26 c-38,15 -72,31 -77,35 c-6,5 85,9 202,9 c117,0 212,-4 212,-9 zm-333,-85 c1,-1 -5,-24 -14,-51 c-23,-71 -24,-485 -1,-563 l15,-53 l-31,-13 c-91,-37 -178,-68 -182,-63 c-3,3 -15,49 -26,103 c-40,182 -25,615 23,705 c8,16 18,14 111,-22 c57,-22 104,-41 105,-43 zm993,65 c0,-11 3,-26 6,-35 c5,-14 -10,-16 -135,-16 c-119,0 -141,-2 -141,-15 c0,-13 22,-15 138,-15 c135,0 139,-1 162,-25 l23,-25 l232,0 l232,0 l23,25 c20,22 32,25 114,27 c116,4 116,21 -1,28 l-87,5 l-1,30 l0,30 l97,0 c153,0 142,27 146,-383 c2,-185 0,-352 -3,-370 c-10,-52 -52,-72 -151,-72 c-79,0 -82,1 -86,24 c-3,14 -2,29 1,35 c4,6 45,11 91,13 c113,4 110,22 -4,26 c-80,3 -92,5 -112,27 l-23,25 l-236,0 l-236,0 l-23,-25 c-22,-23 -29,-25 -156,-27 c-96,-2 -135,-7 -138,-15 c-3,-10 28,-13 131,-13 c142,0 149,-3 143,-46 c-3,-18 -14,-19 -145,-19 l-143,0 l-24,28 l-24,28 l0,352 c0,308 2,355 16,375 c25,35 48,41 187,41 c119,1 127,0 127,-18 zm-362,-396 c0,-187 -3,-351 -8,-365 c-7,-24 -8,-24 -16,-5 c-12,26 -12,703 0,730 l8,20 l8,-20 c5,-11 8,-173 8,-360 zm-1422,-250 c15,-10 24,-32 33,-84 c7,-39 24,-92 37,-118 c13,-26 22,-49 19,-51 c-11,-11 -75,23 -108,56 c-44,45 -64,92 -73,168 l-7,57 l39,-7 c21,-4 48,-13 60,-21 zm1103,-131 c12,-15 21,-31 21,-35 c0,-5 -95,-9 -212,-9 c-116,0 -208,3 -204,7 c3,4 37,19 74,34 c59,24 82,27 184,28 c115,1 117,1 137,-25 z"
         id="svg_2"
         stroke="#db1a1a"
         fill="#d50b0b"
         fill-opacity="1"
         style="stroke:#800000;stroke-opacity:1;fill:#800000" />
      <path
         d="M835,25.78948974609375 c0,-13 59,-15 508,-13 c329,2 507,6 507,13 c0,7 -178,11 -507,13 c-449,2 -508,0 -508,-13 z"
         id="svg_3"
         stroke="#db1a1a"
         fill="#d50b0b"
         fill-opacity="1"
         style="stroke:#800000;stroke-opacity:1;fill:#800000" />
      <path
         d="M835,-84.21051025390625 c0,-13 63,-15 505,-15 c442,0 505,2 505,15 c0,13 -63,15 -505,15 c-442,0 -505,-2 -505,-15 z"
         id="svg_4"
         stroke="#db1a1a"
         fill="#d50b0b"
         fill-opacity="1"
         style="stroke:#800000;stroke-opacity:1;fill:#800000" />
      <path
         d="M835,-194.21051025390625 c0,-13 63,-15 505,-15 c442,0 505,2 505,15 c0,13 -63,15 -505,15 c-442,0 -505,-2 -505,-15 z"
         id="svg_5"
         stroke="#db1a1a"
         fill="#d50b0b"
         fill-opacity="1"
         style="stroke:#800000;stroke-opacity:1;fill:#800000" />
      <path
         d="M842,-296.21051025390625 c-4,-3 -7,-10 -7,-15 c0,-4 228,-7 508,-6 c332,2 506,6 505,13 c-3,11 -995,20 -1006,8 z"
         id="svg_6"
         stroke="#db1a1a"
         fill="#d50b0b"
         fill-opacity="1"
         style="stroke:#800000;stroke-opacity:1;fill:#800000" />
      <path
         d="M842,-406.21051025390625 c-4,-3 -7,-10 -7,-15 c0,-4 227,-8 505,-8 c453,0 541,4 492,23 c-20,8 -983,8 -990,0 z"
         id="svg_7"
         stroke="#db1a1a"
         fill="#d50b0b"
         fill-opacity="1"
         style="stroke:#800000;stroke-opacity:1;fill:#800000" />
    </g>
  </g>
  <path
     style="opacity:1;fill:#000000;fill-opacity:1;stroke:#000000;stroke-width:0.60682422;stroke-miterlimit:4;stroke-dasharray:none;stroke-opacity:1"
     d="m 8.7435993,24.229007 c 0,-1.14838 2.5416007,-5.701134 4.6007137,-8.241231 3.885475,-4.793076 9.632904,-7.4420851 18.672626,-8.606275 l 4.158374,-0.5355407 -0.393031,2.4578836 c -0.539093,3.3713031 -2.419567,7.4402731 -3.770576,8.1587741 -0.615462,0.327318 -4.077809,1.306761 -7.694104,2.176541 -3.616295,0.869779 -8.440807,2.400289 -10.721136,3.401132 -4.6184529,2.027052 -4.8528667,2.084471 -4.8528667,1.188716 z"
     id="path821"
     inkscape:connector-curvature="0" />
  <path
     style="opacity:1;fill:#000000;fill-opacity:1;stroke:#000000;stroke-width:0.60682422;stroke-miterlimit:4;stroke-dasharray:none;stroke-opacity:1"
     d="M 103.71159,22.883742 C 101.37532,21.884616 96.74309,20.39552 93.417747,19.57464 90.092405,18.753759 86.644599,17.706146 85.755955,17.246611 84.022853,16.350388 82.573777,13.369749 81.898386,9.3118819 l -0.416333,-2.5014023 5.057325,0.809838 c 8.700932,1.393295 13.951492,3.8301694 17.707682,8.2184324 1.85728,2.169813 4.55558,8.133891 3.92584,8.677319 -0.11745,0.101345 -2.12503,-0.633202 -4.46131,-1.632327 z"
     id="path823"
     inkscape:connector-curvature="0" />
  <path
     style="opacity:1;fill:#000000;fill-opacity:1;stroke:#000000;stroke-width:0.60682422;stroke-miterlimit:4;stroke-dasharray:none;stroke-opacity:1"
     d="M 21.941938,86.206193 C 17.300245,74.042162 17.2986,74.57926 21.98146,73.307105 32.495832,70.45075 36.641137,70.082676 58.199775,70.09117 c 21.73934,0.0086 30.036199,0.703523 37.350082,3.1285 3.088632,1.024062 3.298259,1.216796 3.172647,2.916984 -0.07398,1.00126 -1.651982,5.678453 -3.506686,10.393761 l -3.372183,8.573288 -4.382036,-1.264774 c -4.119026,-1.188865 -5.857061,-1.264774 -28.958411,-1.264774 -22.972171,0 -24.857243,0.0812 -28.879149,1.243964 l -4.302768,1.243963 z"
     id="path825"
     inkscape:connector-curvature="0" />
  <path
     style="opacity:1;fill:#000000;fill-opacity:1;stroke:#000000;stroke-width:0.60682422;stroke-miterlimit:4;stroke-dasharray:none;stroke-opacity:1"
     d="m 17.02477,123.37739 c -0.49046,-5.80213 -0.384867,-30.827318 0.14044,-33.283778 0.362229,-1.693869 0.524436,-1.478509 2.332423,3.096723 2.866078,7.252805 3.171802,9.233835 3.18809,20.658265 l 0.01483,10.40486 -2.145,1.88333 c -1.17975,1.03584 -2.3685,1.88334 -2.641666,1.88334 -0.273167,0 -0.673271,-2.08923 -0.889121,-4.64274 z"
     id="path827"
     inkscape:connector-curvature="0" />
  <path
     style="opacity:1;fill:#000000;fill-opacity:1;stroke:#000000;stroke-width:0.60682422;stroke-miterlimit:4;stroke-dasharray:none;stroke-opacity:1"
     d="m 96.975845,125.95693 -2.063202,-2.06321 0.0034,-10.5284 c 0.0036,-11.16466 0.230931,-12.58644 3.23598,-20.237587 1.775334,-4.520174 1.933497,-4.729186 2.295987,-3.034121 0.51515,2.408986 0.62878,30.668758 0.13968,34.740688 -0.21046,1.75221 -0.645005,3.18583 -0.965645,3.18583 -0.32064,0 -1.511423,-0.92844 -2.646184,-2.0632 z"
     id="path829"
     inkscape:connector-curvature="0" />
  <path
     style="opacity:1;fill:#000000;fill-opacity:1;stroke:#000000;stroke-width:0.60682422;stroke-miterlimit:4;stroke-dasharray:none;stroke-opacity:1"
     d="m 29.878704,157.83634 c -4.228976,-0.21188 -7.866692,-0.56405 -8.083813,-0.78261 -1.033588,-1.04041 6.066719,-1.29746 36.101472,-1.30697 31.64154,-0.01 38.394292,0.26565 37.143622,1.51632 -0.698807,0.69881 -53.401224,1.16246 -65.161281,0.57326 z"
     id="path831"
     inkscape:connector-curvature="0" />
  <path
     style="opacity:1;fill:#000000;fill-opacity:1;stroke:#000000;stroke-width:0.60682422;stroke-miterlimit:4;stroke-dasharray:none;stroke-opacity:1"
     d="m 27.351974,274.9697 c -4.348148,-0.36721 -4.902301,-0.56725 -6.485907,-2.34135 -0.952351,-1.06691 -2.01995,-2.9784 -2.372442,-4.24777 -0.900985,-3.24456 -0.841641,-14.91795 0.08053,-15.84012 0.600143,-0.60014 4.632383,-1.08686 4.775883,-0.57648 0.02346,0.0834 0.393854,3.91273 0.823096,8.50954 0.747113,8.00089 1.101469,9.59901 1.942041,8.75844 0.69105,-0.69105 1.386648,-5.51892 1.416935,-9.83438 0.03889,-5.54031 0.817608,-8.17038 3.053325,-10.31234 l 1.824313,-1.7478 v -23.93418 -23.93419 l -2.073466,-2.29508 c -2.398647,-2.65501 -2.560738,-3.61763 -3.034878,-18.02334 -0.167994,-5.10414 -0.612419,-9.82403 -0.991777,-10.53286 -1.480348,-2.76606 -2.001162,-0.004 -2.350483,12.46388 -0.297772,10.62831 -0.499274,12.58433 -1.387874,13.47234 -0.8593,0.85874 -1.306432,0.91723 -2.579003,0.33741 l -1.539477,-0.70143 v -13.89687 -13.89687 l 2.75173,-2.25483 2.751729,-2.25484 34.719668,0.22204 c 31.626934,0.20225 34.894427,0.31643 36.681573,1.28177 3.696385,1.99663 4.083679,3.56208 4.304223,17.39782 0.180196,11.30467 0.102031,12.48436 -0.874513,13.19843 -0.589821,0.43128 -1.834217,0.78416 -2.765328,0.78416 -2.227015,0 -2.277193,-0.29242 -2.46827,-14.3832 -0.112991,-8.33188 -0.374174,-11.86823 -0.916547,-12.40956 -1.833022,-1.82949 -2.268898,0.47292 -2.579003,13.6231 -0.316635,13.42692 -0.451842,14.1176 -3.281815,16.76467 l -1.572779,1.47113 v 23.38308 23.38307 l 2.187741,2.24046 2.187741,2.24045 0.537397,7.49432 c 0.593517,8.27695 0.919084,10.22503 1.708823,10.22503 0.83766,0 1.243128,-1.59282 1.596318,-6.27087 0.180573,-2.3917 0.473074,-5.78217 0.649994,-7.53438 l 0.321677,-3.18583 h 2.687048 2.687043 l -0.0605,8.34384 c -0.03325,4.58911 -0.244574,9.00189 -0.46956,9.80619 -0.577928,2.06596 -2.906379,3.58899 -6.522372,4.26626 -3.708115,0.69451 -58.551333,1.31637 -65.362842,0.74114 z m 21.85515,-57.75323 c 0.335777,-44.5347 0.286029,-48.31389 -0.646159,-49.08753 -0.555469,-0.461 -1.208147,-0.63936 -1.450397,-0.39636 -0.632525,0.63448 -0.519141,97.97811 0.116667,100.16054 l 0.530359,1.82047 0.542872,-2.12389 c 0.298581,-1.16813 0.706576,-23.83609 0.906658,-50.37323 z m 32.655842,43.54646 c 0.616406,-12.49368 0.703692,-90.30922 0.103166,-91.96728 -0.862188,-2.3805 -1.898134,-1.10768 -2.413498,2.96537 -0.54531,4.30969 -0.02221,90.18018 0.577309,94.76674 0.672494,5.14497 1.297311,3.06654 1.733023,-5.76483 z m -43.840426,5.28663 c 0.269819,-1.29865 0.414407,-23.72512 0.321308,-49.83661 -0.1735,-48.66117 -0.260621,-50.41769 -2.39479,-48.28352 -0.848779,0.84878 -1.126817,90.08997 -0.301622,96.81114 0.564341,4.59653 1.57619,5.15419 2.375104,1.30899 z m 22.108787,0.4782 c 0.622855,-3.01897 0.609853,-92.46967 -0.01398,-96.218 -0.538077,-3.23303 -1.674532,-3.565 -2.300888,-0.67211 -0.506496,2.3393 -0.638777,92.71877 -0.141021,96.3503 0.472499,3.44725 1.79603,3.73817 2.455894,0.53981 z m 10.951903,0.60683 c 0.623914,-2.23102 0.601905,-94.48086 -0.02325,-97.43426 -0.615631,-2.90844 -1.790223,-2.63718 -2.355325,0.54392 -0.528862,2.9771 -0.620333,91.03355 -0.09907,95.37328 0.424215,3.53176 1.696382,4.31071 2.477643,1.51706 z"
     id="path833"
     inkscape:connector-curvature="0" />
</svg>
