<?xml version="1.0" encoding="UTF-8" standalone="no"?>
<svg
   xmlns:dc="http://purl.org/dc/elements/1.1/"
   xmlns:cc="http://creativecommons.org/ns#"
   xmlns:rdf="http://www.w3.org/1999/02/22-rdf-syntax-ns#"
   xmlns:svg="http://www.w3.org/2000/svg"
   xmlns="http://www.w3.org/2000/svg"
   xmlns:sodipodi="http://sodipodi.sourceforge.net/DTD/sodipodi-0.dtd"
   xmlns:inkscape="http://www.inkscape.org/namespaces/inkscape"
   version="1.0"
   width="117.63157898039043"
   height="286.421052549024"
   preserveAspectRatio="xMidYMid meet"
   style=""
   id="svg16"
   sodipodi:docname="pickup1move.svg"
   inkscape:version="0.92.5 (2060ec1f9f, 2020-04-08)">
  <defs
     id="defs20" />
  <sodipodi:namedview
     pagecolor="#ffffff"
     bordercolor="#666666"
     borderopacity="1"
     objecttolerance="10"
     gridtolerance="10"
     guidetolerance="10"
     inkscape:pageopacity="0"
     inkscape:pageshadow="2"
     inkscape:window-width="1440"
     inkscape:window-height="863"
     id="namedview18"
     showgrid="false"
     inkscape:zoom="2.3305159"
     inkscape:cx="14.550152"
     inkscape:cy="139.91638"
     inkscape:window-x="1440"
     inkscape:window-y="0"
     inkscape:window-maximized="1"
     inkscape:current-layer="g14" />
  <rect
     id="backgroundrect"
     width="100%"
     height="100%"
     x="0"
     y="0"
     fill="none"
     stroke="none"
     class=""
     style="" />
  <metadata
     id="metadata3">
Created by potrace 1.16, written by Peter Selinger 2001-2019
<rdf:RDF>
  <cc:Work
     rdf:about="">
    <dc:format>image/svg+xml</dc:format>
    <dc:type
       rdf:resource="http://purl.org/dc/dcmitype/StillImage" />
    <dc:title />
  </cc:Work>
</rdf:RDF>
</metadata>
  <g
     class="currentLayer"
     style=""
     id="g14">
    <title
       id="title5">Layer 1</title>
    <path
       style="fill:#006300;fill-opacity:1;stroke:#db1a1a;stroke-width:0.1;stroke-opacity:1"
       inkscape:connector-curvature="0"
       id="svg_2"
       d="m 114.35671,85.246202 c -1.90022,-1.699749 -2.00041,-3.099736 -2.00352,-26.599736 -0.002,-15.4 -0.40331,-24.999947 -1.00336,-25.399867 -0.50004,-0.299934 -1.0005,-3.799868 -1.00101,-7.599868 -0.001,-9.6 -2.70187,-14.199643 -10.802417,-18.2985705 C 91.245847,3.1492591 60.245516,0.65336225 40.74578,2.6559433 20.746045,4.6585904 13.646456,7.7595302 8.5475938,16.360205 6.6480306,19.660457 6.3482291,21.160496 6.8489174,26.36043 c 0.4005294,3.999947 0.2008471,6.399974 -0.3990867,6.900053 -0.6999471,0.400093 -1.0988353,8.800146 -1.0966646,25.200146 0.0032,24.2 0.00327,24.7 -2.196413,27.100291 l -2.29968237,2.400304 3.79990737,-0.700503 3.6999073,-0.700489 0.00735,55.499998 c 0.00641,48.4 -0.1926409,55.60003 -1.4925747,56.1002 -2.1998941,0.80029 -2.2935012,49.1003 -0.093342,50.30001 1.1000794,0.59986 1.5005029,3.7998 1.8017206,12.99977 0.3015883,11.99996 0.4016148,12.19994 3.3020377,15.39956 5.100715,5.39932 7.200768,5.79905 33.200861,6.4956 30.800106,0.79593 53.399934,-0.50706 57.099562,-3.30755 5.89941,-4.40078 6.69914,-6.50089 6.99747,-19.10093 0.29883,-8.80004 0.69842,-11.90009 1.79834,-12.50024 2.19985,-1.20029 2.09349,-49.20028 -0.10663,-50.09999 -1.30006,-0.49982 -1.501,-7.5998 -1.50744,-56.1998 l -0.007,-55.599997 3.50007,0.599537 c 4.00011,0.799471 4.20008,0.599444 1.49975,-1.900198 z M 104.04852,23.347565 C 101.44835,22.047909 96.148123,20.348611 92.248031,19.649127 84.447845,18.250159 83.047686,17.050344 81.7468,10.350517 l -0.700517,-3.8999078 4.900093,0.6993514 c 11.900212,1.5984249 19.100834,6.2974724 21.901884,14.1971014 0.70029,2.199907 1.20053,3.999841 1.10054,4.099854 -0.1,0.100014 -2.30011,-0.799695 -4.90028,-2.099351 z m -3.58605,105.400475 c -0.4,5e-5 -2.000118,-0.89973 -3.500277,-2.09954 -2.500265,-1.99966 -2.600304,-2.29965 -2.601787,-13.49965 -0.0013,-9.9 0.298385,-12.20004 2.597604,-18.100345 1.499498,-3.800199 3.09905,-7.200411 3.49898,-7.700464 0.49992,-0.600066 0.90113,8.499881 0.90267,20.199879 0.002,11.7 -0.39719,21.20006 -0.89719,21.20012 z M 91.958063,95.449166 c -0.09999,0.100014 -2.400066,-0.499682 -5.100185,-1.399325 -7.100304,-2.29906 -48.500318,-2.39358 -56.300013,-0.09255 l -5.299802,1.500702 -1.30041,-3.099828 c -3.701204,-9.09951 -6.802356,-17.7991 -6.302409,-18.199166 0.29996,-0.30004 4.899802,-1.500649 10.299656,-2.601364 18.199471,-4.002408 61.499669,-2.50814 70.500304,2.290669 1.600106,0.799788 1.400239,1.799815 -2.19853,11.100291 -2.199246,5.700292 -4.098624,10.400543 -4.298611,10.500569 z m 6.513144,99.299144 c -1.1,1.4e-4 -2.599961,0.30034 -3.499921,0.60046 -1.399934,0.50018 -1.600132,-0.99979 -1.601787,-13.49979 -0.0016,-11.9 -0.201866,-14.09997 -1.501866,-14.0998 -1.3,1.7e-4 -1.499709,2.2002 -1.498173,13.8002 0.0018,13.5 -0.09816,13.90001 -2.497856,16.20033 l -2.499696,2.30033 0.0031,23.2 0.0031,23.2 2.500304,2.29967 c 2.200265,1.99971 2.500424,3.19967 2.701509,11.39964 0.401535,11.59995 2.101535,11.59972 2.799987,-0.10037 l 0.498848,-8.70007 2.999987,-0.10039 3,-4e-4 0.0013,9.7 c 0.002,15.3 2.701877,14.19964 -38.298068,14.60507 -18.499973,0.20245 -35.2,0.005 -37.000039,-0.2951 -5.200133,-0.99931 -7.200689,-5.19905 -7.201999,-15.09905 -0.001,-7.9 0.09891,-8.20001 2.398862,-8.60032 1.39996,-0.30018 2.899973,-0.20038 3.500013,0.0995 0.600053,0.39992 1.100596,4.49985 1.301204,9.09983 0.401496,11.29994 2.201456,10.99971 2.599947,-0.40035 0.298942,-8.00004 0.498783,-9.20006 2.698518,-11.20035 l 2.499696,-2.30033 -0.0031,-23.6 -0.0031,-23.6 -2.500304,-2.29967 c -2.300291,-2.1997 -2.500384,-2.89967 -2.702065,-15.59965 -0.201271,-9.59997 -0.701787,-13.4999 -1.501827,-13.7998 -1.000039,-0.29987 -1.299629,2.80017 -1.298266,13.10017 0.0019,14.2 -0.298027,14.90004 -4.598107,14.30061 -1.80004,-0.29976 -1.900185,-1.39975 -1.901919,-14.49975 l -0.0019,-14.3 2.799682,-2.40037 2.799683,-2.40037 35.2,-0.005 c 30.8,-0.004 35.500026,0.19531 37.500212,1.59504 3.500331,2.49954 4.100634,4.79946 4.102474,18.69946 0.10157,11.89998 0.002,12.7 -1.798318,12.70024 z M 58.866415,158.55355 c -18.7,0.002 -35.100039,-0.29536 -36.500106,-0.79517 -2.400092,-0.69968 -2.400105,-0.79968 -0.500211,-1.59994 2.599841,-1.20034 70.299841,-1.2093 73,-0.01 l 2.000106,0.79974 -1.999895,0.80026 c -1.099933,0.50015 -17.299894,0.80229 -35.999894,0.80477 z M 33.847594,16.356857 c -0.999802,1.500132 -3.199683,2.400423 -8.399563,3.301111 -3.899908,0.700517 -9.199683,2.401218 -11.799511,3.701562 -2.599828,1.300344 -4.8997085,2.200649 -5.0997482,1.900675 C 7.4486262,24.160351 10.847779,17.759901 14.147342,14.459464 18.64676,10.058868 23.346495,8.0582463 30.946376,7.1572404 L 36.646283,6.4564859 35.9468,10.356579 c -0.399722,2.100053 -1.299365,4.800172 -2.099206,6.000278 z M 20.762193,126.65859 c -1.499841,1.2002 -3.099722,2.10041 -3.499722,2.10046 -0.5,7e-5 -0.901257,-9.49988 -0.902806,-21.19988 -0.0015,-11.599997 0.297247,-20.800037 0.6973,-20.40009 0.40004,0.299947 1.90049,3.699749 3.400979,7.39955 2.400781,5.89968 2.701086,8.19964 2.802436,18.39963 0.101522,11.49999 0.101548,11.69999 -2.498187,13.70033 z" />
    <path
       style="fill:#009900;fill-opacity:1;stroke:#db1a1a;stroke-width:0.1;stroke-opacity:1"
       inkscape:connector-curvature="0"
       id="svg_3"
       d="m 80.867633,167.75064 c -1.3,1.7e-4 -1.499219,5.90019 -1.293276,50.80017 0.204354,32.89997 0.60671,50.69992 1.30671,50.69983 0.7,-10e-5 1.097644,-17.80015 1.29329,-50.70018 0.194057,-44.90002 -0.0067,-50.8 -1.306724,-50.79982 z" />
    <path
       style="fill:#009900;fill-opacity:1;stroke:#db1a1a;stroke-width:0.1;stroke-opacity:1"
       inkscape:connector-curvature="0"
       id="svg_4"
       d="m 69.867633,167.75209 c -1.3,1.7e-4 -1.499166,6.3002 -1.493316,50.5002 0.0058,44.2 0.206684,50.49997 1.506684,50.4998 1.3,-1.7e-4 1.499166,-6.3002 1.493316,-50.5002 -0.0059,-44.2 -0.206684,-50.49997 -1.506684,-50.4998 z" />
    <path
       style="fill:#009900;fill-opacity:1;stroke:#db1a1a;stroke-width:0.1;stroke-opacity:1"
       inkscape:connector-curvature="0"
       id="svg_5"
       d="m 58.867633,167.75355 c -1.3,1.7e-4 -1.499166,6.3002 -1.493316,50.5002 0.0059,44.2 0.206684,50.49997 1.506684,50.4998 1.3,-1.7e-4 1.499166,-6.3002 1.493316,-50.5002 -0.0058,-44.2 -0.206684,-50.49997 -1.506684,-50.4998 z" />
    <path
       style="fill:#009900;fill-opacity:1;stroke:#db1a1a;stroke-width:0.1;stroke-opacity:1"
       inkscape:connector-curvature="0"
       id="svg_6"
       d="m 48.667726,168.4549 c -0.300053,-0.39996 -1.000093,-0.69987 -1.500093,-0.6998 -0.4,5e-5 -0.696982,22.80009 -0.593276,50.80008 0.204394,33.19997 0.606697,50.59992 1.306684,50.49982 1.09996,-0.30014 1.98683,-99.50026 0.786685,-100.6001 z" />
    <path
       style="fill:#009900;fill-opacity:1;stroke:#db1a1a;stroke-width:0.1;stroke-opacity:1"
       inkscape:connector-curvature="0"
       id="svg_7"
       d="m 37.667726,168.45635 c -0.300053,-0.39996 -1.000093,-0.69986 -1.500093,-0.6998 -0.4,6e-5 -0.796995,22.70011 -0.793316,50.50011 0.006,45.3 0.407161,54.09995 2.306512,49.19969 0.799735,-2.0001 0.786989,-98.3001 -0.0131,-99 z" />
    <path
       style="fill:#006a00;fill-opacity:1;stroke-width:0.42908955"
       d=""
       id="path833"
       inkscape:connector-curvature="0" />
    <path
       style="fill:#002700;fill-opacity:0.48387095;stroke-width:0.42908955"
       d="m 8.4141728,24.825913 c 0,-0.904108 1.6629782,-4.365491 3.2292882,-6.721557 3.054252,-4.594251 7.274804,-7.70343 12.697805,-9.3541683 2.909079,-0.8855113 11.362541,-2.1005659 11.771181,-1.6919256 0.364857,0.3648565 -1.124518,6.4068149 -2.011651,8.1606859 -1.023062,2.022601 -2.942368,3.017258 -7.664862,3.972222 -4.657336,0.941788 -9.56244,2.486516 -13.770103,4.336518 -3.0587076,1.344835 -4.2516582,1.709097 -4.2516582,1.298225 z"
       id="path835"
       inkscape:connector-curvature="0" />
    <path
       style="fill:#002700;fill-opacity:0.48387098;stroke-width:0.42908955"
       d="M 105.8175,23.942049 C 102.84672,22.39658 96.993879,20.446266 92.276864,19.429975 84.73646,17.805377 83.422608,16.661613 82.050292,10.527305 81.670299,8.8287229 81.359396,7.3322731 81.359396,7.2018612 c 0,-0.8102298 9.086498,0.7826069 13.385499,2.3464391 6.081015,2.2120677 9.893355,5.4641617 12.128325,10.3459867 1.2119,2.647124 1.81728,5.102396 1.25064,5.072244 -0.2065,-0.01099 -1.24436,-0.472005 -2.30636,-1.024482 z"
       id="path837"
       inkscape:connector-curvature="0" />
    <path
       style="fill:#002700;fill-opacity:0.48387098;stroke-width:0.42908955"
       d="m 23.075338,89.452299 c -3.152155,-8.088741 -5.275631,-14.35972 -5.056154,-14.93167 0.106454,-0.277415 0.643868,-0.606528 1.194252,-0.731363 16.299362,-3.696928 18.971617,-3.9661 39.189669,-3.947517 17.580683,0.01616 24.908679,0.51866 33.468985,2.295064 5.646162,1.171671 7.079978,1.858851 7.079978,3.393195 0,2.458917 -6.592377,19.398098 -7.549337,19.398098 -0.337827,0 -1.982235,-0.379094 -3.654243,-0.842431 -5.02139,-1.391499 -12.83563,-1.890979 -29.559927,-1.88945 -16.557905,0.0015 -23.453356,0.447701 -28.770675,1.861675 -1.758073,0.467505 -3.42423,0.854553 -3.70257,0.860107 -0.27834,0.0056 -1.46633,-2.454014 -2.639978,-5.465708 z"
       id="path839"
       inkscape:connector-curvature="0" />
    <path
       style="fill:#002700;fill-opacity:0.48387098;stroke-width:0.42908955"
       d="m 17.220053,127.63833 c -0.159931,-0.40868 -0.399827,-7.01849 -0.533101,-14.68846 -0.238543,-13.728227 0.09803,-25.315356 0.71473,-24.605667 0.583193,0.671133 3.598012,8.062445 4.435687,10.874799 0.682204,2.290388 0.870063,4.600918 1.050647,12.922168 0.245126,11.29534 0.05527,12.54582 -2.159528,14.22399 -2.439361,1.84831 -3.178403,2.1165 -3.508435,1.27317 z"
       id="path841"
       inkscape:connector-curvature="0" />
    <path
       style="fill:#002700;fill-opacity:0.48387098;stroke-width:0.42908955"
       d="m 98.277973,127.18165 c -3.525165,-2.57913 -3.38621,-2.09399 -3.540214,-12.36019 -0.08079,-5.38543 0.06058,-10.47943 0.341134,-12.29224 0.439103,-2.837278 4.417112,-13.792598 5.179307,-14.263661 0.96975,-0.599336 1.08498,38.770231 0.11632,39.738901 -0.26147,0.26147 -1.023094,-0.0374 -2.096547,-0.82281 z"
       id="path843"
       inkscape:connector-curvature="0" />
    <path
       style="fill:#002700;fill-opacity:0.48387098;stroke-width:0.42908955"
       d="m 32.872277,158.01848 c -10.11698,-0.2528 -13.316074,-0.67746 -11.310568,-1.50142 2.214079,-0.90966 42.996141,-1.36274 62.830544,-0.69805 9.737059,0.32631 12.725371,0.74861 10.852249,1.53359 -2.021736,0.84726 -39.220459,1.2444 -62.372225,0.66588 z"
       id="path845"
       inkscape:connector-curvature="0" />
    <path
       style="fill:#000000;fill-opacity:0.96774191;stroke-width:0.42908955"
       d="m 32.657732,275.16016 c -7.442651,-0.18913 -9.247695,-0.35855 -10.371593,-0.97342 -3.332023,-1.82292 -4.522693,-5.63973 -4.536077,-14.54087 -0.01055,-7.01239 0.134372,-7.47679 2.469885,-7.91493 3.257121,-0.61104 3.441947,-0.21238 4.091728,8.82573 0.506844,7.04993 0.770729,8.58179 1.478333,8.58179 0.801021,0 1.041853,-1.27032 1.504948,-7.93815 0.663907,-9.55922 0.643929,-9.48024 3.038607,-12.01226 l 2.109625,-2.23062 v -23.73155 -23.73155 l -2.109625,-2.23061 c -2.549504,-2.69573 -2.484452,-2.34043 -3.031083,-16.55529 -0.407415,-10.59463 -0.739487,-12.8351 -1.902358,-12.8351 -0.868895,0 -1.036221,1.83185 -1.273813,13.94541 -0.195683,9.97686 -0.509702,12.43106 -1.686298,13.1792 -0.924663,0.58795 -2.426885,0.35066 -3.298599,-0.52106 -0.823268,-0.82327 -0.85715,-1.4124 -0.832874,-14.48177 l 0.02531,-13.62359 2.773089,-2.30836 2.773089,-2.30835 33.78149,0.24697 c 18.579821,0.13583 34.623007,0.42839 35.651531,0.65013 3.440453,0.74175 5.398165,2.85364 6.077015,6.55561 0.520288,2.83727 0.780458,22.9426 0.313312,24.21156 -0.239414,0.65034 -0.951008,0.99136 -2.789082,1.33661 -1.35721,0.25493 -2.564205,0.3771 -2.682204,0.27148 -0.118,-0.10561 -0.376925,-5.90588 -0.575392,-12.88948 -0.198467,-6.9836 -0.531595,-13.14655 -0.740287,-13.69545 -0.50182,-1.31989 -1.60564,-1.27036 -2.124877,0.0953 -0.228628,0.60134 -0.530835,6.44232 -0.671572,12.97996 -0.140733,6.53764 -0.434145,12.47644 -0.652023,13.19732 -0.217879,0.72089 -1.262523,2.161 -2.321435,3.20024 l -1.925295,1.88954 v 23.4235 23.4235 l 1.751724,1.69617 c 2.756441,2.66902 2.947412,3.3046 3.379518,11.24764 0.402031,7.39018 0.932197,10.08755 1.810136,9.20962 0.615868,-0.61587 1.120996,-3.89628 1.429511,-9.28349 0.136335,-2.38069 0.347941,-5.14916 0.470231,-6.15216 l 0.222346,-1.82363 H 97.084336 99.884 l -0.147453,9.11816 c -0.190228,11.76326 -0.460142,12.33999 -6.359935,13.5893 -3.849371,0.81513 -41.941517,1.38408 -60.718875,0.90691 z m 49.171612,-16.38915 c 0.487634,-13.04841 0.68792,-85.31726 0.244242,-88.12912 -0.816738,-5.17612 -2.042269,-4.05718 -2.483287,2.2673 -0.700356,10.04352 -0.08553,89.78433 0.731409,94.86144 0.622664,3.86973 1.142704,0.76543 1.507636,-8.99962 z m -33.361252,6.46369 c 0.94836,-13.36056 1.320482,-94.41195 0.443951,-96.69615 -0.317721,-0.82797 -1.531443,-1.22889 -1.902534,-0.62845 -0.616021,0.99674 -0.883156,44.22431 -0.435971,70.54846 0.442142,26.02731 0.640669,30.6799 1.309118,30.6799 0.169587,0 0.433033,-1.75669 0.585436,-3.90376 z m 11.969142,-12.26512 c 0.436556,-16.02836 0.07535,-79.11435 -0.474294,-82.83732 -0.69847,-4.73106 -2.010855,-3.08398 -2.410783,3.02558 -0.157331,2.4035 -0.223321,24.54794 -0.146644,49.20986 0.113858,36.62036 0.245411,45.02601 0.717663,45.85537 0.52205,0.91681 0.642828,0.95094 1.242697,0.35107 0.557694,-0.5577 0.729823,-3.0648 1.071361,-15.60456 z m 10.661829,11.57368 c 0.430578,-4.91751 0.430578,-87.58631 0,-92.50381 -0.30419,-3.4741 -0.902264,-5.16106 -1.586984,-4.47634 -0.915162,0.91516 -1.115032,7.35235 -1.308603,42.14645 -0.219084,39.3805 0.137167,57.57522 1.151243,58.79711 0.92698,1.11694 1.392031,0.0603 1.744344,-3.96341 z m -33.193159,2.98612 c 0.181496,-0.649 0.329993,-23.1596 0.329993,-50.02355 0,-47.85454 -0.01687,-48.85587 -0.832919,-49.45256 -0.458105,-0.33497 -0.961182,-0.60903 -1.117948,-0.60903 -0.63245,0 -0.838983,7.21748 -1.092802,38.18897 -0.246845,30.12048 0.196373,59.5316 0.935991,62.11071 0.381858,1.33157 1.37896,1.21123 1.777685,-0.21454 z"
       id="path847"
       inkscape:connector-curvature="0" />
    <path
       style="fill:#000000;fill-opacity:0.9677419;stroke-width:0.42908955"
       d="m 97.879344,126.65539 c -0.943997,-0.70881 -1.949012,-1.81371 -2.233367,-2.45533 -0.353938,-0.79863 -0.523112,-4.37392 -0.536361,-11.33531 -0.02131,-11.1971 0.0423,-11.56913 3.537807,-20.689231 1.154234,-3.011509 1.369627,-3.327684 1.632557,-2.396487 0.37045,1.311946 0.48,35.872698 0.118,37.223518 -0.32831,1.22508 -0.446373,1.20881 -2.518636,-0.34716 z"
       id="path868"
       inkscape:connector-curvature="0" />
    <path
       style="fill:#000000;fill-opacity:0.9677419;stroke-width:0.42908955"
       d="m 24.336266,91.87357 c -1.283852,-2.837798 -4.700894,-12.087833 -5.65299,-15.302814 -0.329804,-1.113661 -0.388995,-1.989393 -0.150272,-2.223268 0.658265,-0.644898 15.08763,-3.379796 20.346527,-3.856418 6.289086,-0.569991 30.479878,-0.575166 38.618059,-0.0083 9.587178,0.66784 19.217625,2.470327 20.603576,3.856276 0.658335,0.658336 0.713113,1.058159 0.360178,2.628955 -0.536014,2.385616 -4.442596,12.829148 -5.814799,15.544797 -1.195936,2.36681 -0.95868,2.335722 -7.210798,0.94482 -8.624258,-1.918631 -45.351013,-1.921229 -54.065283,-0.0038 -6.267927,1.379134 -5.630555,1.522322 -7.034198,-1.58026 z"
       id="path870"
       inkscape:connector-curvature="0" />
    <path
       style="fill:#000000;fill-opacity:0.9677419;stroke-width:0.42908955"
       d="m 17.274007,125.71528 c -0.390768,-3.2533 -0.328123,-35.622182 0.07015,-36.249144 0.479494,-0.754812 4.221125,8.908535 4.773148,12.327404 0.565358,3.50145 0.599489,21.02336 0.0438,22.48493 -0.370077,0.97338 -3.544168,3.68953 -4.311577,3.68953 -0.167717,0 -0.426704,-1.01372 -0.575524,-2.25272 z"
       id="path872"
       inkscape:connector-curvature="0" />
    <path
       style="fill:#000000;fill-opacity:0.9677419;stroke-width:0.42908955"
       d="m 8.8432624,24.083805 c 0,-1.309373 3.5080046,-6.8972 5.7927086,-9.227083 4.27958,-4.364205 10.061339,-6.6461746 19.201758,-7.5786329 2.439186,-0.2488332 2.502993,-0.00509 1.195519,4.5669079 -1.512688,5.289594 -1.797272,5.496053 -10.623184,7.706849 -3.356222,0.840698 -8.04264,2.310873 -10.414263,3.267057 -4.6319015,1.867478 -5.1525386,1.99529 -5.1525386,1.264902 z"
       id="path874"
       inkscape:connector-curvature="0" />
    <path
       style="fill:#000000;fill-opacity:0.9677419;stroke-width:0.42908955"
       d="M 104.5683,23.20067 C 102.17772,22.085809 98.814961,21.040185 88.732806,18.276744 85.344319,17.347986 83.63261,15.564709 82.61822,11.906503 82.161866,10.26075 81.788486,8.4877322 81.788486,7.9664637 c 0,-1.0721111 0.296556,-1.0657732 6.580325,0.1406332 9.168887,1.7603136 15.204989,5.5493711 18.003299,11.3012491 1.2473,2.563811 1.92187,5.171066 1.32266,5.112172 -0.2065,-0.0203 -1.61341,-0.614228 -3.12647,-1.319848 z"
       id="path876"
       inkscape:connector-curvature="0" />
    <path
       style="fill:#000000;fill-opacity:0.9677419;stroke-width:0.42908955"
       d="m 26.75606,157.60139 c -2.77392,-0.17361 -5.159007,-0.43116 -5.300192,-0.57235 -0.141186,-0.14119 0.487119,-0.41397 1.396231,-0.60619 2.223783,-0.47018 67.046209,-0.44885 70.30726,0.0231 2.330759,0.33735 2.472963,0.415 1.501813,0.82012 -1.276198,0.53238 -60.11399,0.82288 -67.905112,0.33528 z"
       id="path878"
       inkscape:connector-curvature="0" />
  </g>
</svg>
