<?xml version="1.0" standalone="no"?>
<!DOCTYPE svg PUBLIC "-//W3C//DTD SVG 20010904//EN"
 "http://www.w3.org/TR/2001/REC-SVG-20010904/DTD/svg10.dtd">
<svg version="1.0" xmlns="http://www.w3.org/2000/svg"
 width="282.000000pt" height="117.000000pt" viewBox="0 0 282.000000 117.000000"
 preserveAspectRatio="xMidYMid meet">
<metadata>
Created by potrace 1.16, written by Peter Selinger 2001-2019
</metadata>
<g transform="translate(0.000000,117.000000) scale(0.100000,-0.100000)"
fill="#000000" stroke="none">
<path d="M835 1140 c-17 -19 -31 -20 -266 -20 -154 0 -250 -4 -254 -10 -3 -5
-38 -10 -76 -10 -96 0 -142 -27 -183 -108 -42 -83 -67 -393 -47 -588 21 -205
52 -276 142 -322 37 -19 53 -22 100 -17 37 4 59 3 63 -4 5 -7 87 -11 253 -11
242 0 247 0 271 -22 l24 -23 -7 38 -7 37 555 0 c484 0 556 -2 561 -15 5 -13
42 -15 251 -15 209 0 246 2 251 15 5 12 28 15 119 15 100 0 116 2 145 22 65
45 73 65 83 215 10 161 1 612 -13 664 -11 40 -52 83 -93 98 -16 6 -75 11 -132
11 -82 0 -104 3 -109 15 -5 13 -42 15 -251 15 -209 0 -246 -2 -251 -15 -5 -13
-77 -15 -561 -15 l-555 0 6 35 c8 40 6 42 -19 15z m-619 -103 c-13 -26 -30
-79 -37 -118 -14 -78 -26 -92 -93 -105 l-39 -7 7 49 c16 119 63 191 142 219
22 7 40 12 41 11 1 -1 -8 -23 -21 -49z m1054 -36 c0 -4 -9 -20 -21 -35 -20
-25 -23 -26 -135 -26 -99 0 -122 3 -181 26 -38 15 -72 31 -77 35 -6 5 85 9
202 9 117 0 212 -4 212 -9z m-333 -85 c1 -1 -5 -24 -14 -51 -23 -71 -24 -485
-1 -563 15 -52 15 -54 -6 -62 -183 -71 -181 -71 -193 -54 -61 84 -64 681 -3
795 9 15 19 13 112 -23 57 -22 104 -41 105 -42z m995 49 l4 -35 -138 0 c-116
0 -138 -2 -138 -15 0 -13 22 -15 138 -15 135 0 139 -1 162 -25 l23 -25 232 0
232 0 25 25 c22 21 34 24 114 27 114 4 113 21 -3 28 -94 5 -90 3 -84 61 1 7
32 10 96 7 82 -3 97 -6 117 -26 l23 -23 0 -364 0 -364 -23 -23 c-20 -21 -32
-23 -120 -23 l-97 0 1 25 c1 14 2 28 3 32 0 4 40 9 89 10 115 4 114 22 -2 26
-80 3 -92 5 -112 27 l-23 25 -236 0 -236 0 -23 -25 c-22 -23 -29 -25 -156 -27
-94 -2 -135 -7 -137 -15 -3 -9 30 -13 134 -15 l138 -3 0 -30 0 -30 -143 0
-144 0 -24 28 -24 28 0 352 c0 308 2 355 16 375 25 35 48 41 185 41 l127 1 4
-35z m-364 -380 c0 -187 -3 -351 -8 -365 -7 -24 -8 -24 -16 -5 -12 26 -12 703
0 730 l8 20 8 -20 c5 -11 8 -173 8 -360z m-1422 -250 c15 -10 24 -32 33 -84 7
-39 24 -92 37 -118 13 -26 22 -49 19 -51 -11 -11 -75 23 -108 56 -44 45 -64
92 -73 168 l-7 57 39 -7 c21 -4 48 -13 60 -21z m1103 -131 c12 -15 21 -31 21
-35 0 -5 -95 -9 -212 -9 -116 0 -208 3 -204 7 3 4 37 19 74 34 59 24 82 27
184 28 115 1 117 1 137 -25z"/>
<path d="M1660 805 c0 -13 59 -15 508 -13 329 2 507 6 507 13 0 7 -178 11
-507 13 -449 2 -508 0 -508 -13z"/>
<path d="M1660 695 c0 -13 59 -15 508 -13 329 2 507 6 507 13 0 7 -178 11
-507 13 -449 2 -508 0 -508 -13z"/>
<path d="M1660 585 c0 -13 59 -15 508 -13 329 2 507 6 507 13 0 7 -178 11
-507 13 -449 2 -508 0 -508 -13z"/>
<path d="M1667 483 c-4 -3 -7 -10 -7 -15 0 -4 228 -7 508 -6 332 2 506 6 505
13 -3 11 -995 20 -1006 8z"/>
<path d="M1666 373 c-3 -4 -6 -10 -6 -15 0 -4 228 -8 506 -8 400 0 505 3 501
13 -3 9 -113 12 -499 14 -273 1 -499 -1 -502 -4z"/>
</g>
</svg>
