<?xml version="1.0" encoding="UTF-8" standalone="no"?>
<svg
   xmlns:dc="http://purl.org/dc/elements/1.1/"
   xmlns:cc="http://creativecommons.org/ns#"
   xmlns:rdf="http://www.w3.org/1999/02/22-rdf-syntax-ns#"
   xmlns:svg="http://www.w3.org/2000/svg"
   xmlns="http://www.w3.org/2000/svg"
   xmlns:sodipodi="http://sodipodi.sourceforge.net/DTD/sodipodi-0.dtd"
   xmlns:inkscape="http://www.inkscape.org/namespaces/inkscape"
   version="1.0"
   width="104pt"
   height="234pt"
   viewBox="0 0 104 234"
   preserveAspectRatio="xMidYMid meet"
   id="svg20"
   sodipodi:docname="sedan3move.svg"
   inkscape:version="0.92.5 (2060ec1f9f, 2020-04-08)">
  <defs
     id="defs24" />
  <sodipodi:namedview
     pagecolor="#ffffff"
     bordercolor="#666666"
     borderopacity="1"
     objecttolerance="10"
     gridtolerance="10"
     guidetolerance="10"
     inkscape:pageopacity="0"
     inkscape:pageshadow="2"
     inkscape:window-width="1440"
     inkscape:window-height="792"
     id="namedview22"
     showgrid="false"
     inkscape:zoom="2.0080019"
     inkscape:cx="148.67701"
     inkscape:cy="137.16481"
     inkscape:window-x="1920"
     inkscape:window-y="27"
     inkscape:window-maximized="1"
     inkscape:current-layer="svg20" />
  <metadata
     id="metadata2">
Created by potrace 1.16, written by Peter Selinger 2001-2019
<rdf:RDF>
  <cc:Work
     rdf:about="">
    <dc:format>image/svg+xml</dc:format>
    <dc:type
       rdf:resource="http://purl.org/dc/dcmitype/StillImage" />
    <dc:title></dc:title>
  </cc:Work>
</rdf:RDF>
</metadata>
  <g
     id="g49"
     transform="rotate(89.720015,117.4078,116.98759)">
    <g
       style="fill:#006300;fill-opacity:1;stroke:#000000;stroke-width:7.5;stroke-miterlimit:4;stroke-dasharray:none;stroke-opacity:1"
       id="g18"
       transform="matrix(0.1,0,0,-0.1,0,234)">
      <path
         inkscape:connector-curvature="0"
         style="fill:#006300;fill-opacity:1;stroke:#000000;stroke-width:7.5;stroke-miterlimit:4;stroke-dasharray:none;stroke-opacity:1"
         id="path4"
         d="M 792,1005 772,980 H 509 C 354,980 229,976 207,969 114,943 41,805 18,610 -10,369 70,126 196,74 222,63 292,60 501,60 h 271 l 20,-25 c 25,-32 37,-32 30,0 l -4,25 h 688 688 l 46,48 c 35,36 50,63 63,108 54,191 40,541 -25,673 -13,25 -38,56 -57,68 l -34,23 H 1502 818 l 4,25 c 3,14 2,25 -3,25 -4,0 -16,-11 -27,-25 z M 280,934 C 280,903 194,815 116,764 l -29,-18 7,39 c 15,79 57,134 111,148 30,7 75,8 75,1 z m 1693,-62 c 54,-57 88,-194 88,-362 -1,-153 -36,-287 -93,-347 l -21,-23 H 1297 648 l -26,29 c -57,61 -91,192 -92,346 0,124 16,213 53,296 42,96 -17,89 717,89 h 646 z" />
      <path
         inkscape:connector-curvature="0"
         style="fill:#006300;fill-opacity:1;stroke:#000000;stroke-width:7.5;stroke-miterlimit:4;stroke-dasharray:none;stroke-opacity:1"
         id="path6"
         d="m 855,858 c 84,-29 102,-31 268,-35 l 177,-5 v 36 36 l -267,-1 -268,-1 z" />
      <path
         inkscape:connector-curvature="0"
         style="fill:#006300;fill-opacity:1;stroke:#000000;stroke-width:7.5;stroke-miterlimit:4;stroke-dasharray:none;stroke-opacity:1"
         id="path8"
         d="m 1330,855 v -35 h 139 c 126,0 148,3 237,30 54,17 100,33 103,35 2,3 -104,5 -237,5 h -242 z" />
      <path
         inkscape:connector-curvature="0"
         style="fill:#006300;fill-opacity:1;stroke:#000000;stroke-width:7.5;stroke-miterlimit:4;stroke-dasharray:none;stroke-opacity:1"
         id="path10"
         d="m 650,838 c -60,-97 -88,-329 -57,-473 18,-84 60,-183 81,-191 8,-3 75,9 149,26 l 133,32 -32,32 c -18,18 -37,50 -43,71 -18,64 -24,214 -12,299 13,92 34,142 68,160 23,12 15,15 -109,44 -73,18 -139,32 -146,32 -7,0 -21,-15 -32,-32 z" />
      <path
         inkscape:connector-curvature="0"
         style="fill:#006300;fill-opacity:1;stroke:#000000;stroke-width:7.5;stroke-miterlimit:4;stroke-dasharray:none;stroke-opacity:1"
         id="path12"
         d="m 1768,838 -118,-30 25,-20 c 41,-32 59,-113 59,-268 0,-154 -12,-211 -55,-256 l -30,-31 103,-26 c 158,-41 161,-41 181,-19 10,11 30,53 44,94 21,59 26,98 30,203 5,146 -9,239 -51,331 -30,64 -25,64 -188,22 z" />
      <path
         inkscape:connector-curvature="0"
         style="fill:#006300;fill-opacity:1;stroke:#000000;stroke-width:7.5;stroke-miterlimit:4;stroke-dasharray:none;stroke-opacity:1"
         id="path14"
         d="m 878,191 c -48,-15 -90,-30 -94,-34 -4,-4 110,-7 254,-7 h 262 v 35 35 l -167,-1 C 981,218 957,215 878,191 Z" />
      <path
         inkscape:connector-curvature="0"
         style="fill:#006300;fill-opacity:1;stroke:#000000;stroke-width:7.5;stroke-miterlimit:4;stroke-dasharray:none;stroke-opacity:1"
         id="path16"
         d="m 1330,185 v -35 h 240 c 132,0 240,2 240,4 0,3 -45,18 -99,35 -91,28 -111,31 -240,31 h -141 z" />
    </g>
    <g
       id="g30">
      <path
         style="opacity:1;fill:#000000;fill-opacity:1;stroke:#000000;stroke-width:0.37350559;stroke-miterlimit:4;stroke-dasharray:none;stroke-opacity:1"
         d="m 66.652372,215.18895 c -1.945112,-2.31163 -4.84302,-9.48498 -6.406954,-15.85948 -1.389593,-5.66389 -1.828934,-10.70092 -1.599668,-18.34008 0.396911,-13.22516 3.180417,-25.32853 7.149591,-31.08818 1.69413,-2.45835 1.977721,-2.57226 4.95397,-1.98985 3.199968,0.62619 18.679675,4.31526 21.3481,5.08761 l 1.99152,0.57643 -1.729072,1.52199 c -2.803193,2.46747 -4.40619,6.41316 -5.672115,13.9616 -0.533243,3.17961 -0.682455,6.03516 -0.672195,12.86416 0.02363,15.7197 1.237447,20.67571 6.409072,26.16819 l 2.318745,2.46261 -7.36107,1.76302 c -7.253677,1.7373 -14.671769,3.28121 -18.052769,3.75725 -1.600651,0.22538 -1.797333,0.16034 -2.677155,-0.88527 z"
         id="path834"
         inkscape:connector-curvature="0" />
      <path
         style="opacity:1;fill:#000000;fill-opacity:1;stroke:#000000;stroke-width:0.37350559;stroke-miterlimit:4;stroke-dasharray:none;stroke-opacity:1"
         d="m 111.0222,151.26277 c -15.044994,-0.44968 -18.364021,-0.94851 -26.892406,-4.04173 l -4.10856,-1.49017 13.819702,-0.0196 c 7.600844,-0.0108 18.735974,-0.13038 24.744754,-0.26581 l 10.92504,-0.24624 v 3.23498 3.23497 l -4.3887,-0.0581 c -2.41377,-0.0319 -8.7587,-0.1887 -14.09983,-0.34834 z"
         id="path836"
         inkscape:connector-curvature="0" />
      <path
         style="opacity:1;fill:#000000;fill-opacity:1;stroke:#000000;stroke-width:0.37350559;stroke-miterlimit:4;stroke-dasharray:none;stroke-opacity:1"
         d="m 133.61929,148.4944 v -3.1748 l 16.52762,0.0506 c 9.09019,0.0278 19.21687,0.15388 22.50371,0.28013 l 5.97609,0.22955 -5.44336,1.76407 c -10.80614,3.50204 -14.50728,3.9888 -30.50655,4.01208 l -9.05751,0.0132 z"
         id="path838"
         inkscape:connector-curvature="0" />
      <path
         style="opacity:1;fill:#000000;fill-opacity:1;stroke:#000000;stroke-width:0.37350559;stroke-miterlimit:4;stroke-dasharray:none;stroke-opacity:1"
         d="m 188.1511,216.01425 c -1.58344,-0.28774 -21.84024,-5.38358 -21.988,-5.53134 -0.0765,-0.0765 0.6999,-1.08042 1.72534,-2.23093 4.00146,-4.48955 5.13991,-8.16355 5.76882,-18.6172 0.31938,-5.30867 0.31613,-8.84793 -0.0132,-14.37996 -0.70104,-11.77614 -2.11221,-16.76854 -5.70973,-20.19985 l -1.80169,-1.71845 10.16885,-2.53231 c 16.09319,-4.00764 15.97898,-4.01072 18.23818,0.49148 4.65034,9.26735 6.32925,20.20787 5.5627,36.24908 -0.20238,4.23508 -0.61716,9.12916 -0.92173,10.87573 -1.0307,5.91045 -5.09302,15.94517 -6.99408,17.27672 -0.81273,0.56927 -2.09366,0.6699 -4.03546,0.31703 z"
         id="path840"
         inkscape:connector-curvature="0" />
      <path
         style="opacity:1;fill:#000000;fill-opacity:1;stroke:#000000;stroke-width:0.37350559;stroke-miterlimit:4;stroke-dasharray:none;stroke-opacity:1"
         d="m 133.61929,215.5038 v -3.02289 l 13.72633,0.16791 c 15.39981,0.18837 14.66983,0.0877 25.62291,3.53533 3.90055,1.22777 5.34177,1.82675 4.85558,2.01803 -0.38028,0.14961 -10.48194,0.28383 -22.44812,0.29827 l -21.7567,0.0263 z"
         id="path842"
         inkscape:connector-curvature="0" />
      <path
         style="opacity:1;fill:#000000;fill-opacity:1;stroke:#000000;stroke-width:0.37350559;stroke-miterlimit:4;stroke-dasharray:none;stroke-opacity:1"
         d="m 82.822521,218.17929 -2.801287,-0.21285 4.681882,-1.57533 c 10.01904,-3.37113 13.85904,-3.82577 32.388544,-3.83459 l 12.41907,-0.006 v 2.98805 2.98804 l -21.94346,-0.0673 c -12.068901,-0.037 -23.204039,-0.16306 -24.744749,-0.28012 z"
         id="path844"
         inkscape:connector-curvature="0" />
      <path
         style="opacity:1;fill:#000000;fill-opacity:1;stroke:#000000;stroke-width:0.37350559;stroke-miterlimit:4;stroke-dasharray:none;stroke-opacity:1"
         d="m 9.8067441,156.46051 c 0.5283229,-3.20085 2.0896579,-7.38054 3.6043189,-9.64877 2.823006,-4.22748 6.487826,-6.10537 11.510015,-5.89785 l 2.671697,0.1104 -1.452247,2.24103 c -2.439271,3.76416 -11.722682,12.28538 -15.535712,14.26018 l -1.0648889,0.55152 z"
         id="path846"
         inkscape:connector-curvature="0" />
      <path
         style="opacity:1;fill:#006300;fill-opacity:1;stroke:#000000;stroke-width:0.37350559;stroke-miterlimit:4;stroke-dasharray:none;stroke-opacity:1"
         d="m 62.901881,217.00281 c -4.514278,-4.98844 -7.578095,-13.59535 -8.831041,-24.80825 -0.492804,-4.41023 -0.485777,-16.06685 0.01245,-20.65091 0.824539,-7.58638 4.228471,-19.03795 6.812186,-22.91767 1.486597,-2.23228 4.348249,-3.12748 11.375515,-3.55855 2.614144,-0.16036 3.828433,-0.10823 3.828433,0.16436 0,0.38513 12.975487,4.8343 16.46064,5.6442 2.695717,0.62645 9.524126,1.11237 18.835646,1.34038 4.72484,0.1157 10.98573,0.31235 13.91307,0.43701 l 5.32246,0.22665 v -4.15372 -4.15372 h 0.93377 0.93376 v 3.95565 3.95565 l 14.28659,-0.1634 c 16.3141,-0.18659 15.839,-0.11569 28.35681,-4.23135 6.35332,-2.08887 7.65995,-2.92519 5.07195,-3.24636 -0.66765,-0.0829 2.25561,-0.17754 6.49611,-0.21041 l 7.71001,-0.0598 2.09374,2.26148 c 6.29912,6.80381 9.91284,23.76559 8.80215,41.31488 -0.86656,13.69191 -3.8142,23.21138 -9.08101,29.32723 l -1.54766,1.79716 -6.77499,1.8e-4 c -6.22317,1.8e-4 -6.77075,-0.053 -6.72309,-0.65345 0.10551,-1.32949 -15.95884,-6.19286 -22.50698,-6.81382 -2.17802,-0.20655 -8.96035,-0.37567 -15.07184,-0.37584 l -11.11179,-3.2e-4 v 3.92181 3.92181 h -0.93376 -0.93377 v -3.92181 -3.92181 l -10.36478,0.011 c -12.81986,0.0137 -22.502874,0.48929 -26.425524,1.29797 -4.876267,1.00527 -15.667072,4.74765 -15.802537,5.4805 -0.08114,0.43895 0.198517,0.67394 0.933495,0.78443 0.577132,0.0868 -2.340128,0.18292 -6.482812,0.2137 l -7.53215,0.056 z m 12.670675,-1.04343 c 8.771618,-1.77814 20.691398,-4.6943 20.693858,-5.06273 7.5e-4,-0.19067 -1.257878,-1.64165 -2.798115,-3.22439 -5.357805,-5.50565 -6.303998,-9.32528 -6.332258,-25.56235 -0.01928,-11.06684 0.28194,-13.90693 2.076818,-19.58263 1.25874,-3.98034 2.229,-5.53712 4.534702,-7.27593 2.64249,-1.99279 1.915598,-2.47775 -7.00323,-4.67233 -7.523707,-1.85129 -17.801909,-4.1389 -18.596057,-4.1389 -0.951822,0 -3.064017,2.42729 -4.487324,5.15675 -5.474459,10.49828 -7.760566,32.05826 -4.879031,46.01352 1.299517,6.29355 4.973011,15.76993 7.087138,18.28243 1.246872,1.48182 2.673662,1.49161 9.703499,0.0665 z m 117.541734,0.18017 c 2.33365,-2.16276 6.19815,-12.06085 7.22115,-18.49542 0.78833,-4.95862 1.12871,-22.15562 0.54033,-27.29983 -1.10324,-9.64573 -4.6398,-20.13661 -7.63895,-22.66023 -1.07653,-0.90584 -1.32109,-0.95198 -3.95697,-0.74647 -2.59377,0.20221 -24.39606,5.46408 -24.95465,6.02267 -0.13333,0.13333 0.34072,0.68655 1.05346,1.22937 3.61755,2.75514 5.04873,5.21477 6.18956,10.6374 1.70789,8.11803 1.66582,28.0752 -0.0734,34.78684 -0.8703,3.35861 -2.13835,5.55665 -4.88581,8.46911 -1.42004,1.50532 -2.33611,2.76302 -2.14173,2.94044 0.18682,0.17052 5.46604,1.58491 11.73159,3.14309 12.85748,3.19752 15.28819,3.48105 16.91537,1.97303 z"
         id="path860"
         inkscape:connector-curvature="0" />
    </g>
  </g>
</svg>
