<?xml version="1.0" encoding="UTF-8" standalone="no"?>
<svg
   xmlns:dc="http://purl.org/dc/elements/1.1/"
   xmlns:cc="http://creativecommons.org/ns#"
   xmlns:rdf="http://www.w3.org/1999/02/22-rdf-syntax-ns#"
   xmlns:svg="http://www.w3.org/2000/svg"
   xmlns="http://www.w3.org/2000/svg"
   xmlns:sodipodi="http://sodipodi.sourceforge.net/DTD/sodipodi-0.dtd"
   xmlns:inkscape="http://www.inkscape.org/namespaces/inkscape"
   version="1.0"
   width="99pt"
   height="186pt"
   viewBox="0 0 99 186"
   preserveAspectRatio="xMidYMid meet"
   id="svg8"
   sodipodi:docname="sedan1move.svg"
   inkscape:version="0.92.5 (2060ec1f9f, 2020-04-08)">
  <defs
     id="defs12" />
  <sodipodi:namedview
     pagecolor="#ffffff"
     bordercolor="#666666"
     borderopacity="1"
     objecttolerance="10"
     gridtolerance="10"
     guidetolerance="10"
     inkscape:pageopacity="0"
     inkscape:pageshadow="2"
     inkscape:window-width="1440"
     inkscape:window-height="792"
     id="namedview10"
     showgrid="false"
     inkscape:zoom="1.7862903"
     inkscape:cx="57.778781"
     inkscape:cy="104.62754"
     inkscape:window-x="0"
     inkscape:window-y="27"
     inkscape:window-maximized="1"
     inkscape:current-layer="svg8" />
  <metadata
     id="metadata2">
Created by potrace 1.16, written by Peter Selinger 2001-2019
<rdf:RDF>
  <cc:Work
     rdf:about="">
    <dc:format>image/svg+xml</dc:format>
    <dc:type
       rdf:resource="http://purl.org/dc/dcmitype/StillImage" />
    <dc:title></dc:title>
  </cc:Work>
</rdf:RDF>
</metadata>
  <g
     id="g831"
     transform="rotate(89.8958,50.209839,49.248904)">
    <g
       style="fill:#006300;fill-opacity:1;stroke:#000000;stroke-width:7.5;stroke-miterlimit:4;stroke-dasharray:none;stroke-opacity:1"
       id="g6"
       transform="matrix(0.1,0,0,-0.1,0,99)">
      <path
         style="fill:#006300;fill-opacity:1;stroke:#000000;stroke-width:7.5;stroke-miterlimit:4;stroke-dasharray:none;stroke-opacity:1"
         id="path4"
         d="m 668,950 -22,-30 -217,1 C 197,922 180,919 133,868 104,837 55,729 35,655 17,583 14,418 31,340 57,215 134,97 207,69 220,64 324,60 438,60 h 206 l 29,-27 30,-28 -7,28 -6,27 h 505 c 570,0 545,-3 591,76 38,65 54,139 61,290 10,221 -24,403 -88,466 l -27,28 h -499 c -274,0 -507,3 -519,6 -16,4 -20,11 -16,30 6,32 -3,30 -30,-6 z M 260,889 C 260,849 104,634 87,650 c -10,10 21,137 39,166 36,54 134,107 134,73 z m 960,-84 v -35 h -99 c -86,0 -446,51 -460,66 -2,2 122,4 277,4 h 282 z m 459,31 c -2,-2 -37,-18 -78,-35 -73,-31 -77,-31 -210,-29 l -136,3 -3,33 -3,32 h 217 c 120,0 215,-2 213,-4 z M 765,793 c 82,-14 151,-27 153,-29 2,-1 -8,-13 -22,-27 -38,-38 -51,-97 -51,-247 0,-149 16,-213 60,-248 23,-19 23,-19 -148,-50 l -172,-32 -21,24 c -12,14 -33,55 -45,93 -21,60 -24,86 -24,218 0,130 3,159 23,215 28,82 47,110 75,110 12,0 89,-12 172,-27 z m 974,-5 c 47,-151 42,-513 -9,-609 -10,-18 -13,-18 -48,-3 -20,9 -53,22 -74,31 l -36,14 21,47 c 20,43 22,64 22,227 0,166 -2,183 -22,224 -12,25 -21,46 -20,47 8,8 125,52 139,53 10,1 20,-11 27,-31 z M 234,152 c 16,-34 26,-65 22,-69 -13,-13 -98,40 -122,77 -20,30 -54,143 -53,175 0,23 126,-127 153,-183 z m 986,28 v -30 l -282,1 -283,1 150,28 c 112,21 183,28 283,29 l 132,1 z m 395,0 60,-28 -212,-1 -213,-1 v 30 30 l 153,-1 c 146,0 155,-2 212,-29 z"
         inkscape:connector-curvature="0" />
    </g>
    <path
       transform="scale(0.75)"
       inkscape:connector-curvature="0"
       id="path822"
       d="m 12.378654,41.341539 c 0.521457,-3.930935 2.830141,-12.620757 4.205471,-15.82927 1.488409,-3.472319 6.430484,-8.170176 11.270441,-10.713502 3.976957,-2.089832 6.126472,-2.506782 6.126472,-1.188377 0,1.895518 -6.331427,12.353053 -12.229916,20.199994 -3.755621,4.996217 -8.49808,10.356659 -9.162683,10.356659 -0.378546,0 -0.452489,-0.99591 -0.209785,-2.825504 z"
       style="opacity:1;fill:#000000;fill-opacity:1;stroke:#000000;stroke-width:0.5598194;stroke-miterlimit:4;stroke-dasharray:none;stroke-opacity:1" />
    <path
       transform="scale(0.75)"
       inkscape:connector-curvature="0"
       id="path824"
       d="m 29.02436,118.76298 c -4.175383,-2.23791 -8.894222,-6.09118 -10.420663,-8.50922 -2.302937,-3.64809 -7.710658,-20.792548 -6.8347,-21.668506 0.402417,-0.402416 8.13919,8.362344 12.586242,14.258576 3.8896,5.15713 8.002625,12.58659 8.812999,15.91915 0.279902,1.15106 0.166713,1.5395 -0.448594,1.5395 -0.452625,0 -2.115502,-0.69277 -3.695284,-1.5395 z"
       style="opacity:1;fill:#000000;fill-opacity:1;stroke:#000000;stroke-width:0.5598194;stroke-miterlimit:4;stroke-dasharray:none;stroke-opacity:1" />
    <path
       transform="scale(0.75)"
       inkscape:connector-curvature="0"
       id="path826"
       d="M 76.461246,107.80608 C 73.025521,103.63573 68.761044,92.935616 67.564532,85.483098 67.125129,82.74627 66.975997,75.381307 67.113341,63.200903 l 0.205154,-18.194131 2.394249,-7.027329 c 2.693957,-7.906996 5.015783,-12.375454 7.160516,-13.780737 1.301271,-0.852626 1.958082,-0.880941 6.291651,-0.271238 8.571789,1.205992 37.588139,6.436704 37.588139,6.77593 0,0.180627 -1.04091,1.583389 -2.31314,3.117248 -2.98006,3.592921 -4.22461,6.547461 -5.26069,12.488822 -1.89596,10.872247 -1.55981,34.400453 0.61119,42.778621 1.14004,4.399531 3.04638,8.111638 5.23098,10.185948 0.95241,0.904333 1.73166,1.823743 1.73166,2.043123 0,0.21939 -1.82641,0.79734 -4.05869,1.28433 -5.65174,1.23298 -37.359568,7.07338 -38.133704,7.02401 -0.348586,-0.0222 -1.293321,-0.84097 -2.09941,-1.81942 z"
       style="opacity:1;fill:#000000;fill-opacity:1;stroke:#000000;stroke-width:0.5598194;stroke-miterlimit:4;stroke-dasharray:none;stroke-opacity:1" />
    <path
       transform="scale(0.75)"
       inkscape:connector-curvature="0"
       id="path828"
       d="m 141.18646,28.103276 c -6.43989,-0.576925 -25.99371,-3.174909 -35.82845,-4.760284 -9.891688,-1.594556 -10.902828,-1.851516 -8.677197,-2.205124 1.385553,-0.220137 16.689617,-0.418922 34.009027,-0.441745 l 31.48984,-0.0415 v 3.918735 3.918736 l -9.37697,-0.09411 c -5.15734,-0.05176 -10.38465,-0.184381 -11.61625,-0.294716 z"
       style="opacity:1;fill:#000000;fill-opacity:1;stroke:#000000;stroke-width:0.5598194;stroke-miterlimit:4;stroke-dasharray:none;stroke-opacity:1" />
    <path
       transform="scale(0.75)"
       inkscape:connector-curvature="0"
       id="path830"
       d="m 174.63567,28.10519 -6.85779,-0.207371 -0.008,-2.362002 c -0.004,-1.299101 -0.15954,-2.928819 -0.3452,-3.621596 l -0.33756,-1.259593 23.99758,0.0415 c 13.19866,0.02282 25.1312,0.21734 26.51676,0.432261 l 2.51918,0.390766 -6.15801,2.597775 c -3.38691,1.428777 -7.16569,2.900101 -8.39729,3.269609 -2.35168,0.705556 -18.75742,1.086742 -30.93002,0.718656 z"
       style="opacity:1;fill:#000000;fill-opacity:1;stroke:#000000;stroke-width:0.5598194;stroke-miterlimit:4;stroke-dasharray:none;stroke-opacity:1" />
    <path
       transform="scale(0.75)"
       inkscape:connector-curvature="0"
       id="path832"
       d="m 219.56117,105.74987 c -4.31061,-1.82801 -8.06984,-3.40965 -8.35385,-3.51475 -0.284,-0.10511 0.39498,-2.31794 1.50886,-4.917406 1.11388,-2.59946 2.28904,-6.363764 2.61147,-8.365118 0.76695,-4.760531 0.76477,-41.163424 -0.003,-45.905192 -0.32395,-2.001354 -1.45568,-5.559924 -2.51496,-7.907931 -1.05927,-2.348008 -1.92596,-4.440201 -1.92596,-4.649317 0,-0.539138 5.17247,-2.758461 11.82951,-5.075625 5.36689,-1.86809 5.75319,-1.927732 6.7344,-1.039746 3.94471,3.569912 6.91827,32.021002 5.62553,53.82523 -1.05364,17.77144 -3.75471,30.440145 -6.55611,30.749825 -0.61526,0.068 -4.64552,-1.37197 -8.95613,-3.19997 z"
       style="opacity:1;fill:#000000;fill-opacity:1;stroke:#000000;stroke-width:0.5598194;stroke-miterlimit:4;stroke-dasharray:none;stroke-opacity:1" />
    <path
       transform="scale(0.75)"
       inkscape:connector-curvature="0"
       id="path834"
       d="m 167.21806,107.89599 v -3.44937 l 18.39112,0.3585 c 10.11512,0.19717 19.75102,0.64547 21.4131,0.99622 1.66208,0.35075 5.03731,1.5527 7.50052,2.67101 l 4.47855,2.03329 -8.95711,0.34405 c -4.92641,0.18923 -16.57765,0.37817 -25.89164,0.41987 l -16.93454,0.0758 z"
       style="opacity:1;fill:#000000;fill-opacity:1;stroke:#000000;stroke-width:0.5598194;stroke-miterlimit:4;stroke-dasharray:none;stroke-opacity:1" />
    <path
       transform="scale(0.75)"
       inkscape:connector-curvature="0"
       id="path836"
       d="m 105.92284,110.80839 -8.392278,-0.30275 10.631558,-1.85014 c 15.45567,-2.68965 22.3017,-3.35626 39.04505,-3.80187 l 14.97251,-0.39848 v 3.44511 3.44511 l -23.93228,-0.11711 c -13.16275,-0.0644 -27.7088,-0.25335 -32.32456,-0.41987 z"
       style="opacity:1;fill:#000000;fill-opacity:1;stroke:#000000;stroke-width:0.5598194;stroke-miterlimit:4;stroke-dasharray:none;stroke-opacity:1" />
  </g>
</svg>
