<?xml version="1.0" encoding="UTF-8" standalone="no"?>
<svg
   xmlns:dc="http://purl.org/dc/elements/1.1/"
   xmlns:cc="http://creativecommons.org/ns#"
   xmlns:rdf="http://www.w3.org/1999/02/22-rdf-syntax-ns#"
   xmlns:svg="http://www.w3.org/2000/svg"
   xmlns="http://www.w3.org/2000/svg"
   xmlns:sodipodi="http://sodipodi.sourceforge.net/DTD/sodipodi-0.dtd"
   xmlns:inkscape="http://www.inkscape.org/namespaces/inkscape"
   version="1.0"
   width="103pt"
   height="228pt"
   viewBox="0 0 103 228"
   preserveAspectRatio="xMidYMid meet"
   id="svg8"
   sodipodi:docname="sedan2stop.svg"
   inkscape:version="0.92.5 (2060ec1f9f, 2020-04-08)">
  <defs
     id="defs12" />
  <sodipodi:namedview
     pagecolor="#ffffff"
     bordercolor="#666666"
     borderopacity="1"
     objecttolerance="10"
     gridtolerance="10"
     guidetolerance="10"
     inkscape:pageopacity="0"
     inkscape:pageshadow="2"
     inkscape:window-width="1440"
     inkscape:window-height="792"
     id="namedview10"
     showgrid="false"
     inkscape:zoom="2.0608441"
     inkscape:cx="160.54217"
     inkscape:cy="238.11379"
     inkscape:window-x="1920"
     inkscape:window-y="27"
     inkscape:window-maximized="1"
     inkscape:current-layer="svg8" />
  <metadata
     id="metadata2">
Created by potrace 1.16, written by Peter Selinger 2001-2019
<rdf:RDF>
  <cc:Work
     rdf:about="">
    <dc:format>image/svg+xml</dc:format>
    <dc:type
       rdf:resource="http://purl.org/dc/dcmitype/StillImage" />
    <dc:title></dc:title>
  </cc:Work>
</rdf:RDF>
</metadata>
  <g
     id="g26"
     transform="rotate(89.746825,113.62325,114.12711)">
    <g
       style="fill:#800000;fill-opacity:1;stroke:#000000;stroke-width:7.5;stroke-miterlimit:4;stroke-dasharray:none;stroke-opacity:1"
       id="g6"
       transform="matrix(0.1,0,0,-0.1,0,228)">
      <path
         inkscape:connector-curvature="0"
         style="fill:#800000;fill-opacity:1;stroke:#000000;stroke-width:7.5;stroke-miterlimit:4;stroke-dasharray:none;stroke-opacity:1"
         id="path4"
         d="M 752,1005 732,980 H 458 C 190,980 182,979 139,957 39,904 7,797 7,515 7,248 32,156 122,94 l 41,-29 285,-3 285,-3 19,-24 c 25,-32 37,-32 30,0 l -4,25 h 673 673 l 46,48 c 56,58 75,117 91,282 18,183 -11,431 -60,515 -9,16 -32,40 -51,52 l -33,23 H 1447 778 l 4,25 c 3,14 2,25 -3,25 -4,0 -16,-11 -27,-25 z M 220,950 C 220,919 151,811 95,752 l -65,-67 6,35 c 21,126 57,189 129,221 46,21 55,23 55,9 z m 1110,-95 v -35 h -181 c -168,0 -188,2 -302,31 -67,17 -124,32 -126,35 -2,2 134,4 302,4 h 307 z m 544,27 c -5,-5 -37,-21 -70,-35 -60,-26 -67,-27 -253,-27 h -191 v 35 35 h 262 c 144,0 258,-4 252,-8 z M 806,839 937,809 904,776 C 864,736 849,668 848,526 847,365 864,298 916,254 l 25,-21 -136,-32 c -75,-18 -143,-30 -151,-27 -20,8 -61,102 -80,185 -22,92 -14,291 15,381 24,75 55,130 73,130 7,0 72,-14 144,-31 z m 1158,-19 c 41,-137 47,-411 12,-555 -25,-105 -21,-103 -114,-66 l -80,33 19,33 c 27,45 41,220 29,363 -9,113 -15,137 -37,163 -12,15 -6,20 59,47 40,17 78,31 85,31 7,1 19,-21 27,-49 z M 114,273 C 163,214 220,116 220,91 220,73 196,79 148,109 82,151 53,204 36,307 c -8,57 9,50 78,-34 z m 1216,-88 v -35 h -302 c -166,0 -298,3 -294,7 4,4 55,19 114,34 96,24 126,27 295,28 l 187,1 z m 473,9 c 34,-14 66,-30 72,-35 6,-6 -91,-8 -250,-7 l -260,3 -3,33 -3,32 h 191 c 182,0 193,-1 253,-26 z" />
    </g>
    <path
       inkscape:connector-curvature="0"
       id="path822"
       d="m 4.2082202,155.96235 c 0.4899123,-3.82732 2.097024,-9.34969 3.6562237,-12.56354 2.2059661,-4.54696 4.4804321,-6.80984 9.0483451,-9.00222 3.561176,-1.7092 4.578059,-1.96867 4.578059,-1.16813 0,0.26079 -0.646903,1.81187 -1.437561,3.44686 -2.593325,5.36266 -7.431098,12.02628 -12.7418225,17.55076 l -3.3235455,3.45733 z"
       style="opacity:1;fill:#000000;fill-opacity:1;stroke:#000000;stroke-width:0.36392856;stroke-miterlimit:4;stroke-dasharray:none;stroke-opacity:1" />
    <path
       inkscape:connector-curvature="0"
       id="path824"
       d="M 17.622418,218.05725 C 12.273645,215.21967 9.0864616,211.98382 6.9079136,207.17913 5.1385342,203.27685 3.3083457,194.23262 4.2952232,194.26801 c 1.1776675,0.0422 7.1908348,7.04966 11.0779918,12.90968 2.898615,4.36976 5.531624,9.30891 5.965695,11.1908 0.324887,1.40853 -0.624677,1.32901 -3.716492,-0.31124 z"
       style="opacity:1;fill:#000000;fill-opacity:1;stroke:#000000;stroke-width:0.36392856;stroke-miterlimit:4;stroke-dasharray:none;stroke-opacity:1" />
    <path
       inkscape:connector-curvature="0"
       id="path826"
       d="m 64.438027,208.82043 c -2.021966,-2.83958 -5.384324,-11.74644 -6.73372,-17.83756 -1.316415,-5.94225 -1.112257,-22.29766 0.388406,-31.11589 1.065785,-6.26279 4.653963,-15.15428 7.036809,-17.4372 l 1.038574,-0.99501 9.778068,2.19166 c 5.377942,1.20542 11.296267,2.54311 13.151842,2.97265 l 3.37377,0.78099 -2.018715,2.18045 c -4.737645,5.11722 -6.046462,10.90245 -6.042112,26.70722 0.0045,15.64518 1.28076,21.09516 6.06501,25.89544 1.71681,1.72256 2.114745,2.30617 1.663815,2.44014 -1.611488,0.47878 -16.730895,3.88845 -20.172315,4.54917 -5.534156,1.06252 -6.568908,1.01688 -7.529432,-0.33206 z"
       style="opacity:1;fill:#000000;fill-opacity:1;stroke:#000000;stroke-width:0.36392856;stroke-miterlimit:4;stroke-dasharray:none;stroke-opacity:1" />
    <path
       inkscape:connector-curvature="0"
       id="path828"
       d="m 99.402616,145.09774 c -2.08461,-0.15975 -5.44185,-0.64056 -7.460535,-1.06846 -3.99387,-0.84659 -16.314112,-3.98363 -16.559482,-4.21645 -0.0834,-0.0791 12.731437,-0.14389 28.477411,-0.14389 h 28.62904 v 2.91143 2.91143 L 117.84093,145.44 c -8.05647,-0.0285 -16.35371,-0.18251 -18.438314,-0.34226 z"
       style="opacity:1;fill:#000000;fill-opacity:1;stroke:#000000;stroke-width:0.36392856;stroke-miterlimit:4;stroke-dasharray:none;stroke-opacity:1" />
    <path
       inkscape:connector-curvature="0"
       id="path830"
       d="m 136.49227,142.58037 v -2.91143 l 22.29062,0.0425 c 12.25985,0.0234 23.35511,0.14622 24.65616,0.27295 l 2.36554,0.23041 -3.39321,1.55188 c -7.73099,3.53576 -9.09638,3.70286 -30.36116,3.71569 l -15.55795,0.009 z"
       style="opacity:1;fill:#000000;fill-opacity:1;stroke:#000000;stroke-width:0.36392856;stroke-miterlimit:4;stroke-dasharray:none;stroke-opacity:1" />
    <path
       inkscape:connector-curvature="0"
       id="path832"
       d="m 191.80941,209.67003 c -0.80187,-0.28718 -12.53992,-4.96062 -12.645,-5.03454 -0.0492,-0.0346 0.48969,-1.19634 1.19755,-2.58161 2.39315,-4.6834 3.43774,-12.58656 3.43978,-26.02461 0.001,-7.73928 -0.62641,-17.07971 -1.43305,-21.3284 -0.42493,-2.23813 -1.17098,-4.11763 -2.21826,-5.58841 -0.41834,-0.58751 -0.65679,-1.23619 -0.52988,-1.44153 0.52249,-0.84541 12.18416,-5.81842 13.64416,-5.81842 1.067,0 2.34228,2.90826 3.45823,7.88647 2.78411,12.41973 3.40866,32.30107 1.43282,45.61103 -0.76749,5.17014 -2.57437,12.35049 -3.38844,13.46535 -0.6507,0.89112 -1.87135,1.24382 -2.95791,0.85467 z"
       style="opacity:1;fill:#000000;fill-opacity:1;stroke:#000000;stroke-width:0.36392856;stroke-miterlimit:4;stroke-dasharray:none;stroke-opacity:1" />
    <path
       inkscape:connector-curvature="0"
       id="path834"
       d="m 136.85219,210.72599 c -0.002,-0.7506 -0.10551,-1.97886 -0.22958,-2.72946 l -0.22558,-1.36473 16.87932,0.007 c 9.28362,0.004 18.02568,0.17053 19.42681,0.37016 3.24506,0.46234 6.07229,1.4117 10.19,3.42171 l 3.27536,1.59883 -24.65616,0.0305 -24.65616,0.0305 z"
       style="opacity:1;fill:#000000;fill-opacity:1;stroke:#000000;stroke-width:0.36392856;stroke-miterlimit:4;stroke-dasharray:none;stroke-opacity:1" />
    <path
       inkscape:connector-curvature="0"
       id="path836"
       d="m 79.537449,212.11122 -3.639285,-0.20246 5.095005,-1.41541 c 11.998522,-3.33321 17.18337,-3.85824 38.121511,-3.86026 l 13.37437,-0.002 v 2.91142 2.91144 l -24.65616,-0.0705 C 94.272009,212.34517 81.539056,212.22236 79.537449,212.111 Z"
       style="opacity:1;fill:#000000;fill-opacity:1;stroke:#000000;stroke-width:0.36392856;stroke-miterlimit:4;stroke-dasharray:none;stroke-opacity:1" />
  </g>
</svg>
