<?xml version="1.0" standalone="no"?>
<!DOCTYPE svg PUBLIC "-//W3C//DTD SVG 20010904//EN"
 "http://www.w3.org/TR/2001/REC-SVG-20010904/DTD/svg10.dtd">
<svg version="1.0" xmlns="http://www.w3.org/2000/svg"
 width="228.000000pt" height="103.000000pt" viewBox="0 0 228.000000 103.000000"
 preserveAspectRatio="xMidYMid meet">
<metadata>
Created by potrace 1.16, written by Peter Selinger 2001-2019
</metadata>
<g transform="translate(0.000000,103.000000) scale(0.100000,-0.100000)"
fill="#000000" stroke="none">
<path d="M752 1005 l-20 -25 -274 0 c-268 0 -276 -1 -319 -23 -100 -53 -132
-160 -132 -442 0 -267 25 -359 115 -421 l41 -29 285 -3 285 -3 19 -24 c25 -32
37 -32 30 0 l-4 25 673 0 673 0 46 48 c56 58 75 117 91 282 18 183 -11 431
-60 515 -9 16 -32 40 -51 52 l-33 23 -670 0 -669 0 4 25 c3 14 2 25 -3 25 -4
0 -16 -11 -27 -25z m-532 -55 c0 -31 -69 -139 -125 -198 l-65 -67 6 35 c21
126 57 189 129 221 46 21 55 23 55 9z m1110 -95 l0 -35 -181 0 c-168 0 -188 2
-302 31 -67 17 -124 32 -126 35 -2 2 134 4 302 4 l307 0 0 -35z m544 27 c-5
-5 -37 -21 -70 -35 -60 -26 -67 -27 -253 -27 l-191 0 0 35 0 35 262 0 c144 0
258 -4 252 -8z m-1068 -43 l131 -30 -33 -33 c-40 -40 -55 -108 -56 -250 -1
-161 16 -228 68 -272 l25 -21 -136 -32 c-75 -18 -143 -30 -151 -27 -20 8 -61
102 -80 185 -22 92 -14 291 15 381 24 75 55 130 73 130 7 0 72 -14 144 -31z
m1158 -19 c41 -137 47 -411 12 -555 -25 -105 -21 -103 -114 -66 l-80 33 19 33
c27 45 41 220 29 363 -9 113 -15 137 -37 163 -12 15 -6 20 59 47 40 17 78 31
85 31 7 1 19 -21 27 -49z m-1850 -547 c49 -59 106 -157 106 -182 0 -18 -24
-12 -72 18 -66 42 -95 95 -112 198 -8 57 9 50 78 -34z m1216 -88 l0 -35 -302
0 c-166 0 -298 3 -294 7 4 4 55 19 114 34 96 24 126 27 295 28 l187 1 0 -35z
m473 9 c34 -14 66 -30 72 -35 6 -6 -91 -8 -250 -7 l-260 3 -3 33 -3 32 191 0
c182 0 193 -1 253 -26z"/>
</g>
</svg>
