<?xml version="1.0" encoding="UTF-8" standalone="no"?>
<svg
   xmlns:dc="http://purl.org/dc/elements/1.1/"
   xmlns:cc="http://creativecommons.org/ns#"
   xmlns:rdf="http://www.w3.org/1999/02/22-rdf-syntax-ns#"
   xmlns:svg="http://www.w3.org/2000/svg"
   xmlns="http://www.w3.org/2000/svg"
   xmlns:sodipodi="http://sodipodi.sourceforge.net/DTD/sodipodi-0.dtd"
   xmlns:inkscape="http://www.inkscape.org/namespaces/inkscape"
   version="1.0"
   width="99pt"
   height="186pt"
   viewBox="0 0 99 186"
   preserveAspectRatio="xMidYMid meet"
   id="svg8"
   sodipodi:docname="sedan1stop.svg"
   inkscape:version="0.92.5 (2060ec1f9f, 2020-04-08)">
  <defs
     id="defs12" />
  <sodipodi:namedview
     pagecolor="#ffffff"
     bordercolor="#666666"
     borderopacity="1"
     objecttolerance="10"
     gridtolerance="10"
     guidetolerance="10"
     inkscape:pageopacity="0"
     inkscape:pageshadow="2"
     inkscape:window-width="1440"
     inkscape:window-height="792"
     id="namedview10"
     showgrid="false"
     inkscape:zoom="1.7862903"
     inkscape:cx="125.11964"
     inkscape:cy="153.33183"
     inkscape:window-x="0"
     inkscape:window-y="27"
     inkscape:window-maximized="1"
     inkscape:current-layer="svg8" />
  <metadata
     id="metadata2">
Created by potrace 1.16, written by Peter Selinger 2001-2019
<rdf:RDF>
  <cc:Work
     rdf:about="">
    <dc:format>image/svg+xml</dc:format>
    <dc:type
       rdf:resource="http://purl.org/dc/dcmitype/StillImage" />
    <dc:title></dc:title>
  </cc:Work>
</rdf:RDF>
</metadata>
  <g
     id="g831"
     transform="rotate(89.878431,93.884845,93.493098)">
    <g
       style="fill:#800000;fill-opacity:1;stroke:#000000;stroke-width:7.5;stroke-miterlimit:4;stroke-dasharray:none;stroke-opacity:1"
       id="g6"
       transform="matrix(0.1,0,0,-0.1,0,186)">
      <path
         inkscape:connector-curvature="0"
         style="fill:#800000;fill-opacity:1;stroke:#000000;stroke-width:7.5;stroke-miterlimit:4;stroke-dasharray:none;stroke-opacity:1"
         id="path4"
         d="m 668,950 -22,-30 -217,1 C 197,922 180,919 133,868 104,837 55,729 35,655 17,583 14,418 31,340 57,215 134,97 207,69 220,64 324,60 438,60 h 206 l 29,-27 30,-28 -7,28 -6,27 h 505 c 570,0 545,-3 591,76 38,65 54,139 61,290 10,221 -24,403 -88,466 l -27,28 h -499 c -274,0 -507,3 -519,6 -16,4 -20,11 -16,30 6,32 -3,30 -30,-6 z M 260,889 C 260,849 104,634 87,650 c -10,10 21,137 39,166 36,54 134,107 134,73 z m 960,-84 v -35 h -99 c -86,0 -446,51 -460,66 -2,2 122,4 277,4 h 282 z m 459,31 c -2,-2 -37,-18 -78,-35 -73,-31 -77,-31 -210,-29 l -136,3 -3,33 -3,32 h 217 c 120,0 215,-2 213,-4 z M 765,793 c 82,-14 151,-27 153,-29 2,-1 -8,-13 -22,-27 -38,-38 -51,-97 -51,-247 0,-149 16,-213 60,-248 23,-19 23,-19 -148,-50 l -172,-32 -21,24 c -12,14 -33,55 -45,93 -21,60 -24,86 -24,218 0,130 3,159 23,215 28,82 47,110 75,110 12,0 89,-12 172,-27 z m 974,-5 c 47,-151 42,-513 -9,-609 -10,-18 -13,-18 -48,-3 -20,9 -53,22 -74,31 l -36,14 21,47 c 20,43 22,64 22,227 0,166 -2,183 -22,224 -12,25 -21,46 -20,47 8,8 125,52 139,53 10,1 20,-11 27,-31 z M 234,152 c 16,-34 26,-65 22,-69 -13,-13 -98,40 -122,77 -20,30 -54,143 -53,175 0,23 126,-127 153,-183 z m 986,28 v -30 l -282,1 -283,1 150,28 c 112,21 183,28 283,29 l 132,1 z m 395,0 60,-28 -212,-1 -213,-1 v 30 30 l 153,-1 c 146,0 155,-2 212,-29 z" />
    </g>
    <path
       inkscape:connector-curvature="0"
       id="path822"
       d="m 9.2839905,118.00615 c 0.3910928,-2.9482 2.1226055,-9.46556 3.1541035,-11.87195 1.116307,-2.60424 4.822863,-6.12763 8.45283,-8.035125 2.982718,-1.567374 4.594854,-1.880086 4.594854,-0.891283 0,1.421639 -4.74857,9.264788 -9.172437,15.149998 -2.816715,3.74716 -6.3735595,7.76749 -6.8720118,7.76749 -0.2839095,0 -0.3393667,-0.74693 -0.1573387,-2.11913 z"
       style="opacity:1;fill:#000000;fill-opacity:1;stroke:#000000;stroke-width:0.41986454;stroke-miterlimit:4;stroke-dasharray:none;stroke-opacity:1" />
    <path
       inkscape:connector-curvature="0"
       id="path824"
       d="m 21.76827,176.07223 c -3.131537,-1.67843 -6.670666,-4.56838 -7.815497,-6.38191 -1.727203,-2.73607 -5.7829937,-15.59441 -5.1260252,-16.25138 0.3018127,-0.30181 6.1043922,6.27176 9.4396812,10.69393 2.9172,3.86785 6.001969,9.43994 6.60975,11.93936 0.209926,0.8633 0.125034,1.15463 -0.336446,1.15463 -0.339469,0 -1.586626,-0.51958 -2.771463,-1.15463 z"
       style="opacity:1;fill:#000000;fill-opacity:1;stroke:#000000;stroke-width:0.41986454;stroke-miterlimit:4;stroke-dasharray:none;stroke-opacity:1" />
    <path
       inkscape:connector-curvature="0"
       id="path826"
       d="m 57.345934,167.85456 c -2.576793,-3.12776 -5.775151,-11.15285 -6.672535,-16.74224 -0.329552,-2.05262 -0.441401,-7.57634 -0.338393,-16.71164 l 0.153865,-13.6456 1.795687,-5.2705 c 2.020468,-5.93025 3.761837,-9.28159 5.370387,-10.33555 0.975953,-0.63947 1.468562,-0.66071 4.718738,-0.20343 6.428842,0.90449 28.191104,4.82753 28.191104,5.08195 0,0.13547 -0.780682,1.18754 -1.734855,2.33793 -2.235045,2.69469 -3.168457,4.9106 -3.945517,9.36662 -1.42197,8.15419 -1.169858,25.80034 0.458392,32.08397 0.85503,3.29964 2.284785,6.08372 3.923235,7.63946 0.714308,0.67825 1.298745,1.3678 1.298745,1.53234 0,0.16454 -1.369807,0.598 -3.044017,0.96325 -4.238805,0.92473 -28.019676,5.30503 -28.600278,5.268 -0.261439,-0.0166 -0.969991,-0.63072 -1.574558,-1.36456 z"
       style="opacity:1;fill:#000000;fill-opacity:1;stroke:#000000;stroke-width:0.41986454;stroke-miterlimit:4;stroke-dasharray:none;stroke-opacity:1" />
    <path
       inkscape:connector-curvature="0"
       id="path828"
       d="m 105.88985,108.07746 c -4.82992,-0.4327 -19.495287,-2.38119 -26.871343,-3.57022 -7.418765,-1.19591 -8.177121,-1.38863 -6.507897,-1.65384 1.039164,-0.1651 12.517212,-0.31419 25.50677,-0.33131 l 23.61738,-0.0311 v 2.93905 2.93905 l -7.03273,-0.0706 c -3.868,-0.0388 -7.78848,-0.13828 -8.71218,-0.22103 z"
       style="opacity:1;fill:#000000;fill-opacity:1;stroke:#000000;stroke-width:0.41986454;stroke-miterlimit:4;stroke-dasharray:none;stroke-opacity:1" />
    <path
       inkscape:connector-curvature="0"
       id="path830"
       d="m 130.97675,108.07889 -5.14334,-0.15553 -0.006,-1.7715 c -0.003,-0.97432 -0.11965,-2.19661 -0.2589,-2.71619 l -0.25317,-0.9447 17.99818,0.0311 c 9.899,0.0171 18.8484,0.16301 19.88757,0.3242 l 1.88939,0.29307 -4.61851,1.94833 c -2.54018,1.07158 -5.37426,2.17508 -6.29796,2.45221 -1.76376,0.52917 -14.06807,0.81506 -23.19752,0.53899 z"
       style="opacity:1;fill:#000000;fill-opacity:1;stroke:#000000;stroke-width:0.41986454;stroke-miterlimit:4;stroke-dasharray:none;stroke-opacity:1" />
    <path
       inkscape:connector-curvature="0"
       id="path832"
       d="m 164.67088,166.3124 c -3.23296,-1.37101 -6.05238,-2.55724 -6.26539,-2.63606 -0.213,-0.0788 0.29623,-1.73846 1.13164,-3.68806 0.83541,-1.94959 1.71678,-4.77282 1.95861,-6.27383 0.57521,-3.5704 0.57358,-30.87257 -0.002,-34.4289 -0.24297,-1.50101 -1.09176,-4.16994 -1.88622,-5.93095 -0.79446,-1.761 -1.44447,-3.33015 -1.44447,-3.48698 0,-0.40436 3.87935,-2.06885 8.87213,-3.80672 4.02517,-1.40107 4.31489,-1.4458 5.0508,-0.77981 2.95853,2.67743 5.1887,24.01575 4.21915,40.36892 -0.79023,13.32858 -2.81603,22.83011 -4.91709,23.06237 -0.46144,0.051 -3.48413,-1.02898 -6.71709,-2.39998 z"
       style="opacity:1;fill:#000000;fill-opacity:1;stroke:#000000;stroke-width:0.41986454;stroke-miterlimit:4;stroke-dasharray:none;stroke-opacity:1" />
    <path
       inkscape:connector-curvature="0"
       id="path834"
       d="m 125.41355,167.92199 v -2.58703 l 13.79333,0.26888 c 7.58634,0.14788 14.81327,0.4841 16.05983,0.74716 1.24656,0.26307 3.77798,1.16453 5.62539,2.00326 l 3.35891,1.52497 -6.71783,0.25804 c -3.69481,0.14192 -12.43324,0.28362 -19.41873,0.3149 l -12.7009,0.0568 z"
       style="opacity:1;fill:#000000;fill-opacity:1;stroke:#000000;stroke-width:0.41986454;stroke-miterlimit:4;stroke-dasharray:none;stroke-opacity:1" />
    <path
       inkscape:connector-curvature="0"
       id="path836"
       d="m 79.44213,170.10629 -6.294209,-0.22706 7.973669,-1.38761 c 11.591752,-2.01723 16.726275,-2.51719 29.28379,-2.8514 l 11.22938,-0.29886 v 2.58383 2.58384 l -17.94921,-0.0878 c -9.872063,-0.0483 -20.7816,-0.19001 -24.24342,-0.31491 z"
       style="opacity:1;fill:#000000;fill-opacity:1;stroke:#000000;stroke-width:0.41986454;stroke-miterlimit:4;stroke-dasharray:none;stroke-opacity:1" />
  </g>
</svg>
