<?xml version="1.0" standalone="no"?>
<!DOCTYPE svg PUBLIC "-//W3C//DTD SVG 20010904//EN"
 "http://www.w3.org/TR/2001/REC-SVG-20010904/DTD/svg10.dtd">
<svg version="1.0" xmlns="http://www.w3.org/2000/svg"
 width="234.000000pt" height="104.000000pt" viewBox="0 0 234.000000 104.000000"
 preserveAspectRatio="xMidYMid meet">
<metadata>
Created by potrace 1.16, written by Peter Selinger 2001-2019
</metadata>
<g transform="translate(0.000000,104.000000) scale(0.100000,-0.100000)"
fill="#000000" stroke="none">
<path d="M792 1005 l-20 -25 -263 0 c-155 0 -280 -4 -302 -11 -93 -26 -166
-164 -189 -359 -28 -241 52 -484 178 -536 26 -11 96 -14 305 -14 l271 0 20
-25 c25 -32 37 -32 30 0 l-4 25 688 0 688 0 46 48 c35 36 50 63 63 108 54 191
40 541 -25 673 -13 25 -38 56 -57 68 l-34 23 -685 0 -684 0 4 25 c3 14 2 25
-3 25 -4 0 -16 -11 -27 -25z m-512 -71 c0 -31 -86 -119 -164 -170 l-29 -18 7
39 c15 79 57 134 111 148 30 7 75 8 75 1z m1693 -62 c54 -57 88 -194 88 -362
-1 -153 -36 -287 -93 -347 l-21 -23 -650 0 -649 0 -26 29 c-57 61 -91 192 -92
346 0 124 16 213 53 296 42 96 -17 89 717 89 l646 0 27 -28z"/>
<path d="M855 858 c84 -29 102 -31 268 -35 l177 -5 0 36 0 36 -267 -1 -268 -1
90 -30z"/>
<path d="M1330 855 l0 -35 139 0 c126 0 148 3 237 30 54 17 100 33 103 35 2 3
-104 5 -237 5 l-242 0 0 -35z"/>
<path d="M650 838 c-60 -97 -88 -329 -57 -473 18 -84 60 -183 81 -191 8 -3 75
9 149 26 l133 32 -32 32 c-18 18 -37 50 -43 71 -18 64 -24 214 -12 299 13 92
34 142 68 160 23 12 15 15 -109 44 -73 18 -139 32 -146 32 -7 0 -21 -15 -32
-32z"/>
<path d="M1768 838 l-118 -30 25 -20 c41 -32 59 -113 59 -268 0 -154 -12 -211
-55 -256 l-30 -31 103 -26 c158 -41 161 -41 181 -19 10 11 30 53 44 94 21 59
26 98 30 203 5 146 -9 239 -51 331 -30 64 -25 64 -188 22z"/>
<path d="M878 191 c-48 -15 -90 -30 -94 -34 -4 -4 110 -7 254 -7 l262 0 0 35
0 35 -167 -1 c-152 -1 -176 -4 -255 -28z"/>
<path d="M1330 185 l0 -35 240 0 c132 0 240 2 240 4 0 3 -45 18 -99 35 -91 28
-111 31 -240 31 l-141 0 0 -35z"/>
</g>
</svg>
