<?xml version="1.0" standalone="no"?>
<!DOCTYPE svg PUBLIC "-//W3C//DTD SVG 20010904//EN"
 "http://www.w3.org/TR/2001/REC-SVG-20010904/DTD/svg10.dtd">
<svg version="1.0" xmlns="http://www.w3.org/2000/svg"
 width="186.000000pt" height="99.000000pt" viewBox="0 0 186.000000 99.000000"
 preserveAspectRatio="xMidYMid meet">
<metadata>
Created by potrace 1.16, written by Peter Selinger 2001-2019
</metadata>
<g transform="translate(0.000000,99.000000) scale(0.100000,-0.100000)"
fill="#000000" stroke="none">
<path d="M668 950 l-22 -30 -217 1 c-232 1 -249 -2 -296 -53 -29 -31 -78 -139
-98 -213 -18 -72 -21 -237 -4 -315 26 -125 103 -243 176 -271 13 -5 117 -9
231 -9 l206 0 29 -27 30 -28 -7 28 -6 27 505 0 c570 0 545 -3 591 76 38 65 54
139 61 290 10 221 -24 403 -88 466 l-27 28 -499 0 c-274 0 -507 3 -519 6 -16
4 -20 11 -16 30 6 32 -3 30 -30 -6z m-408 -61 c0 -40 -156 -255 -173 -239 -10
10 21 137 39 166 36 54 134 107 134 73z m960 -84 l0 -35 -99 0 c-86 0 -446 51
-460 66 -2 2 122 4 277 4 l282 0 0 -35z m459 31 c-2 -2 -37 -18 -78 -35 -73
-31 -77 -31 -210 -29 l-136 3 -3 33 -3 32 217 0 c120 0 215 -2 213 -4z m-914
-43 c82 -14 151 -27 153 -29 2 -1 -8 -13 -22 -27 -38 -38 -51 -97 -51 -247 0
-149 16 -213 60 -248 23 -19 23 -19 -148 -50 l-172 -32 -21 24 c-12 14 -33 55
-45 93 -21 60 -24 86 -24 218 0 130 3 159 23 215 28 82 47 110 75 110 12 0 89
-12 172 -27z m974 -5 c47 -151 42 -513 -9 -609 -10 -18 -13 -18 -48 -3 -20 9
-53 22 -74 31 l-36 14 21 47 c20 43 22 64 22 227 0 166 -2 183 -22 224 -12 25
-21 46 -20 47 8 8 125 52 139 53 10 1 20 -11 27 -31z m-1505 -636 c16 -34 26
-65 22 -69 -13 -13 -98 40 -122 77 -20 30 -54 143 -53 175 0 23 126 -127 153
-183z m986 28 l0 -30 -282 1 -283 1 150 28 c112 21 183 28 283 29 l132 1 0
-30z m395 0 l60 -28 -212 -1 -213 -1 0 30 0 30 153 -1 c146 0 155 -2 212 -29z"/>
</g>
</svg>
