<?xml version="1.0" standalone="no"?>
<!DOCTYPE svg PUBLIC "-//W3C//DTD SVG 20010904//EN"
 "http://www.w3.org/TR/2001/REC-SVG-20010904/DTD/svg10.dtd">
<svg version="1.0" xmlns="http://www.w3.org/2000/svg"
 width="821.000000pt" height="169.000000pt" viewBox="0 0 821.000000 169.000000"
 preserveAspectRatio="xMidYMid meet">
<metadata>
Created by potrace 1.16, written by Peter Selinger 2001-2019
</metadata>
<g transform="translate(0.000000,169.000000) scale(0.100000,-0.100000)"
fill="#000000" stroke="none">
<path d="M982 1673 c-5 -10 -21 -51 -36 -90 l-28 -73 -230 0 c-189 0 -236 -3
-263 -16 -45 -21 -116 -98 -155 -168 -21 -37 -38 -56 -51 -56 -10 0 -19 3 -19
6 0 12 60 91 94 123 38 37 45 61 21 81 -22 19 -50 3 -104 -57 -250 -281 -247
-899 6 -1165 60 -62 86 -76 108 -58 24 20 17 46 -17 75 -35 30 -108 121 -108
136 0 5 7 9 15 9 7 0 34 -30 58 -68 50 -76 98 -130 142 -158 26 -17 54 -20
268 -24 l239 -5 32 -80 c24 -63 35 -80 51 -80 29 0 29 30 1 102 l-25 63 372 0
c225 0 387 4 409 10 45 13 93 52 114 91 13 26 20 29 64 29 l50 0 0 -47 c0 -58
26 -113 60 -130 20 -10 336 -13 1478 -13 l1454 0 34 34 c31 31 34 39 34 95 l0
61 40 0 40 0 0 -45 c0 -56 20 -107 51 -129 21 -15 150 -16 1482 -16 l1459 0
34 34 34 34 0 656 c0 713 1 699 -55 724 -20 9 -374 12 -1478 12 -1327 0 -1455
-1 -1476 -16 -30 -21 -51 -72 -51 -124 l0 -40 -40 0 -40 0 0 50 c0 61 -19 102
-55 118 -39 18 -2909 17 -2945 -1 -33 -16 -60 -72 -60 -124 l0 -43 -55 0 c-50
0 -56 2 -70 30 -9 17 -34 42 -57 58 l-42 27 -393 3 -393 3 25 66 c29 76 31 99
9 107 -22 8 -22 8 -32 -11z m3956 -260 c3 -10 -284 -13 -1412 -13 -1253 0
-1416 2 -1416 15 0 13 161 15 1412 13 1118 -2 1412 -6 1416 -15z m3140 0 c3
-10 -284 -13 -1412 -13 -1253 0 -1416 2 -1416 15 0 13 161 15 1412 13 1118 -2
1412 -6 1416 -15z m-6638 -58 l0 -45 -105 0 c-99 0 -110 2 -207 41 -57 22
-105 43 -107 45 -2 2 91 4 207 4 l212 0 0 -45z m282 0 l-16 -45 -98 0 -98 0 0
38 c0 21 3 42 7 45 3 4 55 7 114 7 l108 0 -17 -45z m-712 -21 c69 -26 127 -49
129 -51 2 -1 -4 -28 -12 -60 -26 -92 -40 -300 -33 -483 5 -141 13 -201 43
-325 4 -18 -10 -26 -119 -68 -68 -26 -130 -49 -139 -52 -22 -8 -35 27 -61 163
-20 103 -23 149 -23 382 1 231 3 280 23 382 24 126 39 171 56 165 6 -3 67 -26
136 -53z m3928 -64 c-2 -7 -453 -10 -1398 -10 -767 0 -1403 0 -1412 0 -10 0
-18 5 -18 10 0 7 479 10 1416 10 964 0 1415 -3 1412 -10z m3142 0 c0 -9 -2728
-20 -2822 -11 -5 1 -8 6 -8 11 0 7 478 10 1415 10 937 0 1415 -3 1415 -10z
m-3140 -145 c0 -13 -164 -15 -1415 -15 -1251 0 -1415 2 -1415 15 0 13 164 15
1415 15 1251 0 1415 -2 1415 -15z m3140 0 c0 -13 -164 -15 -1415 -15 -1251 0
-1415 2 -1415 15 0 13 164 15 1415 15 1251 0 1415 -2 1415 -15z m-3140 -140
c0 -13 -164 -15 -1415 -15 -1251 0 -1415 2 -1415 15 0 13 164 15 1415 15 1251
0 1415 -2 1415 -15z m3140 0 c0 -13 -164 -15 -1415 -15 -1251 0 -1415 2 -1415
15 0 13 164 15 1415 15 1251 0 1415 -2 1415 -15z m-3140 -140 c0 -13 -164 -15
-1415 -15 -1251 0 -1415 2 -1415 15 0 13 164 15 1415 15 1251 0 1415 -2 1415
-15z m3140 0 c0 -13 -164 -15 -1415 -15 -1251 0 -1415 2 -1415 15 0 13 164 15
1415 15 1251 0 1415 -2 1415 -15z m-3140 -145 c0 -5 -6 -10 -12 -10 -7 0 -638
0 -1403 0 -1624 -1 -1415 -2 -1415 10 0 7 478 10 1415 10 937 0 1415 -3 1415
-10z m3140 0 c0 -5 -8 -10 -17 -10 -121 0 -2783 0 -2795 0 -10 0 -18 5 -18 10
0 7 478 10 1415 10 937 0 1415 -3 1415 -10z m-3140 -145 c0 -13 -164 -15
-1415 -15 -1251 0 -1415 2 -1415 15 0 13 164 15 1415 15 1251 0 1415 -2 1415
-15z m3140 0 c0 -13 -164 -15 -1415 -15 -1251 0 -1415 2 -1415 15 0 13 164 15
1415 15 1251 0 1415 -2 1415 -15z m-3140 -140 c0 -13 -164 -15 -1415 -15
-1251 0 -1415 2 -1415 15 0 13 164 15 1415 15 1251 0 1415 -2 1415 -15z m3140
0 c0 -13 -164 -15 -1415 -15 -1251 0 -1415 2 -1415 15 0 13 164 15 1415 15
1251 0 1415 -2 1415 -15z m-6640 -90 l0 -45 -212 0 c-116 0 -209 2 -206 5 3 3
50 23 104 45 93 36 106 39 207 39 l107 1 0 -45z m282 0 l17 -46 -112 3 -112 3
-3 43 -3 42 98 0 99 0 16 -45z m3218 -50 c0 -13 -164 -15 -1415 -15 -1251 0
-1415 2 -1415 15 0 13 164 15 1415 15 1251 0 1415 -2 1415 -15z m3140 0 c0
-13 -164 -15 -1415 -15 -1251 0 -1415 2 -1415 15 0 13 164 15 1415 15 1251 0
1415 -2 1415 -15z"/>
</g>
</svg>
