<?xml version="1.0" standalone="no"?>
<!DOCTYPE svg PUBLIC "-//W3C//DTD SVG 20010904//EN"
 "http://www.w3.org/TR/2001/REC-SVG-20010904/DTD/svg10.dtd">
<svg version="1.0" xmlns="http://www.w3.org/2000/svg"
 width="293.000000pt" height="124.000000pt" viewBox="0 0 293.000000 124.000000"
 preserveAspectRatio="xMidYMid meet">
<metadata>
Created by potrace 1.16, written by Peter Selinger 2001-2019
</metadata>
<g transform="translate(0.000000,124.000000) scale(0.100000,-0.100000)"
fill="#000000" stroke="none">
<path d="M2301 1198 c5 -18 9 -36 9 -40 0 -5 -108 -8 -240 -8 -207 0 -246 -2
-278 -17 l-37 -17 100 -6 c102 -5 120 -10 143 -42 12 -16 30 -18 150 -19 117
-1 128 -3 75 -10 -34 -4 -95 -9 -135 -11 l-73 -3 -3 -396 -2 -396 137 -14 138
-14 -134 -3 -134 -3 -27 -29 c-27 -29 -30 -30 -126 -30 -94 0 -97 -1 -81 -18
16 -15 46 -17 272 -20 140 -2 255 -6 255 -10 0 -4 -4 -22 -9 -40 -5 -17 -6
-32 -1 -32 10 0 60 58 60 71 0 5 62 9 142 9 208 0 229 13 326 201 65 128 87
230 79 371 -3 57 -13 125 -21 151 -25 78 -113 233 -153 267 -60 53 -88 60
-238 60 -76 0 -135 4 -135 9 0 13 -50 71 -60 71 -5 0 -4 -15 1 -32z m380 -151
c23 -15 52 -54 86 -117 29 -52 53 -99 53 -104 0 -14 -54 4 -78 27 -29 26 -33
35 -77 137 -19 44 -31 80 -26 80 4 0 23 -10 42 -23z m-268 -35 c27 -29 66
-124 83 -200 24 -107 15 -340 -16 -437 -26 -82 -57 -142 -78 -150 -17 -6 -293
43 -305 54 -4 4 -6 162 -5 352 l3 344 140 27 c172 32 159 31 178 10z m397
-606 c-19 -52 -91 -184 -107 -199 -16 -14 -73 -41 -73 -34 0 11 82 192 92 205
17 20 69 52 85 52 9 0 10 -7 3 -24z"/>
<path d="M30 1141 c-6 -13 -10 -194 -10 -518 0 -415 2 -502 14 -519 14 -18 35
-19 798 -21 852 -3 828 -5 838 52 l5 30 139 3 c82 1 145 7 153 14 18 15 19
868 1 886 -8 8 -57 12 -155 12 l-143 0 0 28 c0 15 -5 33 -12 40 -9 9 -204 12
-815 12 -783 0 -803 0 -813 -19z"/>
</g>
</svg>
