<?xml version="1.0" encoding="UTF-8" standalone="no"?>
<svg
   xmlns:dc="http://purl.org/dc/elements/1.1/"
   xmlns:cc="http://creativecommons.org/ns#"
   xmlns:rdf="http://www.w3.org/1999/02/22-rdf-syntax-ns#"
   xmlns:svg="http://www.w3.org/2000/svg"
   xmlns="http://www.w3.org/2000/svg"
   xmlns:sodipodi="http://sodipodi.sourceforge.net/DTD/sodipodi-0.dtd"
   xmlns:inkscape="http://www.inkscape.org/namespaces/inkscape"
   version="1.0"
   width="169pt"
   height="821pt"
   viewBox="0 0 169 821"
   preserveAspectRatio="xMidYMid meet"
   id="svg8"
   sodipodi:docname="truck3stop.svg"
   inkscape:version="0.92.5 (2060ec1f9f, 2020-04-08)">
  <defs
     id="defs12" />
  <sodipodi:namedview
     pagecolor="#ffffff"
     bordercolor="#666666"
     borderopacity="1"
     objecttolerance="10"
     gridtolerance="10"
     guidetolerance="10"
     inkscape:pageopacity="0"
     inkscape:pageshadow="2"
     inkscape:window-width="1440"
     inkscape:window-height="792"
     id="namedview10"
     showgrid="false"
     inkscape:zoom="0.80937881"
     inkscape:cx="540.92935"
     inkscape:cy="233.22995"
     inkscape:window-x="1920"
     inkscape:window-y="27"
     inkscape:window-maximized="1"
     inkscape:current-layer="svg8" />
  <metadata
     id="metadata2">
Created by potrace 1.16, written by Peter Selinger 2001-2019
<rdf:RDF>
  <cc:Work
     rdf:about="">
    <dc:format>image/svg+xml</dc:format>
    <dc:type
       rdf:resource="http://purl.org/dc/dcmitype/StillImage" />
    <dc:title></dc:title>
  </cc:Work>
</rdf:RDF>
</metadata>
  <g
     id="g60"
     transform="rotate(89.944448,409.99854,409.96295)">
    <g
       style="fill:#800000;fill-opacity:1;stroke:#000000;stroke-width:7.5;stroke-miterlimit:4;stroke-dasharray:none;stroke-opacity:1"
       id="g6"
       transform="matrix(0.1,0,0,-0.1,0,821.00001)">
      <path
         inkscape:connector-curvature="0"
         style="fill:#800000;fill-opacity:1;stroke:#000000;stroke-width:7.5;stroke-miterlimit:4;stroke-dasharray:none;stroke-opacity:1"
         id="path4"
         d="m 982,1673 c -5,-10 -21,-51 -36,-90 l -28,-73 H 688 c -189,0 -236,-3 -263,-16 -45,-21 -116,-98 -155,-168 -21,-37 -38,-56 -51,-56 -10,0 -19,3 -19,6 0,12 60,91 94,123 38,37 45,61 21,81 -22,19 -50,3 -104,-57 -250,-281 -247,-899 6,-1165 60,-62 86,-76 108,-58 24,20 17,46 -17,75 -35,30 -108,121 -108,136 0,5 7,9 15,9 7,0 34,-30 58,-68 50,-76 98,-130 142,-158 26,-17 54,-20 268,-24 l 239,-5 32,-80 c 24,-63 35,-80 51,-80 29,0 29,30 1,102 l -25,63 h 372 c 225,0 387,4 409,10 45,13 93,52 114,91 13,26 20,29 64,29 h 50 v -47 c 0,-58 26,-113 60,-130 20,-10 336,-13 1478,-13 h 1454 l 34,34 c 31,31 34,39 34,95 v 61 h 40 40 v -45 c 0,-56 20,-107 51,-129 21,-15 150,-16 1482,-16 h 1459 l 34,34 34,34 v 656 c 0,713 1,699 -55,724 -20,9 -374,12 -1478,12 -1327,0 -1455,-1 -1476,-16 -30,-21 -51,-72 -51,-124 v -40 h -40 -40 v 50 c 0,61 -19,102 -55,118 -39,18 -2909,17 -2945,-1 -33,-16 -60,-72 -60,-124 v -43 h -55 c -50,0 -56,2 -70,30 -9,17 -34,42 -57,58 l -42,27 -393,3 -393,3 25,66 c 29,76 31,99 9,107 -22,8 -22,8 -32,-11 z m 3956,-260 c 3,-10 -284,-13 -1412,-13 -1253,0 -1416,2 -1416,15 0,13 161,15 1412,13 1118,-2 1412,-6 1416,-15 z m 3140,0 c 3,-10 -284,-13 -1412,-13 -1253,0 -1416,2 -1416,15 0,13 161,15 1412,13 1118,-2 1412,-6 1416,-15 z m -6638,-58 v -45 h -105 c -99,0 -110,2 -207,41 -57,22 -105,43 -107,45 -2,2 91,4 207,4 h 212 z m 282,0 -16,-45 h -98 -98 v 38 c 0,21 3,42 7,45 3,4 55,7 114,7 h 108 z m -712,-21 c 69,-26 127,-49 129,-51 2,-1 -4,-28 -12,-60 -26,-92 -40,-300 -33,-483 5,-141 13,-201 43,-325 4,-18 -10,-26 -119,-68 -68,-26 -130,-49 -139,-52 -22,-8 -35,27 -61,163 -20,103 -23,149 -23,382 1,231 3,280 23,382 24,126 39,171 56,165 6,-3 67,-26 136,-53 z m 3928,-64 c -2,-7 -453,-10 -1398,-10 -767,0 -1403,0 -1412,0 -10,0 -18,5 -18,10 0,7 479,10 1416,10 964,0 1415,-3 1412,-10 z m 3142,0 c 0,-9 -2728,-20 -2822,-11 -5,1 -8,6 -8,11 0,7 478,10 1415,10 937,0 1415,-3 1415,-10 z M 4940,1125 c 0,-13 -164,-15 -1415,-15 -1251,0 -1415,2 -1415,15 0,13 164,15 1415,15 1251,0 1415,-2 1415,-15 z m 3140,0 c 0,-13 -164,-15 -1415,-15 -1251,0 -1415,2 -1415,15 0,13 164,15 1415,15 1251,0 1415,-2 1415,-15 z M 4940,985 c 0,-13 -164,-15 -1415,-15 -1251,0 -1415,2 -1415,15 0,13 164,15 1415,15 1251,0 1415,-2 1415,-15 z m 3140,0 c 0,-13 -164,-15 -1415,-15 -1251,0 -1415,2 -1415,15 0,13 164,15 1415,15 1251,0 1415,-2 1415,-15 z M 4940,845 c 0,-13 -164,-15 -1415,-15 -1251,0 -1415,2 -1415,15 0,13 164,15 1415,15 1251,0 1415,-2 1415,-15 z m 3140,0 c 0,-13 -164,-15 -1415,-15 -1251,0 -1415,2 -1415,15 0,13 164,15 1415,15 1251,0 1415,-2 1415,-15 z M 4940,700 c 0,-5 -6,-10 -12,-10 -7,0 -638,0 -1403,0 -1624,-1 -1415,-2 -1415,10 0,7 478,10 1415,10 937,0 1415,-3 1415,-10 z m 3140,0 c 0,-5 -8,-10 -17,-10 -121,0 -2783,0 -2795,0 -10,0 -18,5 -18,10 0,7 478,10 1415,10 937,0 1415,-3 1415,-10 z M 4940,555 c 0,-13 -164,-15 -1415,-15 -1251,0 -1415,2 -1415,15 0,13 164,15 1415,15 1251,0 1415,-2 1415,-15 z m 3140,0 c 0,-13 -164,-15 -1415,-15 -1251,0 -1415,2 -1415,15 0,13 164,15 1415,15 1251,0 1415,-2 1415,-15 z M 4940,415 c 0,-13 -164,-15 -1415,-15 -1251,0 -1415,2 -1415,15 0,13 164,15 1415,15 1251,0 1415,-2 1415,-15 z m 3140,0 c 0,-13 -164,-15 -1415,-15 -1251,0 -1415,2 -1415,15 0,13 164,15 1415,15 1251,0 1415,-2 1415,-15 z M 1440,325 v -45 h -212 c -116,0 -209,2 -206,5 3,3 50,23 104,45 93,36 106,39 207,39 l 107,1 z m 282,0 17,-46 -112,3 -112,3 -3,43 -3,42 h 98 99 z m 3218,-50 c 0,-13 -164,-15 -1415,-15 -1251,0 -1415,2 -1415,15 0,13 164,15 1415,15 1251,0 1415,-2 1415,-15 z m 3140,0 c 0,-13 -164,-15 -1415,-15 -1251,0 -1415,2 -1415,15 0,13 164,15 1415,15 1251,0 1415,-2 1415,-15 z" />
    </g>
    <path
       inkscape:connector-curvature="0"
       id="path822"
       d="m 86.18434,790.02372 c -0.87159,-1.47549 -2.078558,-6.04551 -3.51333,-13.30276 -2.386763,-12.07252 -2.457428,-13.18668 -2.463773,-38.84489 -0.0038,-16.4817 0.114818,-24.03584 0.43056,-27.35589 1.027815,-10.8078 4.883895,-27.68351 6.325635,-27.68351 0.443213,0 25.334808,9.6439 26.079448,10.10412 0.28778,0.17785 0.0995,1.46638 -0.72873,4.98728 -2.61606,11.12128 -3.2829,19.24163 -3.28049,39.948 0.002,20.02687 0.33452,24.0808 2.99877,36.59591 1.04575,4.91234 1.1405,5.70867 0.73768,6.20002 -0.2542,0.31007 -1.78903,1.18256 -3.41072,1.93887 -3.59307,1.6757 -21.195785,8.33891 -22.02953,8.33891 -0.32916,0 -0.844643,-0.41673 -1.14552,-0.92606 z"
       style="opacity:1;fill:#000000;fill-opacity:1;stroke:#000000;stroke-width:0.3276155;stroke-miterlimit:4;stroke-dasharray:none;stroke-opacity:1" />
    <path
       inkscape:connector-curvature="0"
       id="path824"
       d="m 124.21048,689.05378 c -2.7319,-0.46101 -5.22697,-1.29669 -12.5127,-4.1909 -6.86458,-2.72692 -7.10983,-2.85468 -5.89708,-3.07208 0.69596,-0.12476 9.48444,-0.23533 19.52994,-0.24571 l 18.26457,-0.0189 v 3.93138 3.93139 l -8.92752,-0.0385 c -4.91014,-0.0212 -9.61588,-0.15469 -10.45721,-0.29667 z"
       style="opacity:1;fill:#000000;fill-opacity:1;stroke:#000000;stroke-width:0.3276155;stroke-miterlimit:4;stroke-dasharray:none;stroke-opacity:1" />
    <path
       inkscape:connector-curvature="0"
       id="path826"
       d="m 151.52916,686.09144 c 0.11877,-2.46624 0.29466,-3.4334 0.69774,-3.83648 0.4709,-0.4709 1.8264,-0.55604 10.73714,-0.6744 5.83777,-0.0775 10.14573,-0.0117 10.07548,0.1541 -0.0675,0.15926 -0.71243,1.94584 -1.43319,3.97018 l -1.31046,3.68061 -9.46275,0.002 -9.46274,0.002 z"
       style="opacity:1;fill:#000000;fill-opacity:1;stroke:#000000;stroke-width:0.3276155;stroke-miterlimit:4;stroke-dasharray:none;stroke-opacity:1" />
    <path
       inkscape:connector-curvature="0"
       id="path828"
       d="m 109.03177,792.27361 -4.91423,-0.17717 5.7662,-2.36505 c 7.31813,-3.00159 11.00884,-4.23597 13.89357,-4.64678 1.25976,-0.17941 6.23414,-0.38209 11.05418,-0.45042 l 8.76372,-0.12423 v 4.03895 4.03895 l -14.8246,-0.0686 c -8.15354,-0.0377 -17.03601,-0.14827 -19.73884,-0.24572 z"
       style="opacity:1;fill:#000000;fill-opacity:1;stroke:#000000;stroke-width:0.3276155;stroke-miterlimit:4;stroke-dasharray:none;stroke-opacity:1" />
    <path
       inkscape:connector-curvature="0"
       id="path830"
       d="m 160.50901,792.24331 c -6.31231,-0.18483 -8.2124,-0.33902 -8.43108,-0.68417 -0.15526,-0.24505 -0.28584,-1.18269 -0.29017,-2.08362 -0.004,-0.90095 -0.1011,-2.41437 -0.21506,-3.36317 l -0.20719,-1.72507 9.42211,0.087 9.42212,0.087 1.43543,3.90741 c 0.78949,2.14907 1.43543,3.95505 1.43543,4.01329 0,0.11879 -1.0349,0.0991 -12.57159,-0.23867 z"
       style="opacity:1;fill:#000000;fill-opacity:1;stroke:#000000;stroke-width:0.3276155;stroke-miterlimit:4;stroke-dasharray:none;stroke-opacity:1" />
    <path
       inkscape:connector-curvature="0"
       id="path832"
       d="m 241.13718,680.22909 c -13.24386,-0.13319 -24.96431,-0.37451 -26.04543,-0.53627 l -1.9657,-0.29411 3.76758,-0.21146 c 9.31803,-0.52299 98.96459,-0.65957 176.74857,-0.26928 45.5877,0.22874 85.76155,0.50375 89.27522,0.61112 l 6.3885,0.19523 -7.86276,0.2437 c -10.95435,0.33951 -210.90579,0.55674 -240.30598,0.26107 z"
       style="opacity:1;fill:#000000;fill-opacity:1;stroke:#000000;stroke-width:0.3276155;stroke-miterlimit:4;stroke-dasharray:none;stroke-opacity:1" />
    <path
       inkscape:connector-curvature="0"
       id="path834"
       d="m 215.41936,694.24188 c 3.83813,-0.35921 245.9004,-0.69777 250.62587,-0.35054 2.05047,0.15067 -32.25145,0.36711 -79.58313,0.50215 -101.81401,0.29048 -175.07267,0.22555 -171.04274,-0.15161 z"
       style="opacity:1;fill:#000000;fill-opacity:1;stroke:#000000;stroke-width:0.3276155;stroke-miterlimit:4;stroke-dasharray:none;stroke-opacity:1" />
    <path
       inkscape:connector-curvature="0"
       id="path836"
       d="m 225.57544,709.03888 c -5.22546,-0.12622 -10.23798,-0.27075 -11.13893,-0.32117 l -1.63807,-0.0917 1.80188,-0.27076 c 2.74237,-0.41208 78.23825,-0.91171 137.76233,-0.91171 58.62644,0 134.9534,0.47819 137.76232,0.86309 l 1.80188,0.2469 -2.94854,0.25998 c -3.70082,0.32631 -250.48292,0.53743 -263.40287,0.22535 z"
       style="opacity:1;fill:#000000;fill-opacity:1;stroke:#000000;stroke-width:0.3276155;stroke-miterlimit:4;stroke-dasharray:none;stroke-opacity:1" />
    <path
       inkscape:connector-curvature="0"
       id="path838"
       d="m 298.08302,723.54312 c 4.38203,-0.0516 11.45853,-0.0516 15.72555,1.2e-4 4.26702,0.0517 0.68172,0.094 -7.96733,0.0939 -8.64905,-6e-5 -12.14025,-0.0424 -7.75822,-0.094 z"
       style="opacity:1;fill:#000000;fill-opacity:1;stroke:#000000;stroke-width:0.3276155;stroke-miterlimit:4;stroke-dasharray:none;stroke-opacity:1" />
    <path
       inkscape:connector-curvature="0"
       id="path840"
       d="m 303.62984,723.21774 c 1.30636,-0.0622 3.44406,-0.0622 4.75042,0 1.30637,0.0622 0.23753,0.11306 -2.37521,0.11306 -2.61273,0 -3.68158,-0.0509 -2.37521,-0.11306 z"
       style="opacity:1;fill:#000000;fill-opacity:1;stroke:#000000;stroke-width:0.3276155;stroke-miterlimit:4;stroke-dasharray:none;stroke-opacity:1" />
    <path
       inkscape:connector-curvature="0"
       id="path842"
       d="m 232.45537,723.13132 c -19.77771,-0.31535 -18.79067,-0.27767 -18.0812,-0.69036 0.38594,-0.2245 8.50538,-0.4452 23.2607,-0.63227 29.40248,-0.37278 200.38069,-0.37278 229.78316,0 24.13094,0.30594 29.64076,0.70917 16.29125,1.19226 -7.25062,0.26239 -161.45554,0.41898 -174.42807,0.17713 -3.51368,-0.0655 -18.9198,-0.0499 -34.23583,0.0346 -15.31602,0.0845 -34.48153,0.0479 -42.59001,-0.0814 z"
       style="opacity:1;fill:#000000;fill-opacity:1;stroke:#000000;stroke-width:0.3276155;stroke-miterlimit:4;stroke-dasharray:none;stroke-opacity:1" />
    <path
       inkscape:connector-curvature="0"
       id="path844"
       d="m 241.30099,737.17173 c -27.03304,-0.2761 -33.10242,-0.59106 -21.62263,-1.12207 8.6621,-0.40068 257.03408,-0.40068 265.69618,0 4.8623,0.22491 6.21431,0.37196 5.24185,0.57013 -3.94923,0.80477 -185.25939,1.20615 -249.3154,0.55194 z"
       style="opacity:1;fill:#000000;fill-opacity:1;stroke:#000000;stroke-width:0.3276155;stroke-miterlimit:4;stroke-dasharray:none;stroke-opacity:1" />
    <path
       inkscape:connector-curvature="0"
       id="path846"
       d="m 220.98883,751.35257 c -8.2882,-0.47853 36.92564,-0.6965 135.79662,-0.65466 57.39005,0.0243 110.24262,0.14338 117.45016,0.26465 14.41751,0.24258 10.9866,0.25307 -154.33433,0.47192 -52.41977,0.0694 -96.93038,0.0326 -98.91245,-0.0819 z"
       style="opacity:1;fill:#000000;fill-opacity:1;stroke:#000000;stroke-width:0.3276155;stroke-miterlimit:4;stroke-dasharray:none;stroke-opacity:1" />
    <path
       inkscape:connector-curvature="0"
       id="path848"
       d="m 226.06687,766.04462 c -5.31557,-0.12599 -10.47551,-0.27057 -11.46655,-0.32128 l -1.80188,-0.0922 1.80188,-0.2676 c 7.58594,-1.12661 266.78282,-1.1843 275.36084,-0.0613 l 1.96569,0.25735 -2.94854,0.25869 c -3.7079,0.32533 -249.79667,0.53718 -262.91144,0.22634 z"
       style="opacity:1;fill:#000000;fill-opacity:1;stroke:#000000;stroke-width:0.3276155;stroke-miterlimit:4;stroke-dasharray:none;stroke-opacity:1" />
    <path
       inkscape:connector-curvature="0"
       id="path850"
       d="m 232.94679,780.13577 c -20.27667,-0.31792 -19.27553,-0.28083 -18.57546,-0.68813 1.0968,-0.63812 43.72123,-0.92284 138.15512,-0.92284 89.98248,0 137.13143,0.29075 137.99798,0.85098 0.24354,0.15746 -1.22985,0.37176 -3.51181,0.51078 -5.26522,0.32076 -235.12268,0.54624 -254.06583,0.24921 z"
       style="opacity:1;fill:#000000;fill-opacity:1;stroke:#000000;stroke-width:0.3276155;stroke-miterlimit:4;stroke-dasharray:none;stroke-opacity:1" />
    <path
       inkscape:connector-curvature="0"
       id="path852"
       d="m 242.12002,794.17676 c -27.77964,-0.27492 -34.01505,-0.58666 -22.44166,-1.122 8.6621,-0.40068 257.03408,-0.40068 265.69618,0 4.86166,0.22488 6.21418,0.37197 5.24185,0.57006 -3.93489,0.80168 -183.05735,1.19952 -248.49637,0.55194 z"
       style="opacity:1;fill:#000000;fill-opacity:1;stroke:#000000;stroke-width:0.3276155;stroke-miterlimit:4;stroke-dasharray:none;stroke-opacity:1" />
    <path
       inkscape:connector-curvature="0"
       id="path854"
       d="m 554.92196,680.22762 c -24.16297,-0.24166 -32.06494,-0.58569 -23.91593,-1.04122 9.33714,-0.52195 99.0253,-0.65845 176.74857,-0.26899 45.58772,0.22843 85.68782,0.50343 89.11142,0.61112 l 6.2247,0.19579 -7.86277,0.24398 c -10.9917,0.34106 -210.59549,0.55646 -240.30599,0.25932 z"
       style="opacity:1;fill:#000000;fill-opacity:1;stroke:#000000;stroke-width:0.3276155;stroke-miterlimit:4;stroke-dasharray:none;stroke-opacity:1" />
    <path
       inkscape:connector-curvature="0"
       id="path856"
       d="m 531.98887,694.64155 c -17.97919,-0.49118 9.79407,-0.66894 123.18343,-0.78841 67.48061,-0.0711 119.15375,-0.0103 114.82925,0.1351 -18.13718,0.6098 -219.38549,1.1622 -238.01268,0.65331 z"
       style="opacity:1;fill:#000000;fill-opacity:1;stroke:#000000;stroke-width:0.3276155;stroke-miterlimit:4;stroke-dasharray:none;stroke-opacity:1" />
    <path
       inkscape:connector-curvature="0"
       id="path858"
       d="m 539.68784,709.03888 c -5.22547,-0.12622 -10.23799,-0.27075 -11.13892,-0.32117 l -1.63809,-0.0917 1.80189,-0.27076 c 2.74237,-0.41208 78.23824,-0.91171 137.76233,-0.91171 58.62644,0 134.95337,0.47819 137.76235,0.86309 l 1.80187,0.2469 -2.94855,0.25998 c -3.7008,0.32631 -250.48294,0.53743 -263.40288,0.22535 z"
       style="opacity:1;fill:#000000;fill-opacity:1;stroke:#000000;stroke-width:0.3276155;stroke-miterlimit:4;stroke-dasharray:none;stroke-opacity:1" />
    <path
       inkscape:connector-curvature="0"
       id="path860"
       d="m 546.40396,723.12993 c -19.62341,-0.31551 -18.62539,-0.27713 -17.91739,-0.68897 1.09022,-0.63418 43.91667,-0.91966 137.98848,-0.91984 89.30402,-1.7e-4 137.30485,0.29539 138.1636,0.85071 0.24112,0.15591 -1.24448,0.37176 -3.5136,0.51051 -5.25758,0.32147 -236.16671,0.54592 -254.72109,0.24759 z"
       style="opacity:1;fill:#000000;fill-opacity:1;stroke:#000000;stroke-width:0.3276155;stroke-miterlimit:4;stroke-dasharray:none;stroke-opacity:1" />
    <path
       inkscape:connector-curvature="0"
       id="path862"
       d="m 555.24958,737.17894 c -26.90634,-0.2653 -33.19652,-0.5975 -21.45882,-1.13328 8.61514,-0.39325 256.75344,-0.39325 265.36854,0 4.7838,0.21836 6.24285,0.37419 5.4057,0.57735 -3.29408,0.79937 -183.80586,1.20188 -249.31542,0.55593 z"
       style="opacity:1;fill:#000000;fill-opacity:1;stroke:#000000;stroke-width:0.3276155;stroke-miterlimit:4;stroke-dasharray:none;stroke-opacity:1" />
    <path
       inkscape:connector-curvature="0"
       id="path864"
       d="m 544.60207,750.96256 c 17.06603,-0.28714 226.67995,-0.28714 243.74598,0 7.2075,0.12127 -47.63533,0.22049 -121.873,0.22049 -74.23768,0 -129.08052,-0.0992 -121.87298,-0.22049 z"
       style="opacity:1;fill:#000000;fill-opacity:1;stroke:#000000;stroke-width:0.3276155;stroke-miterlimit:4;stroke-dasharray:none;stroke-opacity:1" />
    <path
       inkscape:connector-curvature="0"
       id="path866"
       d="m 540.01546,766.04505 c -5.40566,-0.12565 -10.56561,-0.26913 -11.46654,-0.31884 l -1.63809,-0.0904 1.63809,-0.27267 c 6.76686,-1.12641 266.95413,-1.18416 275.5246,-0.0611 l 1.96575,0.25757 -2.94855,0.25831 c -3.70725,0.32479 -249.73635,0.53723 -263.07526,0.22715 z"
       style="opacity:1;fill:#000000;fill-opacity:1;stroke:#000000;stroke-width:0.3276155;stroke-miterlimit:4;stroke-dasharray:none;stroke-opacity:1" />
    <path
       inkscape:connector-curvature="0"
       id="path872"
       d="m 546.89538,780.13597 c -20.35997,-0.31508 -19.02753,-0.26652 -18.61559,-0.67845 0.64674,-0.64676 42.93409,-0.93192 138.19526,-0.93192 89.98885,0 137.29645,0.29084 138.16045,0.84938 0.24532,0.15855 -1.21943,0.372 -3.51045,0.51158 -5.2614,0.32052 -235.06604,0.54597 -254.22967,0.24941 z"
       style="opacity:1;fill:#000000;fill-opacity:1;stroke:#000000;stroke-width:0.3276155;stroke-miterlimit:4;stroke-dasharray:none;stroke-opacity:1" />
    <path
       inkscape:connector-curvature="0"
       id="path874"
       d="m 556.23242,794.17777 c -27.63988,-0.27159 -33.90861,-0.58079 -22.76927,-1.12307 8.16439,-0.39746 257.75537,-0.40121 266.02382,-0.004 4.59113,0.22056 5.92373,0.37197 5.07803,0.577 -3.30225,0.80054 -182.45546,1.19737 -248.33258,0.55007 z"
       style="opacity:1;fill:#000000;fill-opacity:1;stroke:#000000;stroke-width:0.3276155;stroke-miterlimit:4;stroke-dasharray:none;stroke-opacity:1" />
  </g>
</svg>
