<?xml version="1.0" standalone="no"?>
<!DOCTYPE svg PUBLIC "-//W3C//DTD SVG 20010904//EN"
 "http://www.w3.org/TR/2001/REC-SVG-20010904/DTD/svg10.dtd">
<svg version="1.0" xmlns="http://www.w3.org/2000/svg"
 width="481.000000pt" height="132.000000pt" viewBox="0 0 481.000000 132.000000"
 preserveAspectRatio="xMidYMid meet">
<metadata>
Created by potrace 1.16, written by Peter Selinger 2001-2019
</metadata>
<g transform="translate(0.000000,132.000000) scale(0.100000,-0.100000)"
fill="#000000" stroke="none">
<path d="M331 1284 c-69 -58 -171 -221 -201 -321 -12 -39 -16 -43 -46 -43 -30
0 -34 -4 -46 -42 -17 -59 -17 -345 0 -420 13 -56 15 -58 46 -58 31 0 33 -3 60
-72 34 -89 100 -197 159 -260 l44 -48 1365 0 1366 0 46 51 c26 28 63 78 83
110 33 55 39 59 72 59 29 -1 40 -7 56 -33 11 -17 35 -42 54 -54 33 -23 38 -23
327 -23 l293 0 3 -27 c5 -43 58 -35 58 8 0 18 11 19 198 19 l199 0 40 29 c38
27 113 127 113 150 0 6 9 11 20 11 30 0 25 -12 -35 -79 -56 -63 -63 -91 -20
-91 53 0 149 148 187 289 28 102 30 323 5 426 -36 142 -141 305 -197 305 -39
0 -34 -29 12 -78 57 -60 75 -92 54 -92 -8 0 -25 17 -38 38 -28 47 -73 99 -112
130 -28 21 -37 22 -227 22 -188 0 -199 1 -199 19 0 24 -25 45 -45 37 -8 -3
-15 -17 -15 -31 l0 -25 -293 0 c-329 0 -343 -3 -382 -73 -17 -32 -25 -37 -55
-36 -32 0 -39 6 -80 70 -25 39 -66 91 -92 115 l-47 44 -1350 0 -1350 0 -30
-26z m3590 -219 c-73 -30 -96 -35 -168 -35 l-83 0 0 35 0 35 168 0 167 -1 -84
-34z m244 -83 c26 -130 31 -426 11 -574 -18 -128 -32 -178 -49 -178 -31 0
-212 79 -210 92 1 7 8 33 15 58 19 69 16 508 -4 579 l-16 53 37 15 c145 61
176 70 188 56 6 -8 19 -53 28 -101z m-1150 28 c0 -13 -155 -15 -1327 -18
-1357 -2 -1355 -2 -1321 31 3 4 601 6 1327 5 1166 -3 1321 -5 1321 -18z m322
-124 c19 -53 27 -99 30 -184 6 -131 -5 -205 -49 -309 -34 -83 -56 -109 -27
-33 60 157 64 416 8 577 -10 31 -19 61 -19 67 1 19 31 -43 57 -118z m-1638
-96 c42 -29 63 -74 63 -130 0 -96 -65 -160 -162 -160 -96 0 -160 64 -160 160
0 136 147 210 259 130z m-1133 14 c101 -48 113 -210 21 -276 -46 -33 -135 -37
-181 -9 -102 64 -106 211 -6 278 40 28 116 31 166 7z m2305 -7 c37 -24 79 -97
79 -137 0 -14 -10 -46 -22 -70 -60 -118 -209 -123 -285 -11 -52 77 -13 193 77
233 36 16 117 8 151 -15z m144 -487 c0 -13 -154 -15 -1325 -15 -1255 0 -1325
1 -1328 18 -3 16 63 17 1325 15 1173 -3 1328 -5 1328 -18z m906 -55 l84 -34
-167 -1 -168 0 0 35 0 35 83 0 c72 0 95 -5 168 -35z"/>
</g>
</svg>
