<?xml version="1.0" encoding="UTF-8" standalone="no"?>
<svg
   xmlns:dc="http://purl.org/dc/elements/1.1/"
   xmlns:cc="http://creativecommons.org/ns#"
   xmlns:rdf="http://www.w3.org/1999/02/22-rdf-syntax-ns#"
   xmlns:svg="http://www.w3.org/2000/svg"
   xmlns="http://www.w3.org/2000/svg"
   xmlns:sodipodi="http://sodipodi.sourceforge.net/DTD/sodipodi-0.dtd"
   xmlns:inkscape="http://www.inkscape.org/namespaces/inkscape"
   version="1.0"
   width="124pt"
   height="293pt"
   viewBox="0 0 124 293"
   preserveAspectRatio="xMidYMid meet"
   id="svg10"
   sodipodi:docname="truck1move.svg"
   inkscape:version="0.92.5 (2060ec1f9f, 2020-04-08)">
  <defs
     id="defs14" />
  <sodipodi:namedview
     pagecolor="#ffffff"
     bordercolor="#666666"
     borderopacity="1"
     objecttolerance="10"
     gridtolerance="10"
     guidetolerance="10"
     inkscape:pageopacity="0"
     inkscape:pageshadow="2"
     inkscape:window-width="1440"
     inkscape:window-height="792"
     id="namedview12"
     showgrid="false"
     inkscape:zoom="1.133959"
     inkscape:cx="195.33332"
     inkscape:cy="153.21595"
     inkscape:window-x="1920"
     inkscape:window-y="27"
     inkscape:window-maximized="1"
     inkscape:current-layer="svg10" />
  <metadata
     id="metadata2">
Created by potrace 1.16, written by Peter Selinger 2001-2019
<rdf:RDF>
  <cc:Work
     rdf:about="">
    <dc:format>image/svg+xml</dc:format>
    <dc:type
       rdf:resource="http://purl.org/dc/dcmitype/StillImage" />
    <dc:title></dc:title>
  </cc:Work>
</rdf:RDF>
</metadata>
  <g
     id="g20"
     transform="rotate(-90.169992,62.884568,230.70628)">
    <g
       style="fill:#006300;fill-opacity:1;stroke:#000000;stroke-width:7.5;stroke-miterlimit:4;stroke-dasharray:none;stroke-opacity:1"
       id="g8"
       transform="matrix(0.1,0,0,-0.1,0,293.00001)">
      <path
         inkscape:connector-curvature="0"
         style="fill:#006300;fill-opacity:1;stroke:#000000;stroke-width:7.5;stroke-miterlimit:4;stroke-dasharray:none;stroke-opacity:1"
         id="path4"
         d="m 2301,1198 c 5,-18 9,-36 9,-40 0,-5 -108,-8 -240,-8 -207,0 -246,-2 -278,-17 l -37,-17 100,-6 c 102,-5 120,-10 143,-42 12,-16 30,-18 150,-19 117,-1 128,-3 75,-10 -34,-4 -95,-9 -135,-11 l -73,-3 -3,-396 -2,-396 137,-14 138,-14 -134,-3 -134,-3 -27,-29 c -27,-29 -30,-30 -126,-30 -94,0 -97,-1 -81,-18 16,-15 46,-17 272,-20 140,-2 255,-6 255,-10 0,-4 -4,-22 -9,-40 -5,-17 -6,-32 -1,-32 10,0 60,58 60,71 0,5 62,9 142,9 208,0 229,13 326,201 65,128 87,230 79,371 -3,57 -13,125 -21,151 -25,78 -113,233 -153,267 -60,53 -88,60 -238,60 -76,0 -135,4 -135,9 0,13 -50,71 -60,71 -5,0 -4,-15 1,-32 z m 380,-151 c 23,-15 52,-54 86,-117 29,-52 53,-99 53,-104 0,-14 -54,4 -78,27 -29,26 -33,35 -77,137 -19,44 -31,80 -26,80 4,0 23,-10 42,-23 z m -268,-35 c 27,-29 66,-124 83,-200 24,-107 15,-340 -16,-437 -26,-82 -57,-142 -78,-150 -17,-6 -293,43 -305,54 -4,4 -6,162 -5,352 l 3,344 140,27 c 172,32 159,31 178,10 z m 397,-606 c -19,-52 -91,-184 -107,-199 -16,-14 -73,-41 -73,-34 0,11 82,192 92,205 17,20 69,52 85,52 9,0 10,-7 3,-24 z" />
      <path
         inkscape:connector-curvature="0"
         style="fill:#006300;fill-opacity:1;stroke:#000000;stroke-width:7.5;stroke-miterlimit:4;stroke-dasharray:none;stroke-opacity:1"
         id="path6"
         d="M 30,1141 C 24,1128 20,947 20,623 20,208 22,121 34,104 48,86 69,85 832,83 c 852,-3 828,-5 838,52 l 5,30 139,3 c 82,1 145,7 153,14 18,15 19,868 1,886 -8,8 -57,12 -155,12 h -143 v 28 c 0,15 -5,33 -12,40 -9,9 -204,12 -815,12 -783,0 -803,0 -813,-19 z" />
    </g>
    <path
       inkscape:connector-curvature="0"
       id="path821"
       d="m 233.93703,269.28658 c -5.05469,-0.80785 -21.24702,-3.88136 -22.65294,-4.29982 -1.08301,-0.32236 -1.15745,-2.54872 -1.15745,-34.61728 v -34.27277 l 12.44157,-2.39034 c 16.2953,-3.13074 16.78273,-3.12251 19.28049,0.32555 2.439,3.36694 5.45583,11.13425 7.0371,18.1182 0.92775,4.09753 1.18879,7.97695 1.15713,17.19639 -0.0571,16.61528 -1.76919,26.01826 -6.40227,35.16121 -2.91872,5.75981 -3.07723,5.83788 -9.70363,4.77886 z"
       style="opacity:1;fill:#000000;fill-opacity:1;stroke:#000000;stroke-width:0.66139954;stroke-miterlimit:4;stroke-dasharray:none;stroke-opacity:1" />
    <path
       inkscape:connector-curvature="0"
       id="path823"
       d="m 275.54101,207.68567 c -1.54695,-1.18225 -3.49625,-3.48888 -4.33179,-5.12584 -1.98207,-3.88324 -6.18642,-13.84243 -6.18642,-14.6543 0,-1.25613 3.92022,1.71991 6.16658,4.68136 1.99396,2.62871 9.70702,16.08993 9.70702,16.94119 0,1.01056 -2.95057,-0.004 -5.35539,-1.84241 z"
       style="opacity:1;fill:#000000;fill-opacity:1;stroke:#000000;stroke-width:0.66139954;stroke-miterlimit:4;stroke-dasharray:none;stroke-opacity:1" />
    <path
       inkscape:connector-curvature="0"
       id="path825"
       d="m 264.36141,274.23983 c 0,-0.54372 3.1843,-7.85307 5.87116,-13.47684 2.31643,-4.84847 3.14779,-5.92385 6.04296,-7.81674 1.84635,-1.20716 3.67026,-2.09042 4.05312,-1.9628 1.09572,0.36524 -7.99491,17.6808 -10.70535,20.39124 -2.05077,2.05077 -5.26189,3.79925 -5.26189,2.86514 z"
       style="opacity:1;fill:#000000;fill-opacity:1;stroke:#000000;stroke-width:0.66139954;stroke-miterlimit:4;stroke-dasharray:none;stroke-opacity:1" />
    <path
       inkscape:connector-curvature="0"
       id="path827"
       d="m 201.06525,204.54402 c 0,-2.00073 0.12399,-2.81921 0.27553,-1.81884 0.15154,1.00036 0.15154,2.63733 0,3.63769 -0.15154,1.00037 -0.27553,0.18189 -0.27553,-1.81885 z"
       style="opacity:1;fill:#000000;fill-opacity:1;stroke:#000000;stroke-width:0.66139954;stroke-miterlimit:4;stroke-dasharray:none;stroke-opacity:1" />
  </g>
</svg>
