<?xml version="1.0" encoding="UTF-8" standalone="no"?>
<svg
   xmlns:dc="http://purl.org/dc/elements/1.1/"
   xmlns:cc="http://creativecommons.org/ns#"
   xmlns:rdf="http://www.w3.org/1999/02/22-rdf-syntax-ns#"
   xmlns:svg="http://www.w3.org/2000/svg"
   xmlns="http://www.w3.org/2000/svg"
   xmlns:sodipodi="http://sodipodi.sourceforge.net/DTD/sodipodi-0.dtd"
   xmlns:inkscape="http://www.inkscape.org/namespaces/inkscape"
   version="1.0"
   width="124pt"
   height="293pt"
   viewBox="0 0 124 293"
   preserveAspectRatio="xMidYMid meet"
   id="svg10"
   sodipodi:docname="truck1stop.svg"
   inkscape:version="0.92.5 (2060ec1f9f, 2020-04-08)">
  <defs
     id="defs14" />
  <sodipodi:namedview
     pagecolor="#ffffff"
     bordercolor="#666666"
     borderopacity="1"
     objecttolerance="10"
     gridtolerance="10"
     guidetolerance="10"
     inkscape:pageopacity="0"
     inkscape:pageshadow="2"
     inkscape:window-width="1440"
     inkscape:window-height="792"
     id="namedview12"
     showgrid="false"
     inkscape:zoom="1.133959"
     inkscape:cx="197.09705"
     inkscape:cy="148.80662"
     inkscape:window-x="1920"
     inkscape:window-y="27"
     inkscape:window-maximized="1"
     inkscape:current-layer="svg10" />
  <metadata
     id="metadata2">
Created by potrace 1.16, written by Peter Selinger 2001-2019
<rdf:RDF>
  <cc:Work
     rdf:about="">
    <dc:format>image/svg+xml</dc:format>
    <dc:type
       rdf:resource="http://purl.org/dc/dcmitype/StillImage" />
    <dc:title></dc:title>
  </cc:Work>
</rdf:RDF>
</metadata>
  <g
     id="g24"
     transform="rotate(-89.836258,61.979527,230.95184)">
    <g
       style="fill:#006300;fill-opacity:1;stroke:#000000;stroke-width:7.5;stroke-miterlimit:4;stroke-dasharray:none;stroke-opacity:1"
       id="g8"
       transform="matrix(0.1,0,0,-0.1,0,293.00001)">
      <path
         inkscape:connector-curvature="0"
         style="fill:#006300;fill-opacity:1;stroke:#000000;stroke-width:7.5;stroke-miterlimit:4;stroke-dasharray:none;stroke-opacity:1"
         id="path4"
         d="m 2301,1198 c 5,-18 9,-36 9,-40 0,-5 -108,-8 -240,-8 -207,0 -246,-2 -278,-17 l -37,-17 100,-6 c 102,-5 120,-10 143,-42 12,-16 30,-18 150,-19 117,-1 128,-3 75,-10 -34,-4 -95,-9 -135,-11 l -73,-3 -3,-396 -2,-396 137,-14 138,-14 -134,-3 -134,-3 -27,-29 c -27,-29 -30,-30 -126,-30 -94,0 -97,-1 -81,-18 16,-15 46,-17 272,-20 140,-2 255,-6 255,-10 0,-4 -4,-22 -9,-40 -5,-17 -6,-32 -1,-32 10,0 60,58 60,71 0,5 62,9 142,9 208,0 229,13 326,201 65,128 87,230 79,371 -3,57 -13,125 -21,151 -25,78 -113,233 -153,267 -60,53 -88,60 -238,60 -76,0 -135,4 -135,9 0,13 -50,71 -60,71 -5,0 -4,-15 1,-32 z m 380,-151 c 23,-15 52,-54 86,-117 29,-52 53,-99 53,-104 0,-14 -54,4 -78,27 -29,26 -33,35 -77,137 -19,44 -31,80 -26,80 4,0 23,-10 42,-23 z m -268,-35 c 27,-29 66,-124 83,-200 24,-107 15,-340 -16,-437 -26,-82 -57,-142 -78,-150 -17,-6 -293,43 -305,54 -4,4 -6,162 -5,352 l 3,344 140,27 c 172,32 159,31 178,10 z m 397,-606 c -19,-52 -91,-184 -107,-199 -16,-14 -73,-41 -73,-34 0,11 82,192 92,205 17,20 69,52 85,52 9,0 10,-7 3,-24 z" />
      <path
         inkscape:connector-curvature="0"
         style="fill:#006300;fill-opacity:1;stroke:#000000;stroke-width:7.5;stroke-miterlimit:4;stroke-dasharray:none;stroke-opacity:1"
         id="path6"
         d="M 30,1141 C 24,1128 20,947 20,623 20,208 22,121 34,104 48,86 69,85 832,83 c 852,-3 828,-5 838,52 l 5,30 139,3 c 82,1 145,7 153,14 18,15 19,868 1,886 -8,8 -57,12 -155,12 h -143 v 28 c 0,15 -5,33 -12,40 -9,9 -204,12 -815,12 -783,0 -803,0 -813,-19 z" />
    </g>
    <path
       inkscape:connector-curvature="0"
       id="path821"
       d="m 233.93703,269.28658 c -5.05469,-0.80785 -21.24702,-3.88136 -22.65294,-4.29982 -1.08301,-0.32236 -1.15745,-2.54872 -1.15745,-34.61728 v -34.27277 l 12.44157,-2.39034 c 16.2953,-3.13074 16.78273,-3.12251 19.28049,0.32555 2.439,3.36694 5.45583,11.13425 7.0371,18.1182 0.92775,4.09753 1.18879,7.97695 1.15713,17.19639 -0.0571,16.61528 -1.76919,26.01826 -6.40227,35.16121 -2.91872,5.75981 -3.07723,5.83788 -9.70363,4.77886 z"
       style="opacity:1;fill:#000000;fill-opacity:1;stroke:#000000;stroke-width:0.66139954;stroke-miterlimit:4;stroke-dasharray:none;stroke-opacity:1" />
    <path
       inkscape:connector-curvature="0"
       id="path823"
       d="m 275.54101,207.68567 c -1.54695,-1.18225 -3.49625,-3.48888 -4.33179,-5.12584 -1.98207,-3.88324 -6.18642,-13.84243 -6.18642,-14.6543 0,-1.25613 3.92022,1.71991 6.16658,4.68136 1.99396,2.62871 9.70702,16.08993 9.70702,16.94119 0,1.01056 -2.95057,-0.004 -5.35539,-1.84241 z"
       style="opacity:1;fill:#000000;fill-opacity:1;stroke:#000000;stroke-width:0.66139954;stroke-miterlimit:4;stroke-dasharray:none;stroke-opacity:1" />
    <path
       inkscape:connector-curvature="0"
       id="path825"
       d="m 264.36141,274.23983 c 0,-0.54372 3.1843,-7.85307 5.87116,-13.47684 2.31643,-4.84847 3.14779,-5.92385 6.04296,-7.81674 1.84635,-1.20716 3.67026,-2.09042 4.05312,-1.9628 1.09572,0.36524 -7.99491,17.6808 -10.70535,20.39124 -2.05077,2.05077 -5.26189,3.79925 -5.26189,2.86514 z"
       style="opacity:1;fill:#000000;fill-opacity:1;stroke:#000000;stroke-width:0.66139954;stroke-miterlimit:4;stroke-dasharray:none;stroke-opacity:1" />
    <path
       inkscape:connector-curvature="0"
       id="path827"
       d="m 201.06525,204.54402 c 0,-2.00073 0.12399,-2.81921 0.27553,-1.81884 0.15154,1.00036 0.15154,2.63733 0,3.63769 -0.15154,1.00037 -0.27553,0.18189 -0.27553,-1.81885 z"
       style="opacity:1;fill:#800000;fill-opacity:1;stroke:#000000;stroke-width:0.66139954;stroke-miterlimit:4;stroke-dasharray:none;stroke-opacity:1" />
    <path
       inkscape:connector-curvature="0"
       id="path848"
       d="M 55.359144,283.9211 C 28.258297,283.7187 5.5614547,283.3034 4.9217177,282.99819 4.2819806,282.69299 3.5379061,281.65762 3.2682188,280.69738 2.9985314,279.73713 2.7778782,256.7142 2.7778782,229.5353 c 0,-46.55265 0.068421,-49.4846 1.1807533,-50.59707 1.1130273,-1.11315 4.6790865,-1.19391 62.1715595,-1.40792 70.517889,-0.26249 97.906329,0.19867 99.380999,1.67333 0.52969,0.5297 0.96308,2.0935 0.96308,3.47511 v 2.51202 l 14.60418,0.29904 c 11.13266,0.22796 14.73255,0.50675 15.14421,1.17282 1.02006,1.65049 1.51343,25.52459 1.14178,55.25047 -0.20466,16.36964 -0.56836,30.40072 -0.80824,31.18018 -0.57888,1.8811 -1.88581,2.08717 -16.64968,2.62531 -7.83304,0.28551 -12.62011,0.72316 -12.92607,1.18176 -0.26727,0.40058 -0.49048,1.53996 -0.49605,2.53194 -0.0196,3.48985 -1.89408,3.97889 -17.42063,4.54489 -7.70329,0.28081 -20.85146,0.46587 -29.21817,0.41123 -8.3667,-0.0546 -37.38561,-0.26492 -64.486456,-0.46731 z"
       style="opacity:1;fill:#800000;fill-opacity:1;stroke:#000000;stroke-width:0.66139954;stroke-miterlimit:4;stroke-dasharray:none;stroke-opacity:1" />
    <path
       inkscape:connector-curvature="0"
       id="path850"
       d="m 230.23995,289.64141 c 0.21612,-0.6684 0.57387,-2.34675 0.79501,-3.72966 l 0.40206,-2.51439 -3.87584,-0.38519 c -2.13172,-0.21186 -12.95356,-0.5659 -24.04853,-0.78677 -19.62429,-0.39068 -26.45232,-1.04153 -24.42006,-2.32778 0.5172,-0.32736 4.30349,-0.59974 8.41396,-0.60531 8.17221,-0.011 9.71495,-0.47664 12.98819,-3.91947 l 1.94259,-2.04326 h 12.73452 c 7.77623,0 12.89367,-0.25752 13.14328,-0.66139 0.22482,-0.36378 0.16798,-0.66616 -0.12632,-0.67197 -0.29429,-0.006 -6.04123,-0.6003 -12.77097,-1.32111 -6.72974,-0.7208 -12.60793,-1.3113 -13.06264,-1.31223 -0.93963,-0.002 -1.16836,-36.99341 -0.39341,-63.62166 l 0.43335,-14.89016 8.99159,-0.42614 c 9.73207,-0.46123 13.9521,-0.99021 13.9521,-1.7489 0,-0.76434 -6.25422,-1.31639 -14.98426,-1.32264 l -8.03957,-0.006 -2.74261,-2.29138 c -3.14421,-2.62692 -4.3451,-2.92574 -14.27427,-3.55197 -6.75063,-0.42576 -7.1356,-0.52297 -5.59586,-1.41306 1.31378,-0.75945 6.66842,-1.05724 26.06207,-1.44936 14.40916,-0.29134 24.67493,-0.75989 25.05877,-1.14373 0.42602,-0.42602 0.40245,-1.62634 -0.0683,-3.48116 -0.39521,-1.55702 -0.62669,-2.92282 -0.5144,-3.03511 0.24613,-0.24614 4.41829,4.44051 5.35017,6.00994 0.57022,0.96032 2.62183,1.18912 14.8815,1.65957 15.57528,0.59768 16.9955,0.94623 22.09331,5.42217 3.00387,2.63744 8.38469,11.09136 12.37101,19.43634 4.23095,8.85711 5.52253,16.48022 5.04312,29.76518 -0.41821,11.58904 -1.8014,17.07099 -7.04416,27.918 -6.50313,13.45458 -10.44985,18.22953 -16.64378,20.13648 -1.24345,0.38283 -8.46668,0.90576 -16.05163,1.16208 l -13.79082,0.46602 -1.42137,1.96434 c -2.35973,3.26117 -5.23156,6.09201 -4.78775,4.71942 z m 38.51368,-15.70799 c 2.44341,-1.5101 5.73078,-6.72062 10.61825,-16.82998 3.3911,-7.01424 3.29601,-8.4785 -0.44982,-6.92693 -4.70969,1.95081 -7.27482,4.5395 -9.695,9.78399 -3.10643,6.73158 -6.84985,15.38004 -6.84985,15.82526 0,0.71103 4.20559,-0.51068 6.37642,-1.85234 z m -27.67382,-3.62783 c 3.28157,-2.2985 7.56579,-13.28955 9.08823,-23.31559 1.27715,-8.41067 1.29486,-28.67325 0.0302,-34.50918 -1.36069,-6.27891 -4.8643,-15.49518 -7.24441,-19.05649 -1.83018,-2.73846 -2.38091,-3.12117 -4.71766,-3.27836 -1.45508,-0.0979 -8.5982,0.95682 -15.87359,2.34377 l -13.22799,2.52173 -0.17115,34.77416 c -0.14715,29.89577 -0.0351,34.88709 0.7988,35.57915 1.01859,0.84535 12.3283,3.26029 22.89951,4.88966 3.4297,0.52864 6.39281,0.99035 6.5847,1.02605 0.19189,0.0357 1.01692,-0.40301 1.8334,-0.9749 z m 41.13939,-60.19047 c 0,-1.0389 -6.21998,-12.70972 -8.78527,-16.48419 -0.7417,-1.09131 -2.11914,-2.82994 -3.06099,-3.86362 -1.93257,-2.12102 -6.43854,-4.6568 -6.91243,-3.89004 -0.39499,0.63911 1.51517,6.08244 4.29597,12.24212 3.36967,7.46406 5.51321,10.18362 9.50221,12.05567 2.70434,1.26914 4.96051,1.24188 4.96051,-0.0599 z"
       style="opacity:1;fill:#800000;fill-opacity:1;stroke:#000000;stroke-width:0.66139954;stroke-miterlimit:4;stroke-dasharray:none;stroke-opacity:1" />
  </g>
</svg>
