<?xml version="1.0" standalone="no"?>
<!DOCTYPE svg PUBLIC "-//W3C//DTD SVG 20010904//EN"
 "http://www.w3.org/TR/2001/REC-SVG-20010904/DTD/svg10.dtd">
<svg version="1.0" xmlns="http://www.w3.org/2000/svg"
 width="266.000000pt" height="114.000000pt" viewBox="0 0 266.000000 114.000000"
 preserveAspectRatio="xMidYMid meet">
<metadata>
Created by potrace 1.16, written by Peter Selinger 2001-2019
</metadata>
<g transform="translate(0.000000,114.000000) scale(0.100000,-0.100000)"
fill="#000000" stroke="none">
<path d="M543 1095 l-29 -35 -133 -4 c-125 -4 -135 -6 -178 -33 -36 -22 -56
-47 -94 -113 -64 -112 -89 -193 -96 -311 -6 -109 12 -214 51 -289 13 -25 34
-64 46 -88 29 -56 74 -100 125 -123 32 -15 66 -19 162 -19 l122 0 17 -30 c27
-45 46 -48 38 -5 l-6 35 983 0 c917 0 986 1 1018 18 19 9 44 30 55 45 20 28
21 40 21 422 0 382 -1 394 -21 421 -11 15 -33 37 -48 48 -27 21 -33 21 -1018
21 l-990 0 6 38 c4 20 4 37 2 37 -3 0 -18 -16 -33 -35z m1947 -145 c0 -12
-1754 -12 -1840 0 -30 4 371 8 893 9 625 1 947 -2 947 -9z m-1865 -31 c66 -12
124 -25 129 -29 4 -5 8 -152 8 -327 l-1 -318 -118 -22 c-170 -32 -168 -32
-196 25 -55 108 -62 146 -62 322 0 147 3 172 24 235 29 86 58 135 79 135 9 0
70 -10 137 -21z m1865 -729 c0 -7 -318 -9 -937 -8 -516 1 -911 4 -878 8 102
11 1815 11 1815 0z"/>
</g>
</svg>
