<?xml version="1.0" encoding="UTF-8" standalone="no"?>
<svg
   xmlns:dc="http://purl.org/dc/elements/1.1/"
   xmlns:cc="http://creativecommons.org/ns#"
   xmlns:rdf="http://www.w3.org/1999/02/22-rdf-syntax-ns#"
   xmlns:svg="http://www.w3.org/2000/svg"
   xmlns="http://www.w3.org/2000/svg"
   xmlns:sodipodi="http://sodipodi.sourceforge.net/DTD/sodipodi-0.dtd"
   xmlns:inkscape="http://www.inkscape.org/namespaces/inkscape"
   version="1.0"
   width="114pt"
   height="266pt"
   viewBox="0 0 114 266"
   preserveAspectRatio="xMidYMid meet"
   id="svg8"
   sodipodi:docname="van1stop.svg"
   inkscape:version="0.92.5 (2060ec1f9f, 2020-04-08)">
  <defs
     id="defs12" />
  <sodipodi:namedview
     pagecolor="#ffffff"
     bordercolor="#666666"
     borderopacity="1"
     objecttolerance="10"
     gridtolerance="10"
     guidetolerance="10"
     inkscape:pageopacity="0"
     inkscape:pageshadow="2"
     inkscape:window-width="1440"
     inkscape:window-height="792"
     id="namedview10"
     showgrid="false"
     inkscape:zoom="1.7664378"
     inkscape:cx="184.82187"
     inkscape:cy="271.55907"
     inkscape:window-x="1920"
     inkscape:window-y="27"
     inkscape:window-maximized="1"
     inkscape:current-layer="svg8" />
  <metadata
     id="metadata2">
Created by potrace 1.16, written by Peter Selinger 2001-2019
<rdf:RDF>
  <cc:Work
     rdf:about="">
    <dc:format>image/svg+xml</dc:format>
    <dc:type
       rdf:resource="http://purl.org/dc/dcmitype/StillImage" />
    <dc:title></dc:title>
  </cc:Work>
</rdf:RDF>
</metadata>
  <g
     id="g16"
     transform="rotate(89.977016,132.64607,133.39895)">
    <g
       style="fill:#800000;fill-opacity:1;stroke:#000000;stroke-width:7.5;stroke-miterlimit:4;stroke-dasharray:none;stroke-opacity:1"
       id="g6"
       transform="matrix(0.1,0,0,-0.1,0,266)">
      <path
         inkscape:connector-curvature="0"
         style="fill:#800000;fill-opacity:1;stroke:#000000;stroke-width:7.5;stroke-miterlimit:4;stroke-dasharray:none;stroke-opacity:1"
         id="path4"
         d="m 543,1095 -29,-35 -133,-4 C 256,1052 246,1050 203,1023 167,1001 147,976 109,910 45,798 20,717 13,599 7,490 25,385 64,310 77,285 98,246 110,222 139,166 184,122 235,99 267,84 301,80 397,80 H 519 L 536,50 C 563,5 582,2 574,45 l -6,35 h 983 c 917,0 986,1 1018,18 19,9 44,30 55,45 20,28 21,40 21,422 0,382 -1,394 -21,421 -11,15 -33,37 -48,48 -27,21 -33,21 -1018,21 H 568 l 6,38 c 4,20 4,37 2,37 -3,0 -18,-16 -33,-35 z M 2490,950 c 0,-12 -1754,-12 -1840,0 -30,4 371,8 893,9 625,1 947,-2 947,-9 z M 625,919 c 66,-12 124,-25 129,-29 4,-5 8,-152 8,-327 L 761,245 643,223 c -170,-32 -168,-32 -196,25 -55,108 -62,146 -62,322 0,147 3,172 24,235 29,86 58,135 79,135 9,0 70,-10 137,-21 z M 2490,190 c 0,-7 -318,-9 -937,-8 -516,1 -911,4 -878,8 102,11 1815,11 1815,0 z" />
    </g>
    <path
       inkscape:connector-curvature="0"
       id="path822"
       d="m 49.26661,245.1654 c -1.980123,-0.33172 -2.319249,-0.73601 -4.77934,-5.69777 -4.984839,-10.05392 -5.593979,-13.90011 -5.339267,-33.71289 0.1706,-13.27015 0.24832,-13.92504 2.426088,-20.44234 2.443507,-7.31256 5.55306,-12.78861 7.261966,-12.78861 2.059775,0 21.512256,3.49244 25.093668,4.50524 l 1.095394,0.30978 0.241177,4.1224 c 0.132653,2.26732 0.24768,16.61539 0.255623,31.8846 l 0.01448,27.7622 -1.200906,0.21278 c -0.660496,0.11703 -5.321501,0.97183 -10.357787,1.89956 -9.741775,1.79452 -13.021293,2.22812 -14.711061,1.94505 z"
       style="opacity:1;fill:#000000;fill-opacity:1;stroke:#000000;stroke-width:0.30022573;stroke-miterlimit:4;stroke-dasharray:none;stroke-opacity:1" />
    <path
       inkscape:connector-curvature="0"
       id="path824"
       d="m 99.704536,171.02266 c 0,-0.19942 22.504494,-0.28136 67.025394,-0.24405 36.86397,0.0309 63.3101,0.14792 58.76919,0.26005 -13.75432,0.33964 -125.794584,0.32539 -125.794584,-0.016 z"
       style="opacity:1;fill:#000000;fill-opacity:1;stroke:#000000;stroke-width:0.30022573;stroke-miterlimit:4;stroke-dasharray:none;stroke-opacity:1" />
    <path
       inkscape:connector-curvature="0"
       id="path826"
       d="m 112.46413,246.97977 c -0.20971,-0.33931 87.83936,-0.35229 106.73025,-0.0157 6.35099,0.11314 -14.41621,0.22573 -47.64312,0.25827 -39.00626,0.0382 -58.96426,-0.0437 -59.08713,-0.24254 z"
       style="opacity:1;fill:#000000;fill-opacity:1;stroke:#000000;stroke-width:0.30022573;stroke-miterlimit:4;stroke-dasharray:none;stroke-opacity:1" />
  </g>
</svg>
