<?xml version="1.0" encoding="UTF-8" standalone="no"?>
<svg
   xmlns:dc="http://purl.org/dc/elements/1.1/"
   xmlns:cc="http://creativecommons.org/ns#"
   xmlns:rdf="http://www.w3.org/1999/02/22-rdf-syntax-ns#"
   xmlns:svg="http://www.w3.org/2000/svg"
   xmlns="http://www.w3.org/2000/svg"
   xmlns:sodipodi="http://sodipodi.sourceforge.net/DTD/sodipodi-0.dtd"
   xmlns:inkscape="http://www.inkscape.org/namespaces/inkscape"
   version="1.0"
   width="103pt"
   height="239pt"
   viewBox="0 0 103 239"
   preserveAspectRatio="xMidYMid meet"
   id="svg8"
   sodipodi:docname="wagon1move.svg"
   inkscape:version="0.92.5 (2060ec1f9f, 2020-04-08)">
  <defs
     id="defs12" />
  <sodipodi:namedview
     pagecolor="#ffffff"
     bordercolor="#666666"
     borderopacity="1"
     objecttolerance="10"
     gridtolerance="10"
     guidetolerance="10"
     inkscape:pageopacity="0"
     inkscape:pageshadow="2"
     inkscape:window-width="1440"
     inkscape:window-height="792"
     id="namedview10"
     showgrid="false"
     inkscape:zoom="1.9659935"
     inkscape:cx="165.02715"
     inkscape:cy="199.49477"
     inkscape:window-x="1920"
     inkscape:window-y="27"
     inkscape:window-maximized="1"
     inkscape:current-layer="svg8" />
  <metadata
     id="metadata2">
Created by potrace 1.16, written by Peter Selinger 2001-2019
<rdf:RDF>
  <cc:Work
     rdf:about="">
    <dc:format>image/svg+xml</dc:format>
    <dc:type
       rdf:resource="http://purl.org/dc/dcmitype/StillImage" />
    <dc:title></dc:title>
  </cc:Work>
</rdf:RDF>
</metadata>
  <g
     id="g32"
     transform="rotate(89.967871,52.621252,51.620914)">
    <g
       style="fill:#006300;fill-opacity:1;stroke:#000000;stroke-width:7.50000048;stroke-miterlimit:4;stroke-dasharray:none;stroke-opacity:1"
       id="g6"
       transform="matrix(0.1,0,0,-0.1,0,103)">
      <path
         style="fill:#006300;fill-opacity:1;stroke:#000000;stroke-width:7.50000048;stroke-miterlimit:4;stroke-dasharray:none;stroke-opacity:1"
         id="path4"
         d="M 768,995 746,970 H 473 C 166,970 158,968 98,902 40,838 25,753 25,500 26,210 51,131 160,73 202,51 211,50 474,50 h 270 l 29,-27 30,-28 -7,27 -6,28 731,2 731,3 43,47 c 29,32 47,64 58,105 26,94 40,247 33,372 -12,202 -41,305 -101,361 l -27,25 -734,3 -734,2 6,25 c 8,32 0,32 -28,0 z M 225,928 C 212,884 156,800 108,753 62,708 60,707 60,731 c 0,43 29,127 55,157 24,29 78,61 103,62 9,0 11,-7 7,-22 z m 1109,-70 c 12,-48 12,-48 -106,-48 -80,0 -163,9 -288,30 -96,17 -179,33 -185,35 -5,2 121,4 281,4 l 292,1 z m 456,3 c 0,-52 2,-51 -216,-51 -194,0 -204,1 -204,19 0,11 -3,26 -6,35 -5,14 17,16 210,16 206,0 216,-1 216,-19 z m 342,-17 c -72,-34 -73,-35 -195,-32 l -123,3 8,33 9,32 187,-1 187,-1 z M 870,830 c 90,-16 166,-30 168,-30 3,0 -7,-9 -20,-20 -43,-33 -60,-93 -66,-224 -7,-159 9,-246 53,-295 l 33,-37 -181,-33 -182,-33 -22,26 c -12,14 -34,63 -49,109 -23,70 -27,100 -27,207 -1,137 10,200 54,298 23,50 32,62 51,62 13,0 98,-13 188,-30 z m 1399,-2 c 41,-132 50,-421 17,-560 -27,-115 -27,-115 -116,-77 -41,17 -76,32 -77,33 -1,1 8,22 20,47 21,41 22,57 22,244 0,167 -3,206 -17,238 -9,20 -18,40 -18,44 -2,8 119,61 142,62 10,1 20,-11 27,-31 z M 118,683 C 106,620 103,453 114,365 l 8,-70 -34,33 -33,32 v 155 l 1,155 34,30 c 19,16 36,29 36,30 1,0 -3,-21 -8,-47 z m 86,-538 c 15,-31 25,-59 22,-62 -10,-10 -55,7 -86,33 -41,35 -68,89 -75,155 l -6,54 58,-62 c 33,-34 71,-87 87,-118 z m 1132,62 c 3,-3 2,-16 -2,-31 l -6,-26 -282,1 -281,1 125,24 c 146,29 429,48 446,31 z m 446,-2 c 4,-5 8,-20 8,-32 v -23 h -214 -214 l 5,23 c 3,12 6,27 8,32 1,6 77,10 201,10 121,0 202,-4 206,-10 z m 353,-24 70,-31 -189,3 -190,2 -7,27 c -4,15 -5,29 -2,32 3,2 59,3 126,1 110,-3 129,-6 192,-34 z"
         inkscape:connector-curvature="0" />
    </g>
    <path
       transform="scale(0.75000003)"
       inkscape:connector-curvature="0"
       id="path822"
       d="m 8.9737368,38.431516 c 0,-5.166131 4.4474082,-16.501576 7.7830312,-19.837199 3.293399,-3.293399 9.41964,-6.962243 11.67278,-6.990519 3.422966,-0.04296 -4.630718,14.005211 -13.627113,23.769987 -2.127308,2.309002 -4.309027,4.434305 -4.8482655,4.722897 -0.8975768,0.480368 -0.9804327,0.339646 -0.9804327,-1.665166 z"
       style="opacity:1;fill:#000000;fill-opacity:1;stroke:#000000;stroke-width:0.50864869;stroke-miterlimit:4;stroke-dasharray:none;stroke-opacity:1" />
    <path
       transform="scale(0.75000003)"
       inkscape:connector-curvature="0"
       id="path824"
       d="M 11.386388,92.083804 7.9564394,88.62737 v -20.090799 -20.0908 l 3.6877026,-3.119843 c 2.028237,-1.715914 3.763935,-2.912419 3.857108,-2.658899 0.09317,0.253519 -0.06523,1.555001 -0.352004,2.892182 -1.675803,7.814005 -1.994215,32.375551 -0.57391,44.270139 0.311098,2.605344 0.492591,4.956119 0.403317,5.223937 -0.08927,0.267824 -1.705794,-1.068447 -3.592265,-2.969483 z"
       style="opacity:1;fill:#000000;fill-opacity:1;stroke:#000000;stroke-width:0.50864869;stroke-miterlimit:4;stroke-dasharray:none;stroke-opacity:1" />
    <path
       transform="scale(0.75000003)"
       inkscape:connector-curvature="0"
       id="path826"
       d="m 25.195793,124.84112 c -3.574816,-1.47055 -5.209339,-2.63145 -8.186786,-5.81458 -4.088647,-4.3711 -6.997824,-11.62777 -7.7925102,-19.437693 L 8.8800782,96.28263 10.156214,97.554252 c 7.767678,7.740198 14.693027,17.002848 17.473553,23.370868 2.495079,5.71428 2.381558,5.89692 -2.433974,3.916 z"
       style="opacity:1;fill:#000000;fill-opacity:1;stroke:#000000;stroke-width:0.50864869;stroke-miterlimit:4;stroke-dasharray:none;stroke-opacity:1" />
    <path
       transform="scale(0.75000003)"
       inkscape:connector-curvature="0"
       id="path828"
       d="M 88.174679,112.88749 C 85.946399,109.96558 84.00205,105.81531 81.51774,98.678071 78.175093,89.074896 77.893499,86.84087 77.913931,70.087224 c 0.02034,-16.676681 0.542959,-21.352369 3.323514,-29.734162 2.183098,-6.5808 6.850745,-15.959074 8.263292,-16.602673 1.331696,-0.606761 9.466546,0.577371 32.701143,4.760075 l 14.80463,2.665136 -2.44967,2.185412 c -4.72481,4.215118 -7.02759,11.439006 -8.05912,25.281617 -1.36955,18.378671 -0.0676,31.662357 3.8967,39.758559 0.74069,1.512695 2.53542,4.058222 3.98827,5.656712 l 2.64156,2.90635 -22.95187,4.18604 c -12.62354,2.30232 -23.190964,4.19068 -23.483174,4.19635 -0.29221,0.006 -1.378747,-1.10094 -2.414527,-2.45915 z"
       style="opacity:1;fill:#000000;fill-opacity:1;stroke:#000000;stroke-width:0.50864869;stroke-miterlimit:4;stroke-dasharray:none;stroke-opacity:1" />
    <path
       transform="scale(0.75000003)"
       inkscape:connector-curvature="0"
       id="path830"
       d="m 147.83482,27.792708 c -6.38189,-0.664462 -16.68285,-2.234062 -28.73865,-4.379027 l -10.68162,-1.900473 4.25618,-0.386494 c 2.3409,-0.212571 17.67665,-0.327452 34.07946,-0.25529 l 29.82328,0.131203 0.75241,2.973458 c 1.13212,4.474027 1.30831,4.416102 -13.18435,4.33436 -6.59076,-0.03717 -13.92877,-0.270155 -16.30671,-0.517737 z"
       style="opacity:1;fill:#000000;fill-opacity:1;stroke:#000000;stroke-width:0.50864869;stroke-miterlimit:4;stroke-dasharray:none;stroke-opacity:1" />
    <path
       transform="scale(0.75000003)"
       inkscape:connector-curvature="0"
       id="path832"
       d="m 115.02698,115.32403 c 6.82754,-1.39532 20.77921,-3.3812 30.2646,-4.30786 9.47308,-0.92546 30.98042,-1.53686 31.85747,-0.90563 0.4209,0.30294 0.43221,1.20017 0.0421,3.33898 l -0.53346,2.92473 -33.10428,-0.0573 -33.10427,-0.0573 z"
       style="opacity:1;fill:#000000;fill-opacity:1;stroke:#000000;stroke-width:0.50864869;stroke-miterlimit:4;stroke-dasharray:none;stroke-opacity:1" />
    <path
       transform="scale(0.75000003)"
       inkscape:connector-curvature="0"
       id="path834"
       d="m 185.00356,27.931738 c -1.02308,-0.285888 -1.33528,-0.850978 -1.82493,-3.303136 -0.51584,-2.583338 -0.48834,-3.000557 0.21694,-3.29211 1.14118,-0.47175 51.37343,-0.417503 53.07128,0.05731 1.21108,0.338684 1.39879,0.649863 1.39879,2.318864 0,2.527573 -0.85393,3.600827 -3.31984,4.17254 -2.29699,0.532549 -47.65052,0.575145 -49.54224,0.04653 z"
       style="opacity:1;fill:#000000;fill-opacity:1;stroke:#000000;stroke-width:0.50864869;stroke-miterlimit:4;stroke-dasharray:none;stroke-opacity:1" />
    <path
       transform="scale(0.75000003)"
       inkscape:connector-curvature="0"
       id="path836"
       d="m 246.63983,28.019572 c -2.02824,-0.107116 -3.6877,-0.309356 -3.6877,-0.449423 0,-0.140067 0.37116,-1.732283 0.82481,-3.538257 l 0.82481,-3.283589 23.20884,0.01039 23.20883,0.01039 -4.63902,2.217233 c -2.55147,1.219478 -6.21374,2.87164 -8.13838,3.671471 l -3.49935,1.454238 -12.20757,0.05116 c -6.71416,0.02813 -13.86704,-0.03648 -15.89527,-0.143601 z"
       style="opacity:1;fill:#000000;fill-opacity:1;stroke:#000000;stroke-width:0.50864869;stroke-miterlimit:4;stroke-dasharray:none;stroke-opacity:1" />
    <path
       transform="scale(0.75000003)"
       inkscape:connector-curvature="0"
       id="path838"
       d="m 296.10591,113.73616 c -2.61253,-0.89573 -16.02243,-6.60346 -16.02243,-6.81972 0,-0.11282 0.89735,-2.20824 1.99411,-4.65649 1.09676,-2.448254 2.24122,-5.809542 2.54324,-7.469522 0.686,-3.770363 0.71681,-46.313825 0.0373,-51.54549 -0.26421,-2.034324 -1.17271,-5.427775 -2.01889,-7.541 -0.84618,-2.113226 -1.5385,-4.050949 -1.5385,-4.306051 0,-1.231094 15.44518,-7.763686 17.73019,-7.499042 2.59938,0.301055 4.57098,6.79294 6.45809,21.264594 1.13497,8.703772 1.57828,33.828524 0.75399,42.733716 -1.08763,11.750395 -4.12381,24.171635 -6.27701,25.679795 -1.24069,0.86902 -1.55056,0.88249 -3.66013,0.15921 z"
       style="opacity:1;fill:#000000;fill-opacity:1;stroke:#000000;stroke-width:0.50864869;stroke-miterlimit:4;stroke-dasharray:none;stroke-opacity:1" />
    <path
       transform="scale(0.75000003)"
       inkscape:connector-curvature="0"
       id="path840"
       d="m 253.01863,115.99363 -9.00783,-0.15133 -0.5265,-1.89578 c -0.28958,-1.04268 -0.52778,-2.56169 -0.52934,-3.37558 l -0.003,-1.4798 13.60635,0.31534 c 15.94005,0.36941 19.23659,0.8798 27.08803,4.19386 3.07595,1.29835 5.59264,2.45362 5.59264,2.56728 0,0.20574 -19.06946,0.11414 -36.22052,-0.17399 z"
       style="opacity:1;fill:#000000;fill-opacity:1;stroke:#000000;stroke-width:0.50864869;stroke-miterlimit:4;stroke-dasharray:none;stroke-opacity:1" />
    <path
       transform="scale(0.75000003)"
       inkscape:connector-curvature="0"
       id="path842"
       d="m 183.21858,113.52601 c 0.36415,-1.56653 0.79076,-2.9769 0.94802,-3.13416 0.76975,-0.76975 26.59737,-1.28975 39.10417,-0.7873 14.91964,0.59938 14.59487,0.49751 14.59487,4.578 v 2.1917 h -27.65458 -27.65457 z"
       style="opacity:1;fill:#000000;fill-opacity:1;stroke:#000000;stroke-width:0.50864869;stroke-miterlimit:4;stroke-dasharray:none;stroke-opacity:1" />
  </g>
</svg>
