<?xml version="1.0" standalone="no"?>
<!DOCTYPE svg PUBLIC "-//W3C//DTD SVG 20010904//EN"
 "http://www.w3.org/TR/2001/REC-SVG-20010904/DTD/svg10.dtd">
<svg version="1.0" xmlns="http://www.w3.org/2000/svg"
 width="239.000000pt" height="103.000000pt" viewBox="0 0 239.000000 103.000000"
 preserveAspectRatio="xMidYMid meet">
<metadata>
Created by potrace 1.16, written by Peter Selinger 2001-2019
</metadata>
<g transform="translate(0.000000,103.000000) scale(0.100000,-0.100000)"
fill="#000000" stroke="none">
<path d="M768 995 l-22 -25 -273 0 c-307 0 -315 -2 -375 -68 -58 -64 -73 -149
-73 -402 1 -290 26 -369 135 -427 42 -22 51 -23 314 -23 l270 0 29 -27 30 -28
-7 27 -6 28 731 2 731 3 43 47 c29 32 47 64 58 105 26 94 40 247 33 372 -12
202 -41 305 -101 361 l-27 25 -734 3 -734 2 6 25 c8 32 0 32 -28 0z m-543 -67
c-13 -44 -69 -128 -117 -175 -46 -45 -48 -46 -48 -22 0 43 29 127 55 157 24
29 78 61 103 62 9 0 11 -7 7 -22z m1109 -70 c12 -48 12 -48 -106 -48 -80 0
-163 9 -288 30 -96 17 -179 33 -185 35 -5 2 121 4 281 4 l292 1 6 -22z m456 3
c0 -52 2 -51 -216 -51 -194 0 -204 1 -204 19 0 11 -3 26 -6 35 -5 14 17 16
210 16 206 0 216 -1 216 -19z m342 -17 c-72 -34 -73 -35 -195 -32 l-123 3 8
33 9 32 187 -1 187 -1 -73 -34z m-1262 -14 c90 -16 166 -30 168 -30 3 0 -7 -9
-20 -20 -43 -33 -60 -93 -66 -224 -7 -159 9 -246 53 -295 l33 -37 -181 -33
-182 -33 -22 26 c-12 14 -34 63 -49 109 -23 70 -27 100 -27 207 -1 137 10 200
54 298 23 50 32 62 51 62 13 0 98 -13 188 -30z m1399 -2 c41 -132 50 -421 17
-560 -27 -115 -27 -115 -116 -77 -41 17 -76 32 -77 33 -1 1 8 22 20 47 21 41
22 57 22 244 0 167 -3 206 -17 238 -9 20 -18 40 -18 44 -2 8 119 61 142 62 10
1 20 -11 27 -31z m-2151 -145 c-12 -63 -15 -230 -4 -318 l8 -70 -34 33 -33 32
0 155 1 155 34 30 c19 16 36 29 36 30 1 0 -3 -21 -8 -47z m86 -538 c15 -31 25
-59 22 -62 -10 -10 -55 7 -86 33 -41 35 -68 89 -75 155 l-6 54 58 -62 c33 -34
71 -87 87 -118z m1132 62 c3 -3 2 -16 -2 -31 l-6 -26 -282 1 -281 1 125 24
c146 29 429 48 446 31z m446 -2 c4 -5 8 -20 8 -32 l0 -23 -214 0 -214 0 5 23
c3 12 6 27 8 32 1 6 77 10 201 10 121 0 202 -4 206 -10z m353 -24 l70 -31
-189 3 -190 2 -7 27 c-4 15 -5 29 -2 32 3 2 59 3 126 1 110 -3 129 -6 192 -34z"/>
</g>
</svg>
