<?xml version="1.0" standalone="no"?>
<!DOCTYPE svg PUBLIC "-//W3C//DTD SVG 20010904//EN"
 "http://www.w3.org/TR/2001/REC-SVG-20010904/DTD/svg10.dtd">
<svg version="1.0" xmlns="http://www.w3.org/2000/svg"
 width="239.000000pt" height="116.000000pt" viewBox="0 0 239.000000 116.000000"
 preserveAspectRatio="xMidYMid meet">
<metadata>
Created by potrace 1.16, written by Peter Selinger 2001-2019
</metadata>
<g transform="translate(0.000000,116.000000) scale(0.100000,-0.100000)"
fill="#000000" stroke="none">
<path d="M912 1114 c-23 -28 -31 -32 -35 -20 -6 14 -38 16 -251 16 -152 0
-247 -4 -251 -10 -3 -6 -52 -10 -111 -10 l-104 0 -41 -37 c-22 -20 -47 -50
-55 -65 -57 -111 -71 -541 -24 -756 14 -61 60 -127 110 -156 29 -17 49 -20
126 -18 57 2 95 -1 99 -7 4 -7 90 -11 250 -11 222 0 245 2 255 18 8 13 12 14
17 4 3 -7 16 -25 30 -40 l24 -27 -6 38 -6 37 274 0 c235 0 276 -2 281 -15 8
-23 494 -23 502 0 5 11 22 15 64 15 49 0 64 4 90 26 45 38 80 113 80 171 0 89
4 93 75 93 48 0 64 4 69 16 9 23 7 387 -2 401 -4 7 -36 13 -72 15 l-65 3 -6
80 c-9 142 -62 205 -170 205 -41 0 -58 4 -63 15 -8 23 -494 23 -502 0 -5 -13
-46 -15 -281 -15 l-275 0 6 35 c4 19 5 35 2 35 -2 0 -18 -16 -34 -36z m-672
-141 c0 -49 -4 -93 -8 -99 -13 -20 -50 -34 -87 -34 l-37 0 7 38 c10 58 42 121
76 153 17 16 35 29 40 29 5 0 9 -39 9 -87z m1290 -8 l0 -35 -227 0 c-226 0
-229 0 -300 28 -40 16 -76 32 -80 35 -3 4 132 7 300 7 l307 0 0 -35z m580 30
c0 -4 -7 -19 -15 -35 l-16 -30 -249 0 -250 0 0 28 c0 16 3 32 7 35 8 8 523 9
523 2z m-1194 -51 l92 -35 -16 -47 c-23 -69 -23 -506 0 -574 l16 -47 -102 -40
c-115 -45 -117 -45 -135 40 -44 205 -37 569 15 731 4 13 11 17 22 13 10 -3 58
-22 108 -41z m1255 -365 c0 -195 -3 -362 -7 -373 -7 -18 -7 -18 -18 0 -16 27
-21 648 -6 704 25 91 31 23 31 -331z m-113 267 c3 -14 -44 -16 -487 -16 -466
0 -513 3 -498 28 3 4 225 6 494 5 437 -1 488 -3 491 -17z m0 -133 c-3 -17 -35
-18 -490 -20 -309 -2 -489 1 -493 7 -3 6 -3 15 0 20 4 6 180 10 496 10 462 0
490 -1 487 -17z m2 -138 c0 -13 -62 -15 -495 -15 -433 0 -495 2 -495 15 0 13
62 15 495 15 433 0 495 -2 495 -15z m-2 -137 c3 -17 -25 -18 -487 -18 -316 0
-492 4 -496 10 -3 6 -3 15 0 20 4 7 173 9 493 8 454 -3 487 -4 490 -20z
m-1840 -144 c20 -13 22 -22 22 -109 0 -52 -4 -95 -9 -95 -22 0 -91 92 -105
141 -26 86 -24 93 27 85 23 -4 52 -14 65 -22z m1840 10 c-3 -13 -57 -15 -492
-15 -269 0 -491 2 -493 5 -23 23 38 26 498 26 439 0 490 -2 487 -16z m-528
-119 l0 -35 -307 0 c-168 0 -303 3 -299 7 4 4 38 20 74 35 66 27 70 27 300 27
l232 1 0 -35z m565 5 c8 -16 15 -32 15 -35 0 -3 -118 -4 -262 -3 l-263 3 -3
33 -3 32 250 0 250 0 16 -30z"/>
</g>
</svg>
