<?xml version="1.0" standalone="no"?>
<!DOCTYPE svg PUBLIC "-//W3C//DTD SVG 20010904//EN"
 "http://www.w3.org/TR/2001/REC-SVG-20010904/DTD/svg10.dtd">
<svg version="1.0" xmlns="http://www.w3.org/2000/svg"
 width="242.000000pt" height="117.000000pt" viewBox="0 0 242.000000 117.000000"
 preserveAspectRatio="xMidYMid meet">
<metadata>
Created by potrace 1.16, written by Peter Selinger 2001-2019
</metadata>
<g transform="translate(0.000000,117.000000) scale(0.100000,-0.100000)"
fill="#000000" stroke="none">
<path d="M911 1134 c-12 -15 -21 -31 -21 -35 0 -5 -4 -9 -10 -9 -5 0 -10 6
-10 14 0 8 -7 17 -16 20 -9 3 -119 6 -245 6 -197 0 -230 -2 -236 -15 -4 -13
-23 -15 -108 -13 -91 3 -107 1 -131 -18 -82 -60 -106 -126 -125 -341 -20 -234
7 -501 58 -581 14 -22 44 -51 67 -66 38 -25 48 -27 134 -25 59 1 98 -3 105
-10 7 -7 85 -11 249 -11 209 0 238 2 246 16 8 14 15 11 45 -22 l36 -39 -9 35
c-6 19 -10 36 -10 37 0 2 166 3 369 3 319 0 370 -2 375 -15 8 -23 484 -23 492
0 4 10 21 15 54 15 66 0 105 16 135 56 59 77 59 79 59 454 0 337 -1 346 -23
397 -35 79 -59 97 -142 101 -55 3 -72 8 -80 23 -9 18 -25 19 -250 19 -232 0
-241 -1 -246 -20 -5 -20 -14 -20 -374 -20 -203 0 -369 1 -369 3 0 1 4 17 9 35
12 39 0 41 -28 6z m-671 -136 c0 -40 -3 -83 -6 -96 -8 -29 -52 -52 -99 -52
-33 0 -35 2 -29 28 17 76 39 127 70 158 54 53 64 47 64 -38z m1470 -23 l0 -35
-318 0 -317 0 -80 31 c-44 16 -82 32 -84 35 -2 2 176 4 397 4 l402 0 0 -35z
m563 0 l-17 -35 -251 0 -251 0 4 35 4 35 264 0 264 0 -17 -35z m-1381 -11 c51
-21 96 -40 100 -43 4 -3 -1 -31 -9 -61 -23 -79 -23 -471 0 -550 8 -30 15 -56
14 -57 -9 -8 -204 -80 -209 -77 -28 18 -63 336 -53 499 10 168 39 325 60 325
3 0 47 -16 97 -36z m1456 -374 c0 -190 -3 -356 -7 -370 -7 -24 -8 -23 -19 15
-17 56 -16 643 0 698 22 73 27 12 26 -343z m-1112 290 c12 -12 826 -8 887 5
45 9 75 -8 55 -32 -9 -11 -22 -13 -52 -8 -68 12 -878 17 -890 5 -11 -11 -56
-13 -80 -4 -19 7 -21 30 -3 37 22 9 73 7 83 -3z m429 -553 c237 0 444 3 460 7
38 9 80 -17 55 -34 -9 -6 -32 -8 -55 -4 -79 13 -796 16 -868 4 -74 -13 -117
-8 -117 14 0 19 27 26 65 18 17 -3 224 -5 460 -5z m-1448 -32 c20 -23 23 -37
23 -111 0 -46 -3 -84 -7 -84 -3 0 -21 11 -39 25 -36 27 -79 109 -89 169 l-6
39 47 -6 c36 -4 54 -12 71 -32z m1491 -92 l3 -33 -397 0 c-219 0 -395 2 -393
4 2 2 38 18 79 35 l75 30 315 -2 315 -2 3 -32z m565 0 l19 -33 -266 0 -266 0
0 35 0 35 247 -2 247 -3 19 -32z"/>
</g>
</svg>
