<?xml version="1.0" encoding="UTF-8" standalone="no"?>
<svg
   xmlns:dc="http://purl.org/dc/elements/1.1/"
   xmlns:cc="http://creativecommons.org/ns#"
   xmlns:rdf="http://www.w3.org/1999/02/22-rdf-syntax-ns#"
   xmlns:svg="http://www.w3.org/2000/svg"
   xmlns="http://www.w3.org/2000/svg"
   xmlns:sodipodi="http://sodipodi.sourceforge.net/DTD/sodipodi-0.dtd"
   xmlns:inkscape="http://www.inkscape.org/namespaces/inkscape"
   version="1.0"
   width="116pt"
   height="239pt"
   viewBox="0 0 116 239"
   preserveAspectRatio="xMidYMid meet"
   id="svg8"
   sodipodi:docname="wagon3move.svg"
   inkscape:version="0.92.5 (2060ec1f9f, 2020-04-08)">
  <defs
     id="defs12" />
  <sodipodi:namedview
     pagecolor="#ffffff"
     bordercolor="#666666"
     borderopacity="1"
     objecttolerance="10"
     gridtolerance="10"
     guidetolerance="10"
     inkscape:pageopacity="0"
     inkscape:pageshadow="2"
     inkscape:window-width="1440"
     inkscape:window-height="792"
     id="namedview10"
     showgrid="false"
     inkscape:zoom="1.9659935"
     inkscape:cx="173.8842"
     inkscape:cy="214.68266"
     inkscape:window-x="0"
     inkscape:window-y="27"
     inkscape:window-maximized="1"
     inkscape:current-layer="svg8" />
  <metadata
     id="metadata2">
Created by potrace 1.16, written by Peter Selinger 2001-2019
<rdf:RDF>
  <cc:Work
     rdf:about="">
    <dc:format>image/svg+xml</dc:format>
    <dc:type
       rdf:resource="http://purl.org/dc/dcmitype/StillImage" />
    <dc:title></dc:title>
  </cc:Work>
</rdf:RDF>
</metadata>
  <g
     id="g36"
     transform="rotate(90.035907,58.286832,58.693161)">
    <g
       style="fill:#006300;fill-opacity:1;stroke:#000000;stroke-width:7.5;stroke-miterlimit:4;stroke-dasharray:none;stroke-opacity:1"
       id="g6"
       transform="matrix(0.1,0,0,-0.1,0,116)">
      <path
         style="fill:#006300;fill-opacity:1;stroke:#000000;stroke-width:7.5;stroke-miterlimit:4;stroke-dasharray:none;stroke-opacity:1"
         id="path4"
         d="m 912,1114 c -23,-28 -31,-32 -35,-20 -6,14 -38,16 -251,16 -152,0 -247,-4 -251,-10 -3,-6 -52,-10 -111,-10 H 160 l -41,-37 C 97,1033 72,1003 64,988 7,877 -7,447 40,232 54,171 100,105 150,76 179,59 199,56 276,58 c 57,2 95,-1 99,-7 4,-7 90,-11 250,-11 222,0 245,2 255,18 8,13 12,14 17,4 3,-7 16,-25 30,-40 l 24,-27 -6,38 -6,37 h 274 c 235,0 276,-2 281,-15 8,-23 494,-23 502,0 5,11 22,15 64,15 49,0 64,4 90,26 45,38 80,113 80,171 0,89 4,93 75,93 48,0 64,4 69,16 9,23 7,387 -2,401 -4,7 -36,13 -72,15 l -65,3 -6,80 c -9,142 -62,205 -170,205 -41,0 -58,4 -63,15 -8,23 -494,23 -502,0 -5,-13 -46,-15 -281,-15 H 938 l 6,35 c 4,19 5,35 2,35 -2,0 -18,-16 -34,-36 z M 240,973 c 0,-49 -4,-93 -8,-99 -13,-20 -50,-34 -87,-34 h -37 l 7,38 c 10,58 42,121 76,153 17,16 35,29 40,29 5,0 9,-39 9,-87 z m 1290,-8 v -35 h -227 c -226,0 -229,0 -300,28 -40,16 -76,32 -80,35 -3,4 132,7 300,7 h 307 z m 580,30 c 0,-4 -7,-19 -15,-35 l -16,-30 h -249 -250 v 28 c 0,16 3,32 7,35 8,8 523,9 523,2 z m -1194,-51 92,-35 -16,-47 c -23,-69 -23,-506 0,-574 l 16,-47 -102,-40 c -115,-45 -117,-45 -135,40 -44,205 -37,569 15,731 4,13 11,17 22,13 10,-3 58,-22 108,-41 z M 2171,579 c 0,-195 -3,-362 -7,-373 -7,-18 -7,-18 -18,0 -16,27 -21,648 -6,704 25,91 31,23 31,-331 z m -113,267 c 3,-14 -44,-16 -487,-16 -466,0 -513,3 -498,28 3,4 225,6 494,5 437,-1 488,-3 491,-17 z m 0,-133 c -3,-17 -35,-18 -490,-20 -309,-2 -489,1 -493,7 -3,6 -3,15 0,20 4,6 180,10 496,10 462,0 490,-1 487,-17 z m 2,-138 c 0,-13 -62,-15 -495,-15 -433,0 -495,2 -495,15 0,13 62,15 495,15 433,0 495,-2 495,-15 z m -2,-137 c 3,-17 -25,-18 -487,-18 -316,0 -492,4 -496,10 -3,6 -3,15 0,20 4,7 173,9 493,8 454,-3 487,-4 490,-20 z M 218,294 c 20,-13 22,-22 22,-109 0,-52 -4,-95 -9,-95 -22,0 -91,92 -105,141 -26,86 -24,93 27,85 23,-4 52,-14 65,-22 z m 1840,10 c -3,-13 -57,-15 -492,-15 -269,0 -491,2 -493,5 -23,23 38,26 498,26 439,0 490,-2 487,-16 z M 1530,185 v -35 h -307 c -168,0 -303,3 -299,7 4,4 38,20 74,35 66,27 70,27 300,27 l 232,1 z m 565,5 c 8,-16 15,-32 15,-35 0,-3 -118,-4 -262,-3 l -263,3 -3,33 -3,32 h 250 250 z"
         inkscape:connector-curvature="0" />
    </g>
    <path
       transform="scale(0.75)"
       inkscape:connector-curvature="0"
       id="path822"
       d="m 15.634882,39.866007 c 1.482657,-9.633334 6.423571,-19.077386 12.494075,-23.881148 2.141127,-1.694335 2.156279,-1.697721 2.581238,-0.576782 0.235108,0.620156 0.351792,5.738717 0.259299,11.37458 -0.154264,9.399684 -0.252291,10.340012 -1.185467,11.371558 -2.02995,2.243936 -4.803219,3.225889 -9.769195,3.459055 l -4.682709,0.219866 z"
       style="opacity:1;fill:#000000;fill-opacity:1;stroke:#000000;stroke-width:0.50864869;stroke-miterlimit:4;stroke-dasharray:none;stroke-opacity:1" />
    <path
       transform="scale(0.75)"
       inkscape:connector-curvature="0"
       id="path824"
       d="m 27.805709,139.56369 c -3.036832,-3.0645 -6.314407,-7.6133 -8.382723,-11.634 -1.809507,-3.51759 -4.292761,-11.84662 -4.04763,-13.57606 0.152202,-1.07382 0.409215,-1.17024 2.991332,-1.1223 3.407756,0.0633 9.187507,1.89894 11.068224,3.51531 l 1.366412,1.17436 0.155774,10.41803 c 0.08568,5.72992 -0.03575,11.15714 -0.269836,12.06051 l -0.425608,1.64248 z"
       style="opacity:1;fill:#000000;fill-opacity:1;stroke:#000000;stroke-width:0.50864869;stroke-miterlimit:4;stroke-dasharray:none;stroke-opacity:1" />
    <path
       transform="scale(0.75)"
       inkscape:connector-curvature="0"
       id="path826"
       d="m 106.3486,130.33138 c -1.83913,-1.48924 -4.14678,-12.67941 -5.6351,-27.32547 -0.28428,-2.79757 -0.65515,-11.381016 -0.82415,-19.074327 -0.491272,-22.364327 1.19842,-42.077693 4.77395,-55.697029 1.34285,-5.114949 0.41393,-5.145166 15.25404,0.496208 7.2173,2.743612 13.19429,5.047036 13.28221,5.11872 0.0879,0.07168 -0.41963,2.042137 -1.12787,4.378784 -1.78189,5.878881 -2.34538,12.69942 -2.68326,32.478452 -0.42159,24.678997 0.59969,41.415292 2.94282,48.225732 0.53576,1.5572 0.79989,2.9955 0.58696,3.19622 -0.54293,0.51179 -18.10978,7.29681 -21.46122,8.28918 -3.46204,1.02513 -3.74145,1.0204 -5.10838,-0.0865 z"
       style="opacity:1;fill:#000000;fill-opacity:1;stroke:#000000;stroke-width:0.50864869;stroke-miterlimit:4;stroke-dasharray:none;stroke-opacity:1" />
    <path
       transform="scale(0.75)"
       inkscape:connector-curvature="0"
       id="path828"
       d="m 147.28187,29.490135 c -5.79706,-0.480855 -7.69231,-0.997124 -15.51378,-4.225972 l -6.35811,-2.624745 13.73351,-0.314362 c 7.55343,-0.1729 25.12089,-0.344569 39.03879,-0.381487 l 25.30527,-0.06712 v 4.06919 4.069189 l -25.81392,-0.07248 c -14.19766,-0.03987 -27.87395,-0.243359 -30.39176,-0.452206 z"
       style="opacity:1;fill:#000000;fill-opacity:1;stroke:#000000;stroke-width:0.50864869;stroke-miterlimit:4;stroke-dasharray:none;stroke-opacity:1" />
    <path
       transform="scale(0.75)"
       inkscape:connector-curvature="0"
       id="path830"
       d="m 211.72985,26.588383 0.1504,-3.42644 2.0346,-0.375848 c 2.37433,-0.438607 65.72984,-0.710715 66.15641,-0.284138 0.15814,0.158141 -0.53116,1.91323 -1.53178,3.900198 l -1.81931,3.612669 h -32.57036 -32.57036 z"
       style="opacity:1;fill:#000000;fill-opacity:1;stroke:#000000;stroke-width:0.50864869;stroke-miterlimit:4;stroke-dasharray:none;stroke-opacity:1" />
    <path
       transform="scale(0.75)"
       inkscape:connector-curvature="0"
       id="path834"
       d="m 154.40295,42.715286 c -4.65572,-0.23604 -8.79138,-0.697321 -9.66432,-1.077933 -1.34798,-0.58773 -0.3395,-0.703022 8.64702,-0.988545 25.42453,-0.807797 115.93444,-0.142773 119.27812,0.876399 1.2382,0.377412 1.22484,0.399998 -0.50865,0.859497 -2.2584,0.598637 -106.68251,0.891801 -117.75217,0.330582 z"
       style="opacity:1;fill:#000000;fill-opacity:1;stroke:#000000;stroke-width:0.50864869;stroke-miterlimit:4;stroke-dasharray:none;stroke-opacity:1" />
    <path
       transform="scale(0.75)"
       inkscape:connector-curvature="0"
       id="path836"
       d="m 148.68065,61.205091 c -4.15091,-0.177217 -4.705,-0.31073 -4.705,-1.133729 0,-0.804173 0.57887,-0.975794 4.19635,-1.244124 2.308,-0.171198 26.74221,-0.450295 54.29825,-0.620216 45.75894,-0.282167 70.12489,0.05395 71.05105,0.980116 0.61774,0.617733 -0.30449,0.964676 -3.76097,1.414885 -3.42983,0.446739 -112.06736,0.987836 -121.07968,0.603068 z"
       style="opacity:1;fill:#000000;fill-opacity:1;stroke:#000000;stroke-width:0.50864869;stroke-miterlimit:4;stroke-dasharray:none;stroke-opacity:1" />
    <path
       transform="scale(0.75)"
       inkscape:connector-curvature="0"
       id="path838"
       d="m 154.54848,78.890649 c -5.51509,-0.191355 -10.17113,-0.491607 -10.34675,-0.667227 -0.17562,-0.17562 0.7889,-0.508148 2.14339,-0.738952 3.43042,-0.584543 122.50364,-0.537055 125.04703,0.04987 l 2.03459,0.469515 -2.28892,0.442355 c -2.81775,0.544557 -102.72707,0.925411 -116.58934,0.444439 z"
       style="opacity:1;fill:#000000;fill-opacity:1;stroke:#000000;stroke-width:0.50864869;stroke-miterlimit:4;stroke-dasharray:none;stroke-opacity:1" />
    <path
       transform="scale(0.75)"
       inkscape:connector-curvature="0"
       id="path840"
       d="m 176.52917,97.611766 c -16.92529,-0.16921 -31.17381,-0.479814 -31.66338,-0.69023 -1.87658,-0.806544 -0.90722,-1.697625 2.28892,-2.104077 4.27473,-0.543617 105.7364,-0.350772 116.40144,0.221241 8.43432,0.45237 11.28133,1.020287 9.29046,1.853246 -1.90391,0.79657 -51.53777,1.167505 -96.31744,0.71982 z"
       style="opacity:1;fill:#000000;fill-opacity:1;stroke:#000000;stroke-width:0.50864869;stroke-miterlimit:4;stroke-dasharray:none;stroke-opacity:1" />
    <path
       transform="scale(0.75)"
       inkscape:connector-curvature="0"
       id="path842"
       d="m 153.13133,115.00294 c -6.11324,-0.18374 -9.52835,-0.46252 -8.90135,-0.72662 2.59427,-1.09277 20.04863,-1.39538 71.83293,-1.24539 53.02995,0.15359 61.45479,0.3929 55.07491,1.56441 -2.69251,0.49442 -103.52962,0.84271 -118.00649,0.4076 z"
       style="opacity:1;fill:#000000;fill-opacity:1;stroke:#000000;stroke-width:0.50864869;stroke-miterlimit:4;stroke-dasharray:none;stroke-opacity:1" />
    <path
       transform="scale(0.75)"
       inkscape:connector-curvature="0"
       id="path844"
       d="m 286.69607,126.73002 c -1.27862,-2.06886 -2.35066,-65.473312 -1.40304,-82.981682 0.53264,-9.841311 1.47882,-15.094409 2.32949,-12.933223 0.71475,1.815855 1.32837,37.925654 1.05388,62.01782 -0.3575,31.378035 -0.63211,36.078545 -1.98033,33.897085 z"
       style="opacity:1;fill:#000000;fill-opacity:1;stroke:#000000;stroke-width:0.50864869;stroke-miterlimit:4;stroke-dasharray:none;stroke-opacity:1" />
    <path
       transform="scale(0.75)"
       inkscape:connector-curvature="0"
       id="path846"
       d="m 128.46187,133.31776 -2.54324,-0.30158 4.57535,-1.97772 c 10.9419,-4.72971 12.4618,-4.88805 46.92532,-4.88861 l 26.06825,-4.3e-4 v 3.81487 3.81486 l -36.24122,-0.0799 c -19.93267,-0.0439 -37.38568,-0.21562 -38.78446,-0.38148 z"
       style="opacity:1;fill:#000000;fill-opacity:1;stroke:#000000;stroke-width:0.50864869;stroke-miterlimit:4;stroke-dasharray:none;stroke-opacity:1" />
    <path
       transform="scale(0.75)"
       inkscape:connector-curvature="0"
       id="path848"
       d="m 223.50883,133.39833 c -12.80331,-0.16712 -11.86145,0.21646 -11.87596,-4.83656 l -0.007,-2.41982 32.63775,0.1309 32.63775,0.1309 1.69244,3.30621 1.69244,3.30622 -1.39519,0.32131 c -1.36958,0.3154 -33.20035,0.35037 -55.38229,0.0608 z"
       style="opacity:1;fill:#000000;fill-opacity:1;stroke:#000000;stroke-width:0.50864869;stroke-miterlimit:4;stroke-dasharray:none;stroke-opacity:1" />
  </g>
</svg>
