<?xml version="1.0" encoding="UTF-8" standalone="no"?>
<svg
   xmlns:dc="http://purl.org/dc/elements/1.1/"
   xmlns:cc="http://creativecommons.org/ns#"
   xmlns:rdf="http://www.w3.org/1999/02/22-rdf-syntax-ns#"
   xmlns:svg="http://www.w3.org/2000/svg"
   xmlns="http://www.w3.org/2000/svg"
   xmlns:sodipodi="http://sodipodi.sourceforge.net/DTD/sodipodi-0.dtd"
   xmlns:inkscape="http://www.inkscape.org/namespaces/inkscape"
   version="1.0"
   width="117pt"
   height="242pt"
   viewBox="0 0 117 242"
   preserveAspectRatio="xMidYMid meet"
   id="svg8"
   sodipodi:docname="wagon2move.svg"
   inkscape:version="0.92.5 (2060ec1f9f, 2020-04-08)">
  <defs
     id="defs12" />
  <sodipodi:namedview
     pagecolor="#ffffff"
     bordercolor="#666666"
     borderopacity="1"
     objecttolerance="10"
     gridtolerance="10"
     guidetolerance="10"
     inkscape:pageopacity="0"
     inkscape:pageshadow="2"
     inkscape:window-width="1440"
     inkscape:window-height="792"
     id="namedview10"
     showgrid="false"
     inkscape:zoom="1.9416217"
     inkscape:cx="169.66097"
     inkscape:cy="286.98107"
     inkscape:window-x="1920"
     inkscape:window-y="27"
     inkscape:window-maximized="1"
     inkscape:current-layer="svg8" />
  <metadata
     id="metadata2">
Created by potrace 1.16, written by Peter Selinger 2001-2019
<rdf:RDF>
  <cc:Work
     rdf:about="">
    <dc:format>image/svg+xml</dc:format>
    <dc:type
       rdf:resource="http://purl.org/dc/dcmitype/StillImage" />
    <dc:title></dc:title>
  </cc:Work>
</rdf:RDF>
</metadata>
  <g
     id="g30"
     transform="rotate(89.977757,120.83063,121.93014)">
    <g
       style="fill:#006300;fill-opacity:1;stroke:#000000;stroke-width:7.5;stroke-miterlimit:4;stroke-dasharray:none;stroke-opacity:1"
       id="g6"
       transform="matrix(0.1,0,0,-0.1,0,242)">
      <path
         inkscape:connector-curvature="0"
         style="fill:#006300;fill-opacity:1;stroke:#000000;stroke-width:7.5;stroke-miterlimit:4;stroke-dasharray:none;stroke-opacity:1"
         id="path4"
         d="m 911,1134 c -12,-15 -21,-31 -21,-35 0,-5 -4,-9 -10,-9 -5,0 -10,6 -10,14 0,8 -7,17 -16,20 -9,3 -119,6 -245,6 -197,0 -230,-2 -236,-15 -4,-13 -23,-15 -108,-13 -91,3 -107,1 -131,-18 C 52,1024 28,958 9,743 -11,509 16,242 67,162 c 14,-22 44,-51 67,-66 38,-25 48,-27 134,-25 59,1 98,-3 105,-10 7,-7 85,-11 249,-11 209,0 238,2 246,16 8,14 15,11 45,-22 l 36,-39 -9,35 c -6,19 -10,36 -10,37 0,2 166,3 369,3 319,0 370,-2 375,-15 8,-23 484,-23 492,0 4,10 21,15 54,15 66,0 105,16 135,56 59,77 59,79 59,454 0,337 -1,346 -23,397 -35,79 -59,97 -142,101 -55,3 -72,8 -80,23 -9,18 -25,19 -250,19 -232,0 -241,-1 -246,-20 -5,-20 -14,-20 -374,-20 -203,0 -369,1 -369,3 0,1 4,17 9,35 12,39 0,41 -28,6 z M 240,998 c 0,-40 -3,-83 -6,-96 -8,-29 -52,-52 -99,-52 -33,0 -35,2 -29,28 17,76 39,127 70,158 54,53 64,47 64,-38 z m 1470,-23 v -35 h -318 -317 l -80,31 c -44,16 -82,32 -84,35 -2,2 176,4 397,4 h 402 z m 563,0 -17,-35 h -251 -251 l 4,35 4,35 h 264 264 z M 892,964 c 51,-21 96,-40 100,-43 4,-3 -1,-31 -9,-61 -23,-79 -23,-471 0,-550 8,-30 15,-56 14,-57 -9,-8 -204,-80 -209,-77 -28,18 -63,336 -53,499 10,168 39,325 60,325 3,0 47,-16 97,-36 z M 2348,590 c 0,-190 -3,-356 -7,-370 -7,-24 -8,-23 -19,15 -17,56 -16,643 0,698 22,73 27,12 26,-343 z M 1236,880 c 12,-12 826,-8 887,5 45,9 75,-8 55,-32 -9,-11 -22,-13 -52,-8 -68,12 -878,17 -890,5 -11,-11 -56,-13 -80,-4 -19,7 -21,30 -3,37 22,9 73,7 83,-3 z m 429,-553 c 237,0 444,3 460,7 38,9 80,-17 55,-34 -9,-6 -32,-8 -55,-4 -79,13 -796,16 -868,4 -74,-13 -117,-8 -117,14 0,19 27,26 65,18 17,-3 224,-5 460,-5 z M 217,295 c 20,-23 23,-37 23,-111 0,-46 -3,-84 -7,-84 -3,0 -21,11 -39,25 -36,27 -79,109 -89,169 l -6,39 47,-6 c 36,-4 54,-12 71,-32 z m 1491,-92 3,-33 h -397 c -219,0 -395,2 -393,4 2,2 38,18 79,35 l 75,30 315,-2 315,-2 z m 565,0 19,-33 h -266 -266 v 35 35 l 247,-2 247,-3 z" />
    </g>
    <path
       inkscape:connector-curvature="0"
       id="path822"
       d="m 11.181161,155.94004 c -0.560794,-1.4614 2.437842,-10.8393 4.487035,-14.03269 1.580608,-2.46316 5.630976,-6.30576 6.475318,-6.14316 0.959604,0.18481 1.190845,1.48378 1.225212,6.88252 0.05528,8.68393 -0.567349,10.69887 -3.816479,12.3508 -2.867101,1.45769 -7.95363,2.03041 -8.371086,0.94253 z"
       style="opacity:1;fill:#000000;fill-opacity:1;stroke:#000000;stroke-width:0.38627502;stroke-miterlimit:4;stroke-dasharray:none;stroke-opacity:1" />
    <path
       inkscape:connector-curvature="0"
       id="path824"
       d="m 20.282406,229.40209 c -1.977535,-1.55247 -4.717174,-5.1297 -6.24048,-8.14842 -1.091556,-2.16311 -2.891803,-7.71651 -3.175653,-9.79626 l -0.282625,-2.07075 2.456355,0.26167 c 5.841871,0.62234 8.675638,2.41199 9.815302,6.1988 0.867283,2.88177 0.733786,15.25722 -0.164574,15.25632 -0.132782,-1.4e-4 -1.216528,-0.76575 -2.408325,-1.70136 z"
       style="opacity:1;fill:#000000;fill-opacity:1;stroke:#000000;stroke-width:0.38627502;stroke-miterlimit:4;stroke-dasharray:none;stroke-opacity:1" />
    <path
       inkscape:connector-curvature="0"
       id="path826"
       d="m 78.391006,222.31594 c -0.92577,-2.20498 -2.358307,-10.53131 -3.299257,-19.17621 -1.151105,-10.57575 -1.237593,-30.67582 -0.169708,-39.44103 1.239148,-10.17093 3.018028,-18.77144 4.223585,-20.42014 0.492638,-0.67372 0.704888,-0.63553 4.550453,0.81878 6.071002,2.29592 13.72212,5.49212 14.488387,6.05242 0.643763,0.47074 0.626445,0.7549 -0.333847,5.47761 -1.433123,7.04809 -1.977263,17.74918 -1.68714,33.1792 0.289387,15.39071 0.775627,20.05238 2.808802,26.92851 0.221618,0.74951 -0.142492,0.93023 -7.379737,3.66285 -4.24368,1.60231 -12.129173,4.36653 -12.456413,4.36653 -0.07532,0 -0.410625,-0.65184 -0.745125,-1.44852 z"
       style="opacity:1;fill:#000000;fill-opacity:1;stroke:#000000;stroke-width:0.38627502;stroke-miterlimit:4;stroke-dasharray:none;stroke-opacity:1" />
    <path
       inkscape:connector-curvature="0"
       id="path828"
       d="m 100.37215,144.65928 -6.671401,-2.59199 5.126302,-0.24407 c 2.819459,-0.13424 20.118589,-0.26461 38.442509,-0.28971 l 33.31622,-0.0456 v 2.89707 2.89706 l -31.77111,-0.0154 -31.77113,-0.0154 z"
       style="opacity:1;fill:#000000;fill-opacity:1;stroke:#000000;stroke-width:0.38627502;stroke-miterlimit:4;stroke-dasharray:none;stroke-opacity:1" />
    <path
       inkscape:connector-curvature="0"
       id="path830"
       d="m 176.20239,145.64034 c 0.11984,-0.90292 0.30359,-2.2066 0.40834,-2.89707 l 0.19046,-1.25539 h 25.66663 25.66663 l -1.43351,2.89706 -1.4335,2.89707 h -24.64147 -24.64146 z"
       style="opacity:1;fill:#000000;fill-opacity:1;stroke:#000000;stroke-width:0.38627502;stroke-miterlimit:4;stroke-dasharray:none;stroke-opacity:1" />
    <path
       inkscape:connector-curvature="0"
       id="path832"
       d="m 115.85384,156.86377 c -1.27947,-0.6183 -1.45822,-1.54865 -0.45381,-2.36197 0.73025,-0.59132 1.37541,-0.67743 3.98295,-0.53163 1.71136,0.0957 3.98068,0.35007 5.04294,0.56529 5.36323,1.08661 73.68351,0.81136 86.37503,-0.348 5.64104,-0.5153 7.06102,-0.24481 6.8402,1.30301 -0.20568,1.44165 -1.73635,1.88053 -5.08014,1.45657 -5.34086,-0.67715 -39.62019,-1.25415 -64.06309,-1.07832 -21.35865,0.15364 -24.23388,0.24548 -25.50813,0.8148 -1.61903,0.72336 -5.79384,0.82881 -7.13595,0.18025 z"
       style="opacity:1;fill:#000000;fill-opacity:1;stroke:#000000;stroke-width:0.38627502;stroke-miterlimit:4;stroke-dasharray:none;stroke-opacity:1" />
    <path
       inkscape:connector-curvature="0"
       id="path834"
       d="m 116.15756,211.83922 c -0.51102,-0.14299 -1.1194,-0.57041 -1.35196,-0.94981 -0.73643,-1.20143 0.69971,-1.8894 3.43992,-1.64785 5.23912,0.46184 71.15501,0.68422 84.15452,0.28391 11.8597,-0.36521 13.60216,-0.34437 14.60591,0.17469 0.68357,0.35348 1.09145,0.83985 1.01912,1.21522 -0.19282,1.00075 -2.16894,1.29425 -5.91472,0.87851 -11.67282,-1.29559 -78.21257,-1.45335 -87.29815,-0.20698 -4.45387,0.61099 -7.09739,0.68806 -8.65464,0.25231 z"
       style="opacity:1;fill:#000000;fill-opacity:1;stroke:#000000;stroke-width:0.38627502;stroke-miterlimit:4;stroke-dasharray:none;stroke-opacity:1" />
    <path
       inkscape:connector-curvature="0"
       id="path836"
       d="m 101.05628,224.1653 c -3.505444,-0.11423 -6.112804,-0.32029 -5.794129,-0.4579 0.318683,-0.13761 3.186773,-1.32939 6.373549,-2.64839 l 5.79412,-2.39818 31.23836,0.21645 c 17.18111,0.11904 31.28129,0.26787 31.33374,0.33073 0.0524,0.0628 0.18526,1.2876 0.29514,2.72165 l 0.19977,2.60736 -31.53351,-0.082 c -17.34342,-0.0451 -34.4016,-0.17548 -37.90704,-0.28971 z"
       style="opacity:1;fill:#000000;fill-opacity:1;stroke:#000000;stroke-width:0.38627502;stroke-miterlimit:4;stroke-dasharray:none;stroke-opacity:1" />
    <path
       inkscape:connector-curvature="0"
       id="path838"
       d="m 176.37991,221.58745 v -2.94957 l 24.15963,0.1803 c 20.19078,0.15069 24.24533,0.27036 24.68129,0.72849 0.28691,0.3015 1.07786,1.54767 1.75767,2.76927 l 1.23602,2.22108 h -25.9173 -25.91731 z"
       style="opacity:1;fill:#000000;fill-opacity:1;stroke:#000000;stroke-width:0.38627502;stroke-miterlimit:4;stroke-dasharray:none;stroke-opacity:1" />
    <path
       inkscape:connector-curvature="0"
       id="path840"
       d="m 232.84425,218.62882 c -0.81388,-3.17784 -1.21218,-14.41594 -1.21438,-34.26441 -0.002,-19.93861 0.43673,-32.95339 1.20327,-35.67696 l 0.44991,-1.59858 0.41497,1.5451 c 0.51615,1.92182 0.48736,67.52533 -0.0308,70.10892 l -0.3486,1.73824 z"
       style="opacity:1;fill:#000000;fill-opacity:1;stroke:#000000;stroke-width:0.38627502;stroke-miterlimit:4;stroke-dasharray:none;stroke-opacity:1" />
  </g>
</svg>
