<?xml version="1.0" encoding="UTF-8" standalone="no"?>
<svg
   xmlns:dc="http://purl.org/dc/elements/1.1/"
   xmlns:cc="http://creativecommons.org/ns#"
   xmlns:rdf="http://www.w3.org/1999/02/22-rdf-syntax-ns#"
   xmlns:svg="http://www.w3.org/2000/svg"
   xmlns="http://www.w3.org/2000/svg"
   xmlns:sodipodi="http://sodipodi.sourceforge.net/DTD/sodipodi-0.dtd"
   xmlns:inkscape="http://www.inkscape.org/namespaces/inkscape"
   version="1.0"
   width="103pt"
   height="239pt"
   viewBox="0 0 103 239"
   preserveAspectRatio="xMidYMid meet"
   id="svg8"
   sodipodi:docname="wagon1stop.svg"
   inkscape:version="0.92.5 (2060ec1f9f, 2020-04-08)">
  <defs
     id="defs12" />
  <sodipodi:namedview
     pagecolor="#ffffff"
     bordercolor="#666666"
     borderopacity="1"
     objecttolerance="10"
     gridtolerance="10"
     guidetolerance="10"
     inkscape:pageopacity="0"
     inkscape:pageshadow="2"
     inkscape:window-width="1440"
     inkscape:window-height="792"
     id="namedview10"
     showgrid="false"
     inkscape:zoom="1.9659935"
     inkscape:cx="165.02715"
     inkscape:cy="199.49477"
     inkscape:window-x="1920"
     inkscape:window-y="27"
     inkscape:window-maximized="1"
     inkscape:current-layer="svg8" />
  <metadata
     id="metadata2">
Created by potrace 1.16, written by Peter Selinger 2001-2019
<rdf:RDF>
  <cc:Work
     rdf:about="">
    <dc:format>image/svg+xml</dc:format>
    <dc:type
       rdf:resource="http://purl.org/dc/dcmitype/StillImage" />
    <dc:title></dc:title>
  </cc:Work>
</rdf:RDF>
</metadata>
  <g
     id="g32"
     transform="rotate(90.241537,120.30485,119.97627)">
    <g
       style="fill:#800000;fill-opacity:1;stroke:#000000;stroke-width:7.50000048;stroke-miterlimit:4;stroke-dasharray:none;stroke-opacity:1"
       id="g6"
       transform="matrix(0.1,0,0,-0.1,0,239.00001)">
      <path
         inkscape:connector-curvature="0"
         style="fill:#800000;fill-opacity:1;stroke:#000000;stroke-width:7.50000048;stroke-miterlimit:4;stroke-dasharray:none;stroke-opacity:1"
         id="path4"
         d="M 768,995 746,970 H 473 C 166,970 158,968 98,902 40,838 25,753 25,500 26,210 51,131 160,73 202,51 211,50 474,50 h 270 l 29,-27 30,-28 -7,27 -6,28 731,2 731,3 43,47 c 29,32 47,64 58,105 26,94 40,247 33,372 -12,202 -41,305 -101,361 l -27,25 -734,3 -734,2 6,25 c 8,32 0,32 -28,0 z M 225,928 C 212,884 156,800 108,753 62,708 60,707 60,731 c 0,43 29,127 55,157 24,29 78,61 103,62 9,0 11,-7 7,-22 z m 1109,-70 c 12,-48 12,-48 -106,-48 -80,0 -163,9 -288,30 -96,17 -179,33 -185,35 -5,2 121,4 281,4 l 292,1 z m 456,3 c 0,-52 2,-51 -216,-51 -194,0 -204,1 -204,19 0,11 -3,26 -6,35 -5,14 17,16 210,16 206,0 216,-1 216,-19 z m 342,-17 c -72,-34 -73,-35 -195,-32 l -123,3 8,33 9,32 187,-1 187,-1 z M 870,830 c 90,-16 166,-30 168,-30 3,0 -7,-9 -20,-20 -43,-33 -60,-93 -66,-224 -7,-159 9,-246 53,-295 l 33,-37 -181,-33 -182,-33 -22,26 c -12,14 -34,63 -49,109 -23,70 -27,100 -27,207 -1,137 10,200 54,298 23,50 32,62 51,62 13,0 98,-13 188,-30 z m 1399,-2 c 41,-132 50,-421 17,-560 -27,-115 -27,-115 -116,-77 -41,17 -76,32 -77,33 -1,1 8,22 20,47 21,41 22,57 22,244 0,167 -3,206 -17,238 -9,20 -18,40 -18,44 -2,8 119,61 142,62 10,1 20,-11 27,-31 z M 118,683 C 106,620 103,453 114,365 l 8,-70 -34,33 -33,32 v 155 l 1,155 34,30 c 19,16 36,29 36,30 1,0 -3,-21 -8,-47 z m 86,-538 c 15,-31 25,-59 22,-62 -10,-10 -55,7 -86,33 -41,35 -68,89 -75,155 l -6,54 58,-62 c 33,-34 71,-87 87,-118 z m 1132,62 c 3,-3 2,-16 -2,-31 l -6,-26 -282,1 -281,1 125,24 c 146,29 429,48 446,31 z m 446,-2 c 4,-5 8,-20 8,-32 v -23 h -214 -214 l 5,23 c 3,12 6,27 8,32 1,6 77,10 201,10 121,0 202,-4 206,-10 z m 353,-24 70,-31 -189,3 -190,2 -7,27 c -4,15 -5,29 -2,32 3,2 59,3 126,1 110,-3 129,-6 192,-34 z" />
    </g>
    <path
       inkscape:connector-curvature="0"
       id="path822"
       d="m 6.7303029,164.82364 c 0,-3.87459 3.3355561,-12.37618 5.8372741,-14.8779 2.470049,-2.47005 7.06473,-5.22168 8.754585,-5.24289 2.567224,-0.0322 -3.473039,10.50391 -10.220335,17.8275 -1.5954814,1.73175 -3.2317707,3.32572 -3.6361996,3.54217 -0.6731826,0.36027 -0.7353245,0.25473 -0.7353245,-1.24888 z"
       style="opacity:1;fill:#000000;fill-opacity:1;stroke:#000000;stroke-width:0.38148654;stroke-miterlimit:4;stroke-dasharray:none;stroke-opacity:1" />
    <path
       inkscape:connector-curvature="0"
       id="path824"
       d="m 8.5397913,205.06286 -2.5724615,-2.59232 v -15.0681 -15.0681 l 2.765777,-2.33989 c 1.5211782,-1.28693 2.8229512,-2.18431 2.8928312,-1.99417 0.06988,0.19014 -0.04892,1.16625 -0.264003,2.16914 -1.256852,5.8605 -1.4956614,24.28166 -0.430433,33.2026 0.233324,1.95401 0.369444,3.71709 0.302488,3.91795 -0.06695,0.20087 -1.2793454,-0.80133 -2.6941987,-2.22711 z"
       style="opacity:1;fill:#000000;fill-opacity:1;stroke:#000000;stroke-width:0.38148654;stroke-miterlimit:4;stroke-dasharray:none;stroke-opacity:1" />
    <path
       inkscape:connector-curvature="0"
       id="path826"
       d="m 18.896846,229.63085 c -2.681113,-1.10291 -3.907005,-1.97359 -6.14009,-4.36094 -3.0664856,-3.27832 -5.2483684,-8.72082 -5.8443831,-14.57827 l -0.252314,-2.47966 0.9571019,0.95372 c 5.8257592,5.80515 11.0197702,12.75213 13.1051652,17.52815 1.871309,4.28571 1.786169,4.42269 -1.82548,2.937 z"
       style="opacity:1;fill:#000000;fill-opacity:1;stroke:#000000;stroke-width:0.38148654;stroke-miterlimit:4;stroke-dasharray:none;stroke-opacity:1" />
    <path
       inkscape:connector-curvature="0"
       id="path828"
       d="m 66.131012,220.66563 c -1.67121,-2.19144 -3.129472,-5.30414 -4.992705,-10.65707 -2.506985,-7.20238 -2.71818,-8.8779 -2.702856,-21.44313 0.01525,-12.50752 0.407219,-16.01428 2.492635,-22.30063 1.637324,-4.9356 5.138059,-11.9693 6.197469,-12.452 0.998772,-0.45507 7.09991,0.43303 24.525859,3.57005 l 11.103476,1.99886 -1.83726,1.63906 c -3.543604,3.16133 -5.270689,8.57925 -6.044336,18.96121 -1.027163,13.784 -0.0507,23.74677 2.922525,29.81892 0.555517,1.13452 1.901565,3.04367 2.991201,4.24253 l 1.98117,2.17977 -17.213902,3.13953 c -9.467655,1.72674 -17.393223,3.14301 -17.612381,3.14726 -0.219157,0.005 -1.03406,-0.82571 -1.810895,-1.84436 z"
       style="opacity:1;fill:#000000;fill-opacity:1;stroke:#000000;stroke-width:0.38148654;stroke-miterlimit:4;stroke-dasharray:none;stroke-opacity:1" />
    <path
       inkscape:connector-curvature="0"
       id="path830"
       d="m 110.87612,156.84454 c -4.78642,-0.49835 -12.512139,-1.67555 -21.553989,-3.28427 l -8.011215,-1.42536 3.192135,-0.28987 c 1.755675,-0.15943 13.257488,-0.24559 25.559599,-0.19147 l 22.36746,0.0984 0.56431,2.2301 c 0.84909,3.35552 0.98123,3.31207 -9.88827,3.25077 -4.94307,-0.0279 -10.44658,-0.20262 -12.23003,-0.3883 z"
       style="opacity:1;fill:#000000;fill-opacity:1;stroke:#000000;stroke-width:0.38148654;stroke-miterlimit:4;stroke-dasharray:none;stroke-opacity:1" />
    <path
       inkscape:connector-curvature="0"
       id="path832"
       d="m 86.270238,222.49303 c 5.120656,-1.04649 15.584412,-2.5359 22.698452,-3.23089 7.10481,-0.6941 23.23532,-1.15265 23.8931,-0.67923 0.31568,0.22721 0.32416,0.90013 0.0316,2.50424 l -0.4001,2.19355 -24.82821,-0.043 -24.828202,-0.043 z"
       style="opacity:1;fill:#000000;fill-opacity:1;stroke:#000000;stroke-width:0.38148654;stroke-miterlimit:4;stroke-dasharray:none;stroke-opacity:1" />
    <path
       inkscape:connector-curvature="0"
       id="path834"
       d="m 138.75268,156.94881 c -0.76731,-0.21442 -1.00146,-0.63823 -1.3687,-2.47735 -0.38688,-1.93751 -0.36626,-2.25042 0.1627,-2.46908 0.85589,-0.35382 38.53008,-0.31313 39.80346,0.043 0.90831,0.25401 1.0491,0.48739 1.0491,1.73914 0,1.89568 -0.64045,2.70062 -2.48988,3.12941 -1.72275,0.39941 -35.73789,0.43136 -37.15668,0.0349 z"
       style="opacity:1;fill:#000000;fill-opacity:1;stroke:#000000;stroke-width:0.38148654;stroke-miterlimit:4;stroke-dasharray:none;stroke-opacity:1" />
    <path
       inkscape:connector-curvature="0"
       id="path836"
       d="m 184.97988,157.01469 c -1.52118,-0.0803 -2.76578,-0.23202 -2.76578,-0.33707 0,-0.10505 0.27837,-1.29921 0.61861,-2.65369 l 0.61861,-2.4627 17.40663,0.008 17.40662,0.008 -3.47926,1.66293 c -1.9136,0.91461 -4.66031,2.15373 -6.10379,2.7536 l -2.62451,1.09068 -9.15568,0.0384 c -5.03562,0.0211 -10.40028,-0.0274 -11.92145,-0.1077 z"
       style="opacity:1;fill:#000000;fill-opacity:1;stroke:#000000;stroke-width:0.38148654;stroke-miterlimit:4;stroke-dasharray:none;stroke-opacity:1" />
    <path
       inkscape:connector-curvature="0"
       id="path838"
       d="m 222.07944,221.30213 c -1.9594,-0.6718 -12.01682,-4.9526 -12.01682,-5.11479 0,-0.0846 0.67301,-1.65618 1.49558,-3.49237 0.82257,-1.83619 1.68092,-4.35716 1.90743,-5.60214 0.5145,-2.82777 0.53761,-34.73537 0.028,-38.65912 -0.19816,-1.52574 -0.87954,-4.07083 -1.51417,-5.65575 -0.63464,-1.58492 -1.15388,-3.03821 -1.15388,-3.22954 0,-0.92332 11.58389,-5.82276 13.29765,-5.62428 1.94953,0.22579 3.42823,5.09471 4.84356,15.94845 0.85123,6.52783 1.18371,25.37139 0.5655,32.05028 -0.81573,8.8128 -3.09286,18.12873 -4.70776,19.25985 -0.93052,0.65177 -1.16292,0.66187 -2.7451,0.11941 z"
       style="opacity:1;fill:#000000;fill-opacity:1;stroke:#000000;stroke-width:0.38148654;stroke-miterlimit:4;stroke-dasharray:none;stroke-opacity:1" />
    <path
       inkscape:connector-curvature="0"
       id="path840"
       d="m 189.76398,222.99523 -6.75587,-0.1135 -0.39488,-1.42183 c -0.21718,-0.78201 -0.39583,-1.92127 -0.397,-2.53169 l -0.002,-1.10985 10.20476,0.23651 c 11.95504,0.27706 14.42744,0.65985 20.31602,3.14539 2.30697,0.97377 4.19448,1.84022 4.19448,1.92546 0,0.15431 -14.30209,0.0856 -27.16539,-0.13049 z"
       style="opacity:1;fill:#000000;fill-opacity:1;stroke:#000000;stroke-width:0.38148654;stroke-miterlimit:4;stroke-dasharray:none;stroke-opacity:1" />
    <path
       inkscape:connector-curvature="0"
       id="path842"
       d="m 137.41394,221.14452 c 0.27311,-1.1749 0.59307,-2.23268 0.71102,-2.35062 0.57731,-0.57732 19.94802,-0.96732 29.32812,-0.59048 11.18973,0.44954 10.94616,0.37313 10.94616,3.4335 v 1.64378 H 157.6583 136.91737 Z"
       style="opacity:1;fill:#000000;fill-opacity:1;stroke:#000000;stroke-width:0.38148654;stroke-miterlimit:4;stroke-dasharray:none;stroke-opacity:1" />
  </g>
</svg>
