<svg id="svg" xmlns="http://www.w3.org/2000/svg" xmlns:xlink="http://www.w3.org/1999/xlink" width="400" height="568.107302533532" viewBox="0, 0, 400,568.107302533532"><g id="svgg"><path id="path0" d="M191.207 0.199 C 122.482 3.527,58.169 40.694,25.495 95.966 C 2.935 134.130,-5.520 187.739,3.737 233.924 C 12.396 277.124,35.024 318.815,75.273 365.723 C 92.287 385.552,106.306 400.158,149.684 443.249 C 167.276 460.724,184.415 477.873,187.771 481.358 L 193.872 487.694 185.535 482.198 C 180.950 479.175,157.778 463.871,134.043 448.187 L 90.888 419.672 75.876 419.672 L 60.863 419.672 60.572 420.492 C 60.412 420.943,48.311 454.106,33.681 494.188 C 19.051 534.270,7.014 567.299,6.933 567.586 C 6.793 568.082,16.071 568.107,198.773 568.107 C 326.769 568.107,390.760 568.008,390.760 567.809 C 390.760 567.645,378.473 534.951,363.456 495.156 C 348.438 455.361,335.888 422.098,335.566 421.238 L 334.980 419.675 302.096 419.599 L 269.212 419.523 274.745 413.562 C 279.212 408.750,295.426 391.623,310.440 375.857 C 376.562 306.422,401.001 257.166,399.912 195.529 C 398.878 136.973,375.266 83.881,334.713 48.923 C 296.456 15.945,242.733 -2.295,191.207 0.199 M204.429 141.282 C 239.155 143.210,258.327 163.753,258.255 198.957 C 258.170 240.045,231.268 279.130,202.207 280.389 C 159.696 282.230,124.899 205.109,149.998 164.680 C 158.756 150.573,174.286 142.412,194.486 141.302 C 196.781 141.176,198.793 141.055,198.957 141.034 C 199.121 141.013,201.583 141.124,204.429 141.282 M194.354 163.074 C 177.913 164.533,166.495 172.805,162.011 186.503 C 153.297 213.124,170.803 251.954,194.248 258.009 C 227.811 266.678,255.826 201.986,230.563 174.154 C 222.985 165.806,209.627 161.718,194.354 163.074 " stroke="none" fill="#003399" fill-rule="evenodd"></path></g></svg>