<?xml version="1.0" encoding="utf-8"?>
<!-- Generator: Adobe Illustrator 24.0.0, SVG Export Plug-In . SVG Version: 6.00 Build 0)  -->
<svg version="1.1" id="Capa_1" xmlns="http://www.w3.org/2000/svg" xmlns:xlink="http://www.w3.org/1999/xlink" x="0px" y="0px"
	 viewBox="0 0 613 168" style="enable-background:new 0 0 613 168;" xml:space="preserve">
<style type="text/css">
	.st0{fill-rule:evenodd;clip-rule:evenodd;fill:#003D7A;}
	.st1{fill-rule:evenodd;clip-rule:evenodd;fill:#0059B3;}
	.st2{fill:#404040;}
</style>
<path class="st0" d="M54.9,43.9c17.2,0.1,10.3,25.3,0,25.3C44.5,69.2,37.1,43.8,54.9,43.9z"/>
<g>
	
		<image style="overflow:visible;opacity:0.6;" width="256" height="170" xlink:href="2FF03C8.png"  transform="matrix(1 0 0 1 -7 -8.997)">
	</image>
	<g>
		<g>
			<g>
				<path class="st1" d="M4.4,36.2C10.8,14.5,33,1.3,54.1,1c20.6-0.3,45.7,11.5,52,40c7.4,33.5-15.5,51.3-33.2,70.7h17.4l14.7,39.1
					H3.8l14.3-39.1h7.9l27.5,18.2C28.2,103.2-7.7,77.6,4.4,36.2L4.4,36.2z M54.9,38.1C29,37.9,39.8,75,54.9,75
					C69.9,75,80,38.3,54.9,38.1z"/>
				<g>
					<path d="M83.7,81.8l19.3,52.7c0.6,1.6,1.6,2.5,2.8,2.5c1.2,0,2.1-0.8,2.8-2.5l19.3-52.7h10.8l-21.9,59.7
						c-1.2,3.3-2.8,5.8-4.8,7.4c-2,1.6-4,2.4-6.2,2.4c-2.1,0-4.2-0.8-6.2-2.4c-2-1.6-3.6-4.1-4.7-7.4L72.9,81.8H83.7z"/>
					<path d="M149.7,94.4h-9.5v-8.5h9.5V94.4z M140.1,100.6h9.5v47.9h-9.5V100.6z"/>
					<path d="M164.8,148.5h-9.5V85.8h9.5V148.5z"/>
					<path d="M179.9,148.5h-9.5V85.8h9.5V148.5z"/>
					<path d="M224.3,148.5h-24.9c-2.2,0-4.2-0.6-6.1-1.9c-1.9-1.3-3.6-3-5-5.1c-1.4-2.1-2.5-4.7-3.3-7.6c-0.8-2.9-1.2-6-1.2-9.4
						c0-3.3,0.4-6.4,1.2-9.4c0.8-2.9,1.9-5.5,3.3-7.6c1.4-2.1,3.1-3.9,5-5.1c1.9-1.3,3.9-1.9,6.1-1.9h24.5c2.2,0,4.2,0.6,6.1,1.9
						c1.9,1.3,3.6,3,5,5.1c1.4,2.1,2.5,4.7,3.3,7.6c0.8,2.9,1.2,6,1.2,9.4v24H230v-24c0-2.6-0.6-4.8-1.8-6.6
						c-1.2-1.8-2.6-2.7-4.3-2.7h-24.5c-1.7,0-3.1,0.9-4.3,2.7c-1.2,1.8-1.8,4-1.8,6.6c0,2.6,0.6,4.8,1.8,6.6
						c1.2,1.8,2.6,2.7,4.3,2.7h24.9L224.3,148.5L224.3,148.5z"/>
				</g>
			</g>
			<path class="st1" d="M79.4,104.7c-5.4-20-15.5-28.4-4.6-31.2c9.1-2.4,7,6,15,20.1L79.4,104.7z"/>
		</g>
	</g>
</g>
<g>
	<path class="st2" d="M229.8,82h56.2v14.6h-22.9v52.1h-10.5V96.6h-22.9L229.8,82L229.8,82z"/>
	<path class="st2" d="M283.2,148.7v-24c0-3.3,0.4-6.4,1.2-9.4c0.8-2.9,1.9-5.5,3.3-7.6c1.4-2.1,3-3.9,5-5.1c1.9-1.3,3.9-1.9,6.1-1.9
		h17v14.6h-17c-1.7,0-3.1,0.9-4.3,2.7c-1.2,1.8-1.8,4-1.8,6.6v24L283.2,148.7L283.2,148.7z"/>
	<path class="st2" d="M358.3,148.7h-24.9c-2.2,0-4.2-0.6-6.1-1.9c-1.9-1.3-3.6-3-5-5.1c-1.4-2.1-2.5-4.7-3.3-7.6
		c-0.8-2.9-1.2-6-1.2-9.4c0-3.3,0.4-6.4,1.2-9.4c0.8-2.9,1.9-5.5,3.3-7.6c1.4-2.1,3-3.9,5-5.1c1.9-1.3,3.9-1.9,6.1-1.9h24.5
		c2.2,0,4.2,0.6,6.1,1.9c1.9,1.3,3.6,3,5,5.1c1.4,2.1,2.5,4.7,3.3,7.6c0.8,2.9,1.2,6,1.2,9.4v24H364v-24c0-2.6-0.6-4.8-1.8-6.6
		s-2.6-2.7-4.3-2.7h-24.5c-1.7,0-3.1,0.9-4.3,2.7s-1.8,4-1.8,6.6c0,2.6,0.6,4.8,1.8,6.6c1.2,1.8,2.6,2.7,4.3,2.7h24.9L358.3,148.7
		L358.3,148.7z"/>
	<path class="st2" d="M428.7,148.7H392c-2.2,0-4.2-0.6-6.1-1.9c-1.9-1.3-3.6-3-5-5.1c-1.4-2.1-2.5-4.7-3.3-7.6
		c-0.8-2.9-1.2-6-1.2-9.4c0-3.3,0.4-6.4,1.2-9.4c0.8-2.9,1.9-5.5,3.3-7.6c1.4-2.1,3-3.9,5-5.1c1.9-1.3,3.9-1.9,6.1-1.9h36.8v14.6
		H392c-1.7,0-3.1,0.9-4.3,2.7s-1.8,4-1.8,6.6c0,2.6,0.6,4.8,1.8,6.6c1.2,1.8,2.6,2.7,4.3,2.7h36.8V148.7z"/>
	<path class="st2" d="M468.7,148.7l-10.9-16.8h-16.6v16.8h-9.5V86h9.5v31.5h16.6l10.9-16.8H482l-15.7,24l15.7,24H468.7z"/>
	<path class="st2" d="M492.3,94.5h-9.5V86h9.5V94.5z M482.8,100.7h9.5v47.9h-9.5V100.7z"/>
	<path class="st2" d="M512.5,100.7h21.1c2.1,0,4.1,0.6,6,1.9c1.9,1.3,3.6,3,5,5.1c1.4,2.1,2.5,4.7,3.4,7.6c0.8,2.9,1.2,6,1.2,9.4v24
		h-9.6v-24c0-2.6-0.6-4.8-1.7-6.6c-1.2-1.8-2.6-2.7-4.3-2.7h-21.1c-1.7,0-3.1,0.9-4.3,2.7s-1.8,4-1.8,6.6v24h-9.5v-24
		c0-3.3,0.4-6.4,1.2-9.4c0.8-2.9,1.9-5.5,3.3-7.6c1.4-2.1,3-3.9,5-5.1C508.3,101.4,510.3,100.7,512.5,100.7z"/>
	<path class="st2" d="M596.2,154.4c1.1,0,1.9-0.5,2.7-1.6s1.1-2.5,1.1-4.1v-24c0-2.6-0.6-4.8-1.8-6.6s-2.6-2.7-4.3-2.7h-24.5
		c-1.7,0-3.1,0.9-4.3,2.7s-1.8,4-1.8,6.6c0,2.6,0.6,4.8,1.8,6.6c1.2,1.8,2.6,2.7,4.3,2.7h24.9v14.6h-24.9c-2.2,0-4.2-0.6-6.1-1.9
		c-1.9-1.3-3.6-3-5-5.1c-1.4-2.1-2.5-4.7-3.3-7.6c-0.8-2.9-1.2-6-1.2-9.4c0-3.3,0.4-6.4,1.2-9.4c0.8-2.9,1.9-5.5,3.3-7.6
		c1.4-2.1,3-3.9,5-5.1c1.9-1.3,3.9-1.9,6.1-1.9h24.5c2.2,0,4.2,0.6,6.1,1.9c1.9,1.3,3.6,3,5,5.1c1.4,2.1,2.5,4.7,3.3,7.6
		c0.8,2.9,1.2,6,1.2,9.4v24c0,2.8-0.3,5.5-1,8c-0.7,2.5-1.6,4.6-2.9,6.4c-1.2,1.8-2.6,3.3-4.2,4.3c-1.6,1.1-3.3,1.6-5.1,1.6
		L596.2,154.4L596.2,154.4z"/>
</g>
</svg>
