<?xml version="1.0" encoding="utf-8"?>
<!-- Generator: Adobe Illustrator 16.0.0, SVG Export Plug-In . SVG Version: 6.00 Build 0)  -->
<!DOCTYPE svg PUBLIC "-//W3C//DTD SVG 1.1//EN" "http://www.w3.org/Graphics/SVG/1.1/DTD/svg11.dtd">
<svg version="1.1" id="Capa_1" xmlns="http://www.w3.org/2000/svg" xmlns:xlink="http://www.w3.org/1999/xlink" x="0px" y="0px"
	 width="612.952px" height="168.003px" viewBox="0 0 612.952 168.003" enable-background="new 0 0 612.952 168.003"
	 xml:space="preserve">
<path fill-rule="evenodd" clip-rule="evenodd" fill="#0059B3" d="M4.437,36.232C10.806,14.51,33.044,1.28,54.065,1.004
	c20.573-0.27,45.662,11.459,51.98,39.99c7.41,33.458-15.509,51.255-33.182,70.714h17.445l14.743,39.066H3.82l14.251-39.066h7.863
	l27.519,18.182C28.188,103.165-7.705,77.642,4.437,36.232L4.437,36.232z M54.936,38.144C28.981,37.945,39.801,75,54.936,75
	C69.933,75,80.042,38.336,54.936,38.144z"/>
<path fill-rule="evenodd" clip-rule="evenodd" fill="#003D7A" d="M54.874,43.947c17.2,0.131,10.274,25.25,0,25.25
	C44.505,69.196,37.092,43.811,54.874,43.947z"/>
<g>
	<path d="M83.674,81.825l19.286,52.684c0.635,1.623,1.56,2.454,2.778,2.494c1.216,0.042,2.143-0.791,2.778-2.494l19.286-52.684
		h10.794l-21.905,59.741c-1.218,3.327-2.818,5.801-4.802,7.422c-1.984,1.622-4.048,2.434-6.19,2.434
		c-2.143,0-4.207-0.812-6.191-2.434c-1.984-1.621-3.559-4.095-4.722-7.422L72.88,81.825H83.674z"/>
	<path d="M149.654,94.356h-9.524V85.84h9.524V94.356z M140.13,100.563h9.524v47.938h-9.524V100.563z"/>
	<path d="M164.759,148.501h-9.524V85.84h9.524V148.501z"/>
	<path d="M179.865,148.501h-9.524V85.84h9.524V148.501z"/>
	<path d="M224.336,148.501h-24.921c-2.17,0-4.207-0.627-6.111-1.886c-1.905-1.257-3.559-2.96-4.96-5.11
		c-1.402-2.148-2.514-4.685-3.333-7.604c-0.821-2.92-1.23-6.042-1.23-9.369c0-3.325,0.409-6.448,1.23-9.368
		c0.82-2.92,1.931-5.455,3.333-7.604c1.401-2.148,3.056-3.852,4.96-5.11c1.905-1.257,3.941-1.886,6.111-1.886h24.524
		c2.169,0,4.207,0.629,6.111,1.886c1.905,1.259,3.558,2.962,4.96,5.11c1.401,2.149,2.512,4.685,3.333,7.604
		c0.82,2.92,1.23,6.043,1.23,9.368v23.97h-9.524v-23.97c0-2.595-0.595-4.806-1.786-6.631c-1.19-1.825-2.632-2.737-4.325-2.737
		h-24.524c-1.694,0-3.135,0.912-4.326,2.737c-1.19,1.825-1.786,4.036-1.786,6.631c0,2.598,0.595,4.807,1.786,6.632
		c1.191,1.824,2.632,2.737,4.326,2.737h24.921V148.501z"/>
</g>
<path fill-rule="evenodd" clip-rule="evenodd" fill="#0059B3" d="M79.387,104.748c-5.404-20.024-15.478-28.42-4.625-31.227
	c9.097-2.353,7.029,5.989,14.99,20.052L79.387,104.748z"/>
<g>
	<path fill="#404040" d="M229.844,82.006h56.238v14.601h-22.892v52.075h-10.456V96.607h-22.891V82.006z"/>
	<path fill="#404040" d="M283.23,148.683v-23.97c0-3.325,0.408-6.448,1.228-9.368c0.818-2.92,1.927-5.455,3.327-7.604
		c1.398-2.148,3.049-3.852,4.95-5.11c1.901-1.257,3.933-1.886,6.099-1.886h17.03v14.601h-17.03c-1.69,0-3.128,0.912-4.317,2.737
		c-1.188,1.825-1.782,4.036-1.782,6.631v23.97H283.23z"/>
	<path fill="#404040" d="M358.32,148.683h-24.871c-2.166,0-4.198-0.627-6.1-1.886c-1.9-1.257-3.552-2.96-4.95-5.11
		c-1.4-2.148-2.509-4.685-3.327-7.604c-0.819-2.92-1.228-6.042-1.228-9.369c0-3.325,0.408-6.448,1.228-9.368
		c0.818-2.92,1.927-5.455,3.327-7.604c1.398-2.148,3.05-3.852,4.95-5.11c1.901-1.257,3.934-1.886,6.1-1.886h24.475
		c2.165,0,4.198,0.629,6.1,1.886c1.9,1.259,3.551,2.962,4.95,5.11c1.398,2.149,2.508,4.685,3.327,7.604
		c0.818,2.92,1.228,6.043,1.228,9.368v23.97h-9.505v-23.97c0-2.595-0.594-4.806-1.782-6.631s-2.628-2.737-4.317-2.737h-24.475
		c-1.691,0-3.129,0.912-4.317,2.737s-1.782,4.036-1.782,6.631c0,2.598,0.594,4.807,1.782,6.632c1.188,1.824,2.626,2.737,4.317,2.737
		h24.871V148.683z"/>
	<path fill="#404040" d="M428.735,148.683h-36.752c-2.166,0-4.198-0.627-6.1-1.886c-1.9-1.257-3.552-2.96-4.95-5.11
		c-1.4-2.148-2.509-4.685-3.327-7.604c-0.819-2.92-1.228-6.042-1.228-9.369c0-3.325,0.408-6.448,1.228-9.368
		c0.818-2.92,1.927-5.455,3.327-7.604c1.398-2.148,3.05-3.852,4.95-5.11c1.901-1.257,3.934-1.886,6.1-1.886h36.752v14.601h-36.752
		c-1.691,0-3.129,0.912-4.317,2.737s-1.782,4.036-1.782,6.631c0,2.598,0.594,4.807,1.782,6.632c1.188,1.824,2.626,2.737,4.317,2.737
		h36.752V148.683z"/>
	<path fill="#404040" d="M468.657,148.683l-10.931-16.791h-16.555v16.791h-9.505V86.021h9.505v31.513h16.555l10.931-16.79h13.308
		l-15.684,23.969l15.684,23.97H468.657z"/>
	<path fill="#404040" d="M492.34,94.538h-9.505v-8.517h9.505V94.538z M482.835,100.744h9.505v47.938h-9.505V100.744z"/>
	<path fill="#404040" d="M512.458,100.744h21.148c2.111,0,4.119,0.629,6.02,1.886c1.901,1.259,3.564,2.962,4.99,5.11
		c1.426,2.149,2.547,4.685,3.366,7.604c0.818,2.92,1.228,6.043,1.228,9.368v23.97h-9.584v-23.97c0-2.595-0.581-4.806-1.742-6.631
		c-1.162-1.825-2.588-2.737-4.277-2.737h-21.148c-1.691,0-3.129,0.912-4.317,2.737s-1.782,4.036-1.782,6.631v23.97h-9.505v-23.97
		c0-3.325,0.408-6.448,1.228-9.368c0.818-2.92,1.927-5.455,3.327-7.604c1.398-2.148,3.05-3.852,4.95-5.11
		C508.26,101.373,510.292,100.744,512.458,100.744z"/>
	<path fill="#404040" d="M596.181,154.401c1.056,0,1.94-0.548,2.653-1.643s1.069-2.454,1.069-4.076v-23.97
		c0-2.595-0.594-4.806-1.782-6.631s-2.628-2.737-4.317-2.737h-24.475c-1.691,0-3.129,0.912-4.317,2.737s-1.782,4.036-1.782,6.631
		c0,2.598,0.594,4.807,1.782,6.632c1.188,1.824,2.626,2.737,4.317,2.737H594.2v14.601h-24.871c-2.166,0-4.198-0.627-6.1-1.886
		c-1.9-1.257-3.552-2.96-4.95-5.11c-1.4-2.148-2.509-4.685-3.327-7.604c-0.819-2.92-1.228-6.042-1.228-9.369
		c0-3.325,0.408-6.448,1.228-9.368c0.818-2.92,1.927-5.455,3.327-7.604c1.398-2.148,3.05-3.852,4.95-5.11
		c1.901-1.257,3.934-1.886,6.1-1.886h24.475c2.165,0,4.198,0.629,6.1,1.886c1.9,1.259,3.551,2.962,4.95,5.11
		c1.398,2.149,2.508,4.685,3.327,7.604c0.818,2.92,1.228,6.043,1.228,9.368v23.97c0,2.839-0.344,5.494-1.029,7.97
		c-0.688,2.474-1.638,4.623-2.852,6.448c-1.216,1.825-2.628,3.265-4.238,4.319c-1.611,1.054-3.314,1.582-5.108,1.582V154.401z"/>
</g>
</svg>
